<?xml version="1.0" encoding="utf-8"?>
<!-- Generator: Adobe Illustrator 21.0.1, SVG Export Plug-In . SVG Version: 6.00 Build 0)  -->
<svg version="1.1" id="Réteg_1" xmlns="http://www.w3.org/2000/svg" xmlns:xlink="http://www.w3.org/1999/xlink" x="0px" y="0px"
	 viewBox="0 0 539.8 83.1" style="enable-background:new 0 0 539.8 83.1;" xml:space="preserve">
<style type="text/css">
	.st0{fill:#277EEC;}
</style>
<g>
	<path class="st0" d="M65.1,10.8c0.3-2.4,0.5-4.3,0.7-6.2c0.2-2.3,0.4-2.5,2.6-2.5c5.9,0,11.8,0,17.6,0c1.6,0,2.1,0.5,2.1,2.1
		c0,25,0,50,0,75c0,1.6-0.6,2.2-2.2,2.2c-5.7-0.1-11.4-0.1-17.1,0c-1.6,0-2.2-0.6-2.3-2.2c-0.2-2-0.5-4-0.8-6.1
		c0-0.3-0.2-0.8-0.4-0.9c-0.4-0.2-0.6,0.2-0.8,0.5c-5.1,6.4-12.2,9.2-20.1,10c-8.9,0.9-17.4-0.8-25.3-5.2C10.2,72.6,4.6,65,1.9,55.4
		c-2.7-10-2.7-20.1,0.9-29.9C7.4,12.8,16.6,5,29.5,1.6c5.9-1.5,11.9-2,18-1C54.4,1.8,60.4,4.6,65.1,10.8z M44.1,62.4
		c12.1,0.3,20.8-9,21-19.6C65.2,29.9,56.6,21,44.2,21C32,21,23.4,29.6,23.3,41.8C23.3,54.1,31.6,62.4,44.1,62.4z"/>
	<path class="st0" d="M252.5,10.4c0.3-2.3,0.6-4.4,0.8-6.5c0.1-1.2,0.6-1.7,1.8-1.7c6.2,0,12.4,0,18.5,0c1.7,0,1.8,1,1.8,2.2
		c0,11.8,0,23.5,0,35.3c0,13,0,26,0,39c0,2.7,0,2.7-2.6,2.7c-5.5,0-11,0-16.6,0c-1.4,0-2.1-0.3-2.2-1.9c-0.2-2.5-0.7-4.9-1.1-7.7
		c-1.6,1.3-2.6,2.9-4,4c-5.7,4.6-12.2,6.8-19.4,7c-6.7,0.2-13.2-0.8-19.3-3.5c-9.9-4.3-16.7-11.7-20.2-22c-3.3-10-3.6-20.1-0.4-30.1
		c4.8-15.2,15.5-23.8,31-26.6c7.2-1.3,14.3-1,21.2,1.7c3.8,1.5,6.9,3.8,9.5,6.9C251.6,9.7,251.8,10.2,252.5,10.4z M231.3,62.4
		c12.1,0.4,21-9,21.1-19.7c0.2-12.6-8.6-21.7-20.8-21.6c-11.4,0-20.9,7.3-21,20.9C210.7,55.3,220.5,62.5,231.3,62.4z"/>
	<path class="st0" d="M418.7,10.6c0.6-2.2,0.7-4.2,0.9-6.2c0.1-1.8,0.8-2.2,2.4-2.2c5.8,0.1,11.5,0,17.3,0c2.4,0,2.4,0,2.4,2.4
		c0,22,0,44,0,66c0,2.9-0.1,5.8,0,8.6c0,1.5-0.4,2.2-2,2.1c-5.8-0.1-11.5,0-17.3,0c-1.3,0-1.9-0.4-2.1-1.8c-0.3-2.5-0.4-5-1.1-7.4
		c-0.4-0.1-0.6,0-0.7,0.2c-6,7.2-13.9,10.1-23,10.4c-8.8,0.3-17.1-1.7-24.5-6.5c-9.6-6.2-14.6-15.3-16.4-26.3
		c-1.4-8.2-0.9-16.3,1.8-24.1c3.9-11.3,11.6-19,22.8-23.1c8.5-3.1,17.2-3.8,26-1.4C410.7,3,414.3,5.4,418.7,10.6z M377.2,41.9
		c0,12.3,8.2,20.3,20.6,20.5c12.1,0.1,20.9-9,21-19.5c0.1-13.4-8.5-21.8-20.9-21.8C385.7,21,377.2,29.6,377.2,41.9z"/>
	<path class="st0" d="M497.4,82.6c-11,0-20.1-2.1-28.2-7.8c-8.9-6.2-13.8-14.8-15.6-25.3c-1.3-7.4-0.9-14.8,1.6-22
		c4.6-13.4,14-21.9,27.6-25.5c11.6-3.1,23.1-2.6,34.1,2.4c12.7,5.7,20.2,15.8,22.3,29.5c1.5,9.2,0.6,18.3-3.6,26.8
		c-5.4,11-14.4,17.4-26,20.4C505.2,82.2,500.7,82.8,497.4,82.6z M476.5,41.5c0.2,7.8,2.6,14.3,9.4,18.3c5.2,3.1,11,3.2,16.7,1.8
		c6-1.5,10.1-5.3,12.3-11.1c1.2-3.4,1.6-6.9,1.2-10.5c-0.7-7.4-3.7-13.5-10.7-16.7c-7.2-3.3-14.4-2.9-21,1.7
		C478.6,29,476.7,35,476.5,41.5z"/>
	<path class="st0" d="M140.9,56.8c1.9-5,3.6-9.5,5.2-14.1c4.7-13,10-25.9,14.9-38.8c0.5-1.3,1.2-1.8,2.7-1.8c7.3,0.1,14.5,0,21.8,0
		c2,0,2.1,0.2,1.3,2.1c-10.8,25.3-21.6,50.6-32.4,76c-0.6,1.4-1.4,1.9-2.8,1.9c-7.1,0-14.3,0-21.4,0c-1.5,0-2.2-0.6-2.8-2
		C116.7,55.1,105.9,30,95.2,4.9c-1.2-2.7-1.2-2.7,1.8-2.7c7,0,14,0.1,21.1,0c1.8,0,2.5,0.6,3.1,2.2c6.6,16.8,13.1,33.7,19,50.7
		C140.4,55.5,140.6,55.9,140.9,56.8z"/>
	<path class="st0" d="M317.7,2.5c8.8,0,17.5,0,26.3,0c1.8,0,2.4,0.5,2.4,2.4c-0.1,5-0.1,10.1,0,15.1c0,1.6-0.5,2.1-2.1,2.1
		c-5.3-0.1-10.7,0-16-0.1c-1.7,0-2.2,0.6-2.2,2.2c0.1,9.2,0,18.5,0,27.7c0,1.8,0.3,3.6,1,5.3c1.3,3.1,3.7,4.7,7,4.8
		c3,0.1,6-0.1,8.8-1.5c1.3-0.7,1.7-0.2,2,1c1.1,4,2.2,8,3.3,12c0.3,1.1,0.6,2.2,0.9,3.3c0.7,2.6,0.7,2.6-1.8,3.5
		c-3.6,1.3-7.4,2.2-11.2,2.5c-5,0.4-10.1,0.6-15-0.8c-8.3-2.3-13.6-7.8-16.2-15.9c-1.8-5.4-2-11-2.1-16.5c-0.1-8.4,0-16.8,0-25.2
		c0-2.3-0.1-2.3-2.3-2.3c-3.1,0-6.1-0.1-9.2,0c-1.7,0.1-2.3-0.5-2.3-2.2c0.1-5,0.1-10,0-14.9c0-1.8,0.5-2.4,2.3-2.4
		C300.1,2.6,308.9,2.5,317.7,2.5z"/>
</g>
</svg>
