<?xml version="1.0" encoding="utf-8"?>
<!-- Generator: Adobe Illustrator 19.0.0, SVG Export Plug-In . SVG Version: 6.00 Build 0)  -->
<svg version="1.1" id="Layer_1" xmlns="http://www.w3.org/2000/svg" xmlns:xlink="http://www.w3.org/1999/xlink" x="0px" y="0px"
	 width="831.1px" height="504.1px" viewBox="0 0 831.1 504.1" style="enable-background:new 0 0 831.1 504.1;" xml:space="preserve"
	>
<style type="text/css">
	.st0{fill:#F05123;}
	.st1{fill:#2B2B2D;}
</style>
<g>
	<path class="st0" d="M468.7,305.6c2.3,5.5,5.9,9,12.2,9h0.8c6.3,0,9.8-3.5,12.2-9L606.4,48.2c0.8-1.6,0.8-2.4,0.8-3.9
		c0-4.7-4.3-9.4-9.8-9.4c-4.7,0-8.3,3.5-10.2,7.9L481.7,289.8l-105-246.7c-2-4.7-5.5-8.3-10.6-8.3c-5.9,0-10.2,5.1-10.2,9.8
		c0,2,0,2.8,0.8,4.3L468.7,305.6z"/>
	<path class="st0" d="M172.9,43.9c-2.3-5.5-5.9-9-12.2-9h-0.8c-6.3,0-9.8,3.5-12.2,9L35.2,301.2c-0.8,1.6-0.8,2.4-0.8,3.9
		c0,4.7,4.3,9.4,9.8,9.4c4.7,0,8.3-3.5,10.2-7.9L159.9,59.7l105,246.7c2,4.7,5.5,8.3,10.6,8.3c5.9,0,10.2-5.1,10.2-9.8
		c0-2,0-2.8-0.8-4.3L172.9,43.9z"/>
	<path class="st0" d="M755.9,34.9c-5.5,0-10.2,4.7-10.2,10.2v258.1c0,5.5,4.7,10.2,10.2,10.2c5.5,0,10.2-4.7,10.2-10.2V45.1
		C766.2,39.6,761.4,34.9,755.9,34.9"/>
	<path class="st1" d="M36,406.6c0-1.4,1.2-2.6,2.6-2.6h0.8c1.1,0,1.9,0.6,2.6,1.5l47.2,59.9v-59c0-1.4,1.1-2.5,2.5-2.5
		c1.4,0,2.5,1.1,2.5,2.5v66c0,1.2-0.9,2.2-2.1,2.2h-0.4c-1,0-1.8-0.7-2.6-1.7l-48.1-61v60.3c0,1.4-1.1,2.5-2.5,2.5
		c-1.4,0-2.5-1.1-2.5-2.5V406.6z"/>
	<path class="st1" d="M175.5,475.5c-13.4,0-25-10.7-25-26.6v-0.2c0-14.8,10.4-26.6,24.2-26.6c14.3,0,23.4,11.8,23.4,26.4
		c0,1.2-1.2,2.3-2.4,2.3h-40c0.9,12.7,10,20.1,20,20.1c7.3,0,12.4-3,16.5-7c0.4-0.4,0.9-0.7,1.6-0.7c1.3,0,2.4,1,2.4,2.3
		c0,0.5-0.2,1.1-0.8,1.7C190.4,472.2,184.7,475.5,175.5,475.5 M192.8,446.4c-0.7-10.3-6.6-19.8-18.3-19.8
		c-10.1,0-17.9,8.5-18.8,19.8H192.8z"/>
	<path class="st1" d="M255.2,461.2v-33.4h-5.5c-1.2,0-2.3-1.1-2.3-2.3c0-1.2,1.1-2.2,2.3-2.2h5.5v-14.2c0-1.4,1-2.5,2.4-2.5
		c1.4,0,2.5,1.1,2.5,2.5v14.2h16c1.2,0,2.3,1.1,2.3,2.3c0,1.2-1.1,2.2-2.3,2.2h-16v32.9c0,7.3,4.3,9.9,10.2,9.9c3.5,0,5.1-1,5.8-1
		c1.1,0,2.2,1,2.2,2.2c0,1-0.6,1.7-1.6,2.1c-2,0.7-4.3,1.3-7.2,1.3C261.6,475.2,255.2,470.9,255.2,461.2"/>
	<path class="st1" d="M346.2,472.8l-16.7-45.9c-0.2-0.5-0.4-1.1-0.4-1.6c0-1.3,1.2-2.4,2.6-2.4c1.4,0,2.2,0.9,2.6,2.1l14.8,43.1
		l14.8-43.3c0.4-1.1,1.1-1.9,2.4-1.9h0.2c1.4,0,2.1,0.8,2.5,1.9l14.8,43.3l14.9-43.3c0.3-1,1-1.9,2.4-1.9c1.4,0,2.5,1.1,2.5,2.3
		c0,0.6-0.2,1.2-0.4,1.7l-16.7,45.9c-0.5,1.4-1.5,2.2-2.7,2.2h-0.2c-1.3,0-2.2-0.8-2.7-2.3L366.4,431l-14.6,41.7
		c-0.5,1.5-1.4,2.3-2.7,2.3h-0.2C347.7,475,346.7,474.2,346.2,472.8"/>
	<path class="st1" d="M452.8,449v-0.2c0-14.3,11.1-26.7,26.3-26.7c15.1,0,26.1,12.2,26.1,26.5v0.2c0,14.3-11.1,26.7-26.3,26.7
		C463.8,475.5,452.8,463.3,452.8,449 M499.9,449v-0.2c0-12.3-9.2-22.1-21-22.1c-12.1,0-20.8,9.9-20.8,21.9v0.2
		c0,12.3,9.2,22.1,21,22.1C491.2,470.9,499.9,461,499.9,449"/>
	<path class="st1" d="M560.3,425.4c0-1.4,1-2.5,2.4-2.5c1.4,0,2.5,1,2.5,2.5v12.4c4.4-9.9,13.3-15.3,20.5-15.3
		c1.5,0,2.6,1.2,2.6,2.7c0,1.4-1,2.6-2.6,2.7c-10.8,1-20.5,9.1-20.5,25.5v18.8c0,1.4-1,2.5-2.4,2.5c-1.4,0-2.5-1-2.5-2.5V425.4z"/>
	<path class="st1" d="M640.4,403.4c0-1.4,1-2.5,2.4-2.5c1.4,0,2.5,1.1,2.5,2.5V456l31.3-32.4c0.5-0.5,1-0.7,1.7-0.7
		c1.3,0,2.3,1,2.3,2.3c0,0.7-0.2,1.1-0.8,1.7l-18.7,19l20,24.7c0.5,0.6,0.7,1.1,0.7,1.8c0,1.4-1,2.3-2.4,2.3c-0.9,0-1.4-0.3-2.1-1.1
		l-19.6-24.2l-12.4,12.5v10.3c0,1.5-1,2.5-2.4,2.5s-2.5-1-2.5-2.5V403.4z"/>
	<path class="st1" d="M733.2,468.7c-0.4-0.3-0.9-1.1-0.9-1.9c0-1.3,1.1-2.4,2.4-2.4c0.6,0,1.2,0.2,1.6,0.5c5.3,3.8,10.9,5.8,17,5.8
		c6.9,0,12.3-3.8,12.3-9.7v-0.2c0-6-6.4-8.2-13.5-10.2c-8.3-2.4-17.5-4.9-17.5-14v-0.2c0-8.2,6.9-14.1,16.8-14.1
		c5.5,0,11.6,1.8,16.5,4.6c0.6,0.4,1.3,1.1,1.3,2.2c0,1.3-1.1,2.4-2.4,2.4c-0.6,0-1.1-0.2-1.4-0.4c-4.4-2.6-9.3-4.2-14.2-4.2
		c-7,0-11.6,3.8-11.6,8.9v0.2c0,5.7,6.9,7.8,14.2,9.9c8.2,2.3,16.8,5.3,16.8,14.3v0.2c0,9.1-7.8,14.9-17.6,14.9
		C746.1,475.4,738.4,472.6,733.2,468.7"/>
	<path class="st1" d="M786.5,418c0-7,5.7-12.8,12.8-12.8c7,0,12.8,5.7,12.8,12.8c0,7-5.7,12.8-12.8,12.8
		C792.2,430.8,786.5,425.1,786.5,418 M808.7,418c0-5.7-3.9-9.7-9.4-9.7c-5.6,0-9.4,4-9.4,9.7c0,5.7,3.8,9.7,9.4,9.7
		C804.8,427.8,808.7,423.7,808.7,418 M805.6,425h-3.3l-3.1-5.8h-2.3v5.8h-2.9v-13.8h6.7c3.6,0,5.4,1,5.4,4.2c0,2.6-1.3,3.6-3.8,3.7
		L805.6,425z M800.8,417.1c1.5,0,2.6-0.3,2.6-2.1c0-1.8-2-1.7-3.3-1.7h-3.1v3.8H800.8z"/>
</g>
</svg>
