<?xml version="1.0" encoding="UTF-8" standalone="no"?>
<svg
   xmlns:dc="http://purl.org/dc/elements/1.1/"
   xmlns:cc="http://creativecommons.org/ns#"
   xmlns:rdf="http://www.w3.org/1999/02/22-rdf-syntax-ns#"
   xmlns:svg="http://www.w3.org/2000/svg"
   xmlns="http://www.w3.org/2000/svg"
   viewBox="0 0 840 242.61333"
   height="242.61333"
   width="840"
   xml:space="preserve"
   id="svg2"
   version="1.1"><metadata
     id="metadata8"><rdf:RDF><cc:Work
         rdf:about=""><dc:format>image/svg+xml</dc:format><dc:type
           rdf:resource="http://purl.org/dc/dcmitype/StillImage" /></cc:Work></rdf:RDF></metadata><defs
     id="defs6" /><g
     transform="matrix(1.3333333,0,0,-1.3333333,0,242.61333)"
     id="g10"><g
       transform="scale(0.1)"
       id="g12"><path
         id="path14"
         style="fill:#211d1d;fill-opacity:1;fill-rule:nonzero;stroke:none"
         d="m 1596.43,678.98 c 0,-6.992 2.04,-12.898 6.11,-17.75 4.07,-4.851 10.56,-7.269 19.48,-7.269 h 165.18 c 10.08,0 17.06,2.129 20.94,6.41 3.87,4.25 5.82,10.649 5.82,19.18 v 499.629 c 51.96,-85.32 254.94,-420.731 306.52,-506.02 4.26,-5.82 8.33,-10.48 12.21,-13.969 3.87,-3.492 8.34,-5.23 13.38,-5.23 h 185.54 c 8.14,0 14.54,1.84 19.19,5.527 4.66,3.684 6.98,9.391 6.98,17.153 v 815.449 c 0,8.14 -2.71,14.45 -8.14,18.91 -5.43,4.45 -12.21,6.68 -20.36,6.68 h -165.76 c -6.21,0 -11.63,-1.95 -16.29,-5.82 -4.65,-3.88 -7.76,-9.29 -9.3,-16.27 V 1029.7 c -49.64,79.48 -244.49,390.46 -293.73,469.96 -4.27,6.59 -9.3,11.23 -15.12,13.95 -5.81,2.71 -11.44,4.07 -16.87,4.07 h -190.19 c -8.53,0 -14.93,-2.52 -19.19,-7.55 -4.27,-5.06 -6.4,-11.06 -6.4,-18.04 z M 2477,1492.16 c 0,7.73 2.62,13.91 7.85,18.57 5.24,4.63 11.73,6.95 19.49,6.95 h 625.83 c 6.98,0 13.18,-2.13 18.61,-6.38 5.43,-4.25 8.53,-10.62 9.31,-19.14 v -144.39 c 0,-6.97 -2.43,-13.63 -7.27,-20.02 -4.85,-6.37 -11.73,-9.57 -20.65,-9.57 H 2929.51 V 681.32 c 0,-6.98 -2.52,-13.289 -7.54,-18.922 -5.04,-5.628 -11.61,-8.437 -19.72,-8.437 h -170.57 c -6.58,0 -12.76,2.621 -18.56,7.859 -5.8,5.239 -8.7,11.75 -8.7,19.5 v 636.86 h -200.08 c -7.76,0 -14.25,2.52 -19.49,7.53 -5.23,5.04 -7.85,12.38 -7.85,22.06 z m 1510.48,-819 c 0,5.422 -2.14,11.82 -6.4,19.192 -4.27,7.359 -7.76,13.757 -10.47,19.187 l -149.48,281.516 c 20.94,12.015 40.22,26.465 57.87,43.335 17.64,16.86 32.86,35.66 45.66,56.41 12.8,20.75 22.77,43.04 29.95,66.9 7.17,23.84 10.76,48.94 10.76,75.32 0,38.77 -7.47,75.32 -22.39,109.64 -14.93,34.3 -35.39,64.27 -61.36,89.86 -25.98,25.59 -56.42,45.84 -91.32,60.78 -34.89,14.91 -72.32,22.38 -112.25,22.38 h -375.73 c -8.54,0 -14.94,-2.43 -19.2,-7.27 -4.27,-4.84 -6.4,-11.34 -6.4,-19.48 V 678.98 c 0,-8.539 2.33,-14.839 6.98,-18.91 4.66,-4.07 10.86,-6.109 18.62,-6.109 h 172.74 c 17.83,0 26.76,8.328 26.76,25.019 v 262.317 h 94.22 L 3737.38,675.48 c 1.54,-6.601 4.94,-11.832 10.17,-15.699 5.24,-3.883 11.15,-5.82 17.74,-5.82 h 199.5 c 6.98,0 12.51,1.648 16.58,4.937 4.07,3.293 6.11,8.051 6.11,14.262 m -255.34,559.52 c 0,-12.41 -1.94,-24.52 -5.82,-36.34 -3.88,-11.84 -9.5,-22.5 -16.86,-32 -7.37,-9.5 -16.49,-17.45 -27.34,-23.84 -10.86,-6.41 -23.07,-10.39 -36.64,-11.93 -6.6,-0.77 -12.61,-1.36 -18.03,-1.75 -5.44,-0.39 -11.64,-0.57 -18.61,-0.57 h -107.02 v 213.46 h 80.26 c 11.24,0 21.61,-0.3 31.12,-0.87 9.49,-0.59 19.67,-1.27 30.53,-2.04 13.18,-1.94 25.2,-6.21 36.06,-12.8 10.85,-6.59 20.16,-14.73 27.92,-24.43 7.75,-9.69 13.76,-20.36 18.03,-31.98 4.26,-11.63 6.4,-23.27 6.4,-34.91 M 4866.89,661.23 c -4.27,-4.851 -11.63,-7.269 -22.1,-7.269 h -166.93 c -8.93,0 -15.81,1.648 -20.65,4.937 -4.85,3.293 -8.63,8.832 -11.34,16.582 -7.76,19.782 -37.42,98.301 -44.79,118.079 h -308.84 c -7.37,-19.778 -37.42,-98.297 -44.79,-118.079 -5.04,-14.351 -14.93,-21.519 -29.66,-21.519 h -171.58 c -7.37,0 -13.48,1.937 -18.32,5.82 -4.85,3.867 -5.73,9.68 -2.62,17.449 L 4341.1,1495 c 0.38,2.32 1.64,4.84 3.78,7.57 2.12,2.7 4.74,5.23 7.85,7.56 3.1,2.32 6.4,4.16 9.89,5.51 3.49,1.36 6.78,2.04 9.88,2.04 h 148.9 c 6.59,0 12.22,-2.04 16.87,-6.11 4.65,-4.07 8.14,-7.66 10.47,-10.75 l 14.54,-33.16 305.35,-787.531 c 3.1,-7.758 2.52,-14.047 -1.74,-18.899 m -419.94,584.84 c -7.37,-19.78 -82.21,-246.03 -89.57,-265.804 h 178.56 z m 574.06,-302.457 c -3.88,2.332 -7.56,3.492 -11.05,3.492 -5.05,0 -11.64,-2.91 -19.78,-8.718 l -100.62,-95.973 c -8.92,-8.168 -13.38,-15.559 -13.38,-22.168 0,-5.836 4.46,-13.617 13.38,-23.336 0.38,-0.398 0.77,-0.691 1.16,-0.879 0.38,-0.199 0.78,-0.679 1.17,-1.449 0.38,-0.402 0.77,-0.691 1.16,-0.871 0.38,-0.211 0.77,-0.691 1.16,-1.473 l 1.75,-1.738 c 6.2,-6.629 14.63,-15.371 25.3,-26.25 10.66,-10.898 23.75,-21.98 39.26,-33.262 37.22,-26.84 77.35,-48.226 120.4,-64.168 43.04,-15.929 86.85,-23.91 131.44,-23.91 47.31,0 91.51,6.692 132.61,20.07 41.1,13.379 76.87,32.282 107.32,56.711 30.43,24.43 54.38,53.989 71.83,88.688 17.45,34.707 26.17,73.387 26.17,116.047 0,40.32 -7.08,74.64 -21.23,102.954 -14.16,28.3 -33.83,52.62 -59.03,72.98 -25.21,20.37 -55.17,38 -89.87,52.94 -34.7,14.91 -72.61,29.16 -113.7,42.75 -21.33,6.97 -40.05,13.47 -56.13,19.47 -16.1,6.02 -29.57,12.41 -40.43,19.21 -10.86,6.77 -19,14.15 -24.42,22.09 -5.44,7.95 -8.15,17.36 -8.15,28.22 0,10.85 2.52,20.05 7.56,27.62 5.04,7.57 11.83,13.66 20.36,18.32 8.53,4.66 18.41,8.04 29.67,10.18 11.24,2.13 23.26,3.2 36.06,3.2 12.4,0 24.62,-1.84 36.64,-5.52 12.01,-3.7 23.45,-8.34 34.31,-13.96 10.86,-5.63 21.03,-11.92 30.54,-18.9 9.5,-6.98 18.12,-13.77 25.88,-20.37 l 5.24,-4.65 c 5.42,-4.66 10.37,-8.53 14.83,-11.64 4.45,-3.09 9.4,-4.64 14.83,-4.64 6.59,0 13.18,3.28 19.78,9.89 l 88.99,94.79 c 5.03,5.44 8.81,10.28 11.34,14.55 2.51,4.27 3.78,8.91 3.78,13.95 0,5.05 -2.62,11.05 -7.85,18.03 -5.24,6.99 -12.32,14.34 -21.23,22.11 -8.93,7.75 -19.3,15.8 -31.12,24.14 -11.83,8.34 -24.34,16.38 -37.52,24.13 -31.4,17.46 -63.3,30.16 -95.67,38.11 -32.38,7.94 -66.22,11.92 -101.5,11.92 -46.92,0 -89.38,-5.73 -127.38,-17.16 -38,-11.43 -70.47,-27.59 -97.42,-48.51 -26.95,-20.92 -47.69,-46.11 -62.23,-75.56 -14.54,-29.43 -21.81,-62.18 -21.81,-98.21 0,-34.09 5.81,-65 17.45,-92.7 11.63,-27.7 29.08,-53.07 52.34,-76.12 23.27,-23.04 52.35,-43.97 87.25,-62.77 34.89,-18.79 75.61,-36.31 122.14,-52.59 10.47,-3.48 22.87,-7.84 37.22,-13.075 14.34,-5.23 28.11,-11.519 41.3,-18.878 13.18,-7.364 24.33,-15.801 33.44,-25.293 9.11,-9.477 13.67,-20.227 13.67,-32.239 0,-10.851 -1.65,-21.121 -4.94,-30.808 -3.3,-9.692 -8.83,-18.203 -16.58,-25.563 -7.76,-7.359 -18.32,-13.277 -31.7,-17.73 -13.38,-4.457 -29.95,-6.68 -49.73,-6.68 -21.33,0 -41.68,3.68 -61.07,11.051 -19.39,7.359 -38.97,17.64 -58.74,30.832 -13.19,8.91 -24.92,17.93 -35.19,27.039 -10.28,9.109 -18.71,16.379 -25.3,21.809 -5.44,4.652 -10.09,8.14 -13.96,10.468 m 597.9,548.547 c 0,7.73 2.62,13.91 7.85,18.57 5.24,4.63 11.73,6.95 19.49,6.95 h 625.83 c 6.98,0 13.18,-2.13 18.61,-6.38 5.43,-4.25 8.53,-10.62 9.31,-19.14 v -144.39 c 0,-6.97 -2.43,-13.63 -7.27,-20.02 -4.85,-6.37 -11.73,-9.57 -20.65,-9.57 H 6071.42 V 681.32 c 0,-6.98 -2.52,-13.289 -7.54,-18.922 -5.04,-5.628 -11.61,-8.437 -19.72,-8.437 h -170.57 c -6.58,0 -12.77,2.621 -18.56,7.859 -5.8,5.239 -8.7,11.75 -8.7,19.5 v 636.86 h -200.08 c -7.76,0 -14.25,2.52 -19.49,7.53 -5.23,5.04 -7.85,12.38 -7.85,22.06 v 144.39" /><path
         id="path16"
         style="fill:#211d1d;fill-opacity:1;fill-rule:nonzero;stroke:none"
         d="m 1000.62,822.918 c 0,10.613 1.72,51.734 43.53,51.734 0,0 122.14,4.516 178.81,91.598 56.64,87.03 33.22,201.49 -14.8,262.67 -58.58,74.62 -146.79,72.06 -153.37,72.06 -6.59,0 -54.17,-2.06 -54.17,43.79 0,45.86 0,128.15 0,137.19 0,9.04 3.67,45.97 46.17,45.97 127.79,0 218.15,-38.4 294.02,-99.65 108.82,-87.86 159.65,-227.65 159.65,-327.03 0,-93.44 -15.55,-134.02 -30.41,-179.168 C 1449.21,858.75 1389.09,785.531 1353.42,754.48 1207.5,627.5 1044.15,643.398 1044.15,643.398 c 0,0 -43.53,1.184 -43.53,44.614 0,28.047 0,134.906 0,134.906" /><path
         id="path18"
         style="fill:#8e9194;fill-opacity:1;fill-rule:nonzero;stroke:none"
         d="m 886.258,1819.62 v 0 V 376.922 H 831.789 V 1819.62 h 54.469" /><path
         id="path20"
         style="fill:#8e9194;fill-opacity:1;fill-rule:nonzero;stroke:none"
         d="m 2267.85,376.48 c -80.6,0 -135.22,-39.769 -135.22,-103.398 0,-132.031 200.44,-85.902 200.44,-168.621 0,-28.629 -25.98,-45.0704 -69.46,-45.0704 -39.77,0 -87.49,19.0899 -125.67,54.0784 l -27.05,-54.0784 c 38.18,-35 93.33,-58.85935 151.66,-58.85935 81.66,0 139.98,40.82815 139.98,107.10975 0.54,133.621 -199.9,90.14 -199.9,171.269 0,24.93 23.86,38.711 60.45,38.711 28.1,0 68.4,-10.07 108.7,-34.461 l 25.98,55.141 c -34.46,22.801 -81.66,38.179 -129.91,38.179 m 671.83,-58.859 v 56.211 H 2674.55 V 2.64844 h 271.49 V 58.8594 H 2737.12 V 161.199 h 181.35 v 56.199 h -181.35 v 100.223 z m 445.93,57.801 c -109.76,0 -195.13,-81.133 -195.13,-186.652 C 3190.48,82.1914 3274.79,0 3383.49,0 c 52.5,0 106.05,23.8594 143.7,60.9805 l -37.12,41.3595 c -28.1,-27.0509 -66.28,-44.008 -103.4,-44.008 -74.23,0 -132.56,57.789 -132.56,130.969 0,73.179 58.33,130.437 132.56,130.437 37.65,0 76.36,-18.027 103.4,-47.187 l 36.59,45.597 c -36.06,35.532 -88.55,57.274 -141.05,57.274 m 719.55,-1.59 h -62.57 v -217.41 c 0,-63.1017 -37.65,-100.2111 -98.09,-100.2111 -60.98,0 -99.69,37.6407 -99.69,100.2111 v 217.41 h -62.57 V 156.422 C 3782.24,59.3906 3843.75,0 3943.96,0 c 100.22,0 161.2,59.3906 161.2,156.422 z M 4629.05,2.64844 h 71.05 L 4616.85,126.73 c 49.32,19.09 76.89,60.981 76.89,120.372 0,80.597 -54.62,126.73 -149.53,126.73 h -150.6 V 2.64844 h 62.57 V 114.531 h 88.03 c 5.83,0 11.66,0 16.97,0.528 z M 4456.18,170.738 v 146.883 h 88.03 c 57.26,0 90.14,-23.332 90.14,-72.109 0,-50.383 -32.88,-74.774 -90.14,-74.774 z m 582.22,203.094 h -62.57 V 2.64844 h 62.57 z m 549.86,-56.211 v 56.211 h -297.47 v -56.211 h 117.19 V 2.64844 h 62.57 V 317.621 Z m 404.58,-191.422 136.28,247.633 h -63.63 l -103.93,-180.82 -106.05,180.82 h -63.1 L 5930.8,124.082 V 2.64844 h 62.04 V 126.199" /><path
         id="path22"
         style="fill:#5bc7aa;fill-opacity:1;fill-rule:nonzero;stroke:none"
         d="m 717,830.484 c 0,0 -1.93,43.532 -43.531,43.532 -41.598,0 -157.641,0 -197.223,0 -85.418,0 -142.082,4.511 -198.75,91.593 -56.637,87.031 -33.805,197.961 14.805,262.671 57.66,76.77 144.199,72.06 166.515,72.06 22.321,0 194.524,0 205.063,0 26.59,0 53.121,9.73 53.121,43.79 0,43.57 0,120.66 0,137 0,22.35 -13.477,46.16 -46.172,46.16 -42.5,0 -109.484,0 -226.406,0 -111.926,0 -208.906,-38.4 -284.774,-99.65 C 50.8281,1339.78 0,1199.98 0,1100.61 0,1007.18 15.5508,966.594 30.4063,921.441 51.2461,858.109 174.996,642.762 439.18,642.762 c 176.25,0 216.789,0 228.316,0 18.957,0 49.504,6.179 49.504,44.609 0,42.93 0,143.113 0,143.113" /></g></g></svg>