<?xml version="1.0" encoding="UTF-8" standalone="no"?>
<svg
   xmlns:dc="http://purl.org/dc/elements/1.1/"
   xmlns:cc="http://creativecommons.org/ns#"
   xmlns:rdf="http://www.w3.org/1999/02/22-rdf-syntax-ns#"
   xmlns:svg="http://www.w3.org/2000/svg"
   xmlns="http://www.w3.org/2000/svg"
   viewBox="0 0 917.45331 513.97333"
   height="513.97333"
   width="917.45331"
   xml:space="preserve"
   id="svg2"
   version="1.1"><metadata
     id="metadata8"><rdf:RDF><cc:Work
         rdf:about=""><dc:format>image/svg+xml</dc:format><dc:type
           rdf:resource="http://purl.org/dc/dcmitype/StillImage" /></cc:Work></rdf:RDF></metadata><defs
     id="defs6" /><g
     transform="matrix(1.3333333,0,0,-1.3333333,0,513.97333)"
     id="g10"><g
       transform="scale(0.1)"
       id="g12"><path
         id="path14"
         style="fill:#171717;fill-opacity:1;fill-rule:nonzero;stroke:none"
         d="m 1696.12,957.332 c 14.04,0.109 28.1,-0.57 42.07,-2.043 10.03,-0.957 19.94,-2.91 29.58,-5.84 6.95,-2.097 13.46,-5.457 19.2,-9.918 4.55,-3.691 8.3,-8.281 11.03,-13.48 2.66,-5.301 4.38,-11.02 5.07,-16.922 0.8,-6.719 1.2,-13.481 1.17,-20.25 0.02,-6.867 -0.67,-13.738 -2.05,-20.469 -1.21,-6.211 -3.53,-12.14 -6.88,-17.512 -3.54,-5.527 -8.12,-10.328 -13.48,-14.117 -6.68,-4.59 -14.01,-8.14 -21.76,-10.5 -10.35,-3.23 -20.97,-5.429 -31.74,-6.59 -14.42,-1.609 -28.92,-2.339 -43.42,-2.222 h -39.73 c -14.9,0 -27.95,0.562 -39.16,1.691 -9.75,0.879 -19.42,2.621 -28.87,5.192 -7.1,1.957 -13.86,5 -20.02,9.046 -5.01,3.321 -9.32,7.59 -12.66,12.59 -3.24,5.012 -5.48,10.614 -6.59,16.461 -1.3,6.731 -1.93,13.571 -1.88,20.43 h 29.89 c -0.37,-7.629 1,-15.231 4.02,-22.238 2.82,-5.551 7.57,-9.891 13.36,-12.192 7.82,-3.008 16.07,-4.711 24.45,-5.008 10.07,-0.711 22.58,-1.062 37.52,-1.062 h 39.67 c 14.47,-0.18 28.95,0.66 43.3,2.512 9.49,1.121 18.72,3.847 27.31,8.05 6.26,3.047 11.34,8.071 14.47,14.289 2.97,6.762 4.4,14.102 4.2,21.481 0.19,7.148 -0.77,14.289 -2.86,21.121 -2,5.707 -6.02,10.496 -11.32,13.418 -7.39,3.789 -15.42,6.129 -23.69,6.879 -13.34,1.59 -26.77,2.293 -40.2,2.101 h -40.85 c -15.58,-0.089 -31.16,0.59 -46.68,2.051 -11.03,0.989 -21.97,2.938 -32.67,5.84 -7.52,1.938 -14.66,5.129 -21.13,9.449 -4.9,3.391 -9,7.809 -12.01,12.95 -2.8,5.019 -4.62,10.519 -5.37,16.218 -0.85,6.403 -1.26,12.864 -1.23,19.313 -0.05,6.779 0.6,13.549 1.93,20.189 1.13,6.06 3.49,11.82 6.95,16.92 3.87,5.37 8.78,9.94 14.4,13.42 7.32,4.47 15.26,7.81 23.57,9.92 11.34,2.9 22.9,4.86 34.55,5.84 13.46,1.36 29.29,2.04 47.5,2.04 h 29.81 c 14.9,0 27.95,-0.54 39.15,-1.64 9.77,-0.83 19.43,-2.54 28.89,-5.12 7.1,-1.91 13.87,-4.84 20.12,-8.7 5.06,-3.21 9.4,-7.45 12.73,-12.43 3.13,-4.92 5.31,-10.38 6.41,-16.1 1.3,-6.69 1.93,-13.5 1.87,-20.31 h -29.7 c 0.36,7.51 -1.01,15 -4.02,21.88 -2.92,5.36 -7.66,9.5 -13.37,11.67 -7.91,3.16 -16.29,4.97 -24.79,5.37 -10.16,0.66 -22.68,0.99 -37.58,0.99 h -29.52 c -16.39,0.16 -32.77,-0.55 -49.08,-2.1 -10.45,-0.82 -20.71,-3.2 -30.46,-7.06 -6.56,-2.53 -12.04,-7.25 -15.51,-13.36 -3.1,-6.53 -4.58,-13.72 -4.32,-20.95 -0.05,-4.641 0.32,-9.25 1.1,-13.821 0.65,-3.84 2.16,-7.48 4.44,-10.629 2.41,-3.308 5.56,-6.019 9.22,-7.871 5.07,-2.418 10.46,-4.14 15.98,-5.14 8.02,-1.5 16.14,-2.457 24.28,-2.86 9.57,-0.578 20.99,-0.867 34.25,-0.867 h 41.14" /><path
         id="path16"
         style="fill:none;stroke:#171717;stroke-width:27.20000076;stroke-linecap:butt;stroke-linejoin:miter;stroke-miterlimit:10;stroke-dasharray:none;stroke-opacity:1"
         d="m 1696.12,957.332 c 14.04,0.109 28.1,-0.57 42.07,-2.043 10.03,-0.957 19.94,-2.91 29.58,-5.84 6.95,-2.097 13.46,-5.457 19.2,-9.918 4.55,-3.691 8.3,-8.281 11.03,-13.48 2.66,-5.301 4.38,-11.02 5.07,-16.922 0.8,-6.719 1.2,-13.481 1.17,-20.25 0.02,-6.867 -0.67,-13.738 -2.05,-20.469 -1.21,-6.211 -3.53,-12.14 -6.88,-17.512 -3.54,-5.527 -8.12,-10.328 -13.48,-14.117 -6.68,-4.59 -14.01,-8.14 -21.76,-10.5 -10.35,-3.23 -20.97,-5.429 -31.74,-6.59 -14.42,-1.609 -28.92,-2.339 -43.42,-2.222 h -39.73 c -14.9,0 -27.95,0.562 -39.16,1.691 -9.75,0.879 -19.42,2.621 -28.87,5.192 -7.1,1.957 -13.86,5 -20.02,9.046 -5.01,3.321 -9.32,7.59 -12.66,12.59 -3.24,5.012 -5.48,10.614 -6.59,16.461 -1.3,6.731 -1.93,13.571 -1.88,20.43 h 29.89 c -0.37,-7.629 1,-15.231 4.02,-22.238 2.82,-5.551 7.57,-9.891 13.36,-12.192 7.82,-3.008 16.07,-4.711 24.45,-5.008 10.07,-0.711 22.58,-1.062 37.52,-1.062 h 39.67 c 14.47,-0.18 28.95,0.66 43.3,2.512 9.49,1.121 18.72,3.847 27.31,8.05 6.26,3.047 11.34,8.071 14.47,14.289 2.97,6.762 4.4,14.102 4.2,21.481 0.19,7.148 -0.77,14.289 -2.86,21.121 -2,5.707 -6.02,10.496 -11.32,13.418 -7.39,3.789 -15.42,6.129 -23.69,6.879 -13.34,1.59 -26.77,2.293 -40.2,2.101 h -40.85 c -15.58,-0.089 -31.16,0.59 -46.68,2.051 -11.03,0.989 -21.97,2.938 -32.67,5.84 -7.52,1.938 -14.66,5.129 -21.13,9.449 -4.9,3.391 -9,7.809 -12.01,12.95 -2.8,5.019 -4.62,10.519 -5.37,16.218 -0.85,6.403 -1.26,12.864 -1.23,19.313 -0.05,6.779 0.6,13.549 1.93,20.189 1.13,6.06 3.49,11.82 6.95,16.92 3.87,5.37 8.78,9.94 14.4,13.42 7.32,4.47 15.26,7.81 23.57,9.92 11.34,2.9 22.9,4.86 34.55,5.84 13.46,1.36 29.29,2.04 47.5,2.04 h 29.81 c 14.9,0 27.95,-0.54 39.15,-1.64 9.77,-0.83 19.43,-2.54 28.89,-5.12 7.1,-1.91 13.87,-4.84 20.12,-8.7 5.06,-3.21 9.4,-7.45 12.73,-12.43 3.13,-4.92 5.31,-10.38 6.41,-16.1 1.3,-6.69 1.93,-13.5 1.87,-20.31 h -29.7 c 0.36,7.51 -1.01,15 -4.02,21.88 -2.92,5.36 -7.66,9.5 -13.37,11.67 -7.91,3.16 -16.29,4.97 -24.79,5.37 -10.16,0.66 -22.68,0.99 -37.58,0.99 h -29.52 c -16.39,0.16 -32.77,-0.55 -49.08,-2.1 -10.45,-0.82 -20.71,-3.2 -30.46,-7.06 -6.56,-2.53 -12.04,-7.25 -15.51,-13.36 -3.1,-6.53 -4.58,-13.72 -4.32,-20.95 -0.05,-4.641 0.32,-9.25 1.1,-13.821 0.65,-3.84 2.16,-7.48 4.44,-10.629 2.41,-3.308 5.56,-6.019 9.22,-7.871 5.07,-2.418 10.46,-4.14 15.98,-5.14 8.02,-1.5 16.14,-2.457 24.28,-2.86 9.57,-0.578 20.99,-0.867 34.25,-0.867 z" /><path
         id="path18"
         style="fill:#171717;fill-opacity:1;fill-rule:nonzero;stroke:none"
         d="m 2462.18,987.148 c 0.36,10 -1.01,19.982 -4.03,29.522 -2.39,6.87 -7.12,12.7 -13.36,16.45 -7.54,4.12 -15.88,6.56 -24.45,7.12 -10.07,1.06 -22.58,1.57 -37.52,1.57 h -69.73 c -13.26,0 -24.4,-0.39 -33.42,-1.16 -7.66,-0.48 -15.21,-2.07 -22.42,-4.72 -5.44,-2.05 -10.17,-5.61 -13.65,-10.28 -3.54,-5.27 -5.93,-11.24 -7,-17.5 -1.61,-8.931 -2.45,-18.002 -2.51,-27.08 -0.2,-10.691 -0.28,-23.48 -0.28,-38.39 0,-14.899 0.12,-27.711 0.4,-38.45 0.1,-9.082 0.96,-18.14 2.57,-27.07 1.06,-6.25 3.4,-12.211 6.88,-17.5 3.39,-4.851 8.14,-8.558 13.65,-10.691 7.21,-2.649 14.75,-4.25 22.41,-4.719 9.07,-0.781 20.21,-1.168 33.43,-1.168 h 69.73 c 11.67,0 21.65,0.316 29.94,0.93 7.23,0.437 14.4,1.59 21.41,3.449 5.15,1.301 10,3.621 14.23,6.82 3.66,2.938 6.56,6.699 8.47,10.969 2.18,5.031 3.56,10.359 4.08,15.809 0.78,7.203 1.16,14.433 1.11,21.652 h 29.82 c 0.06,-9.02 -0.57,-18.02 -1.87,-26.949 -1.06,-7.461 -3.29,-14.711 -6.6,-21.481 -3.1,-6.191 -7.41,-11.691 -12.65,-16.222 -5.95,-4.93 -12.73,-8.739 -20.02,-11.258 -9.36,-3.25 -19.04,-5.43 -28.88,-6.531 -13,-1.5 -26.07,-2.211 -39.16,-2.11 h -69.67 c -15.41,-0.211 -30.81,0.899 -46.03,3.332 -10.75,1.649 -21.16,5.059 -30.81,10.098 -7.52,3.98 -13.94,9.781 -18.67,16.859 -4.61,7.383 -7.88,15.512 -9.62,24.039 -2.15,10.274 -3.32,20.723 -3.51,31.223 -0.31,11.668 -0.47,24.5 -0.47,38.5 0,14.008 0.16,26.848 0.47,38.519 0.19,10.489 1.36,20.94 3.51,31.21 1.74,8.53 5.01,16.67 9.62,24.04 4.73,7.13 11.18,12.96 18.73,16.99 9.64,5.03 20.05,8.43 30.81,10.08 15.22,2.44 30.62,3.55 46.03,3.33 h 69.73 c 13.08,0.1 26.16,-0.6 39.16,-2.1 9.82,-1.09 19.5,-3.23 28.88,-6.36 7.2,-2.32 13.96,-5.87 19.96,-10.5 5.19,-4.25 9.5,-9.48 12.65,-15.4 3.29,-6.33 5.52,-13.15 6.59,-20.2 1.31,-8.22 1.94,-16.531 1.88,-24.851 l -29.82,0.179" /><path
         id="path20"
         style="fill:none;stroke:#171717;stroke-width:27.20000076;stroke-linecap:butt;stroke-linejoin:miter;stroke-miterlimit:10;stroke-dasharray:none;stroke-opacity:1"
         d="m 2462.18,987.148 c 0.36,10 -1.01,19.982 -4.03,29.522 -2.39,6.87 -7.12,12.7 -13.36,16.45 -7.54,4.12 -15.88,6.56 -24.45,7.12 -10.07,1.06 -22.58,1.57 -37.52,1.57 h -69.73 c -13.26,0 -24.4,-0.39 -33.42,-1.16 -7.66,-0.48 -15.21,-2.07 -22.42,-4.72 -5.44,-2.05 -10.17,-5.61 -13.65,-10.28 -3.54,-5.27 -5.93,-11.24 -7,-17.5 -1.61,-8.931 -2.45,-18.002 -2.51,-27.08 -0.2,-10.691 -0.28,-23.48 -0.28,-38.39 0,-14.899 0.12,-27.711 0.4,-38.45 0.1,-9.082 0.96,-18.14 2.57,-27.07 1.06,-6.25 3.4,-12.211 6.88,-17.5 3.39,-4.851 8.14,-8.558 13.65,-10.691 7.21,-2.649 14.75,-4.25 22.41,-4.719 9.07,-0.781 20.21,-1.168 33.43,-1.168 h 69.73 c 11.67,0 21.65,0.316 29.94,0.93 7.23,0.437 14.4,1.59 21.41,3.449 5.15,1.301 10,3.621 14.23,6.82 3.66,2.938 6.56,6.699 8.47,10.969 2.18,5.031 3.56,10.359 4.08,15.809 0.78,7.203 1.16,14.433 1.11,21.652 h 29.82 c 0.06,-9.02 -0.57,-18.02 -1.87,-26.949 -1.06,-7.461 -3.29,-14.711 -6.6,-21.481 -3.1,-6.191 -7.41,-11.691 -12.65,-16.222 -5.95,-4.93 -12.73,-8.739 -20.02,-11.258 -9.36,-3.25 -19.04,-5.43 -28.88,-6.531 -13,-1.5 -26.07,-2.211 -39.16,-2.11 h -69.67 c -15.41,-0.211 -30.81,0.899 -46.03,3.332 -10.75,1.649 -21.16,5.059 -30.81,10.098 -7.52,3.98 -13.94,9.781 -18.67,16.859 -4.61,7.383 -7.88,15.512 -9.62,24.039 -2.15,10.274 -3.32,20.723 -3.51,31.223 -0.31,11.668 -0.47,24.5 -0.47,38.5 0,14.008 0.16,26.848 0.47,38.519 0.19,10.489 1.36,20.94 3.51,31.21 1.74,8.53 5.01,16.67 9.62,24.04 4.73,7.13 11.18,12.96 18.73,16.99 9.64,5.03 20.05,8.43 30.81,10.08 15.22,2.44 30.62,3.55 46.03,3.33 h 69.73 c 13.08,0.1 26.16,-0.6 39.16,-2.1 9.82,-1.09 19.5,-3.23 28.88,-6.36 7.2,-2.32 13.96,-5.87 19.96,-10.5 5.19,-4.25 9.5,-9.48 12.65,-15.4 3.29,-6.33 5.52,-13.15 6.59,-20.2 1.31,-8.22 1.94,-16.531 1.88,-24.851 z" /><path
         id="path22"
         style="fill:#171717;fill-opacity:1;fill-rule:nonzero;stroke:none"
         d="M 2883.57,1061.66 V 942.449 c 0,-14.078 -0.17,-26.918 -0.53,-38.508 -0.22,-10.492 -1.41,-20.941 -3.55,-31.222 -1.71,-8.59 -4.93,-16.797 -9.51,-24.27 -4.68,-7.129 -11.09,-12.969 -18.62,-16.98 -9.64,-5.039 -20.05,-8.438 -30.81,-10.098 -15.21,-2.43 -30.62,-3.543 -46.03,-3.332 h -70.02 c -15.41,-0.211 -30.81,0.902 -46.04,3.332 -10.75,1.66 -21.16,5.059 -30.81,10.098 -7.52,4.031 -13.91,9.871 -18.61,16.98 -4.62,7.371 -7.88,15.512 -9.63,24.039 -2.14,10.274 -3.31,20.723 -3.49,31.223 -0.32,11.668 -0.47,24.5 -0.47,38.5 v 119.449 h 29.81 V 942.449 c 0,-14.898 0.14,-27.699 0.41,-38.39 0.11,-9.079 0.96,-18.137 2.57,-27.079 1.05,-6.25 3.4,-12.21 6.88,-17.5 3.44,-4.679 8.17,-8.25 13.6,-10.269 7.2,-2.66 14.74,-4.25 22.41,-4.731 9.06,-0.781 20.21,-1.16 33.43,-1.16 h 70.02 c 13.14,0 24.27,0.379 33.38,1.16 7.65,0.461 15.2,2.059 22.4,4.731 5.42,2.051 10.14,5.609 13.59,10.269 3.55,5.282 5.95,11.239 7.06,17.5 1.66,8.942 2.52,17.989 2.57,27.079 0.2,10.691 0.29,23.492 0.29,38.39 v 119.271 l 29.7,-0.06" /><path
         id="path24"
         style="fill:none;stroke:#171717;stroke-width:27.20000076;stroke-linecap:butt;stroke-linejoin:miter;stroke-miterlimit:10;stroke-dasharray:none;stroke-opacity:1"
         d="M 2883.57,1061.66 V 942.449 c 0,-14.078 -0.17,-26.918 -0.53,-38.508 -0.22,-10.492 -1.41,-20.941 -3.55,-31.222 -1.71,-8.59 -4.93,-16.797 -9.51,-24.27 -4.68,-7.129 -11.09,-12.969 -18.62,-16.98 -9.64,-5.039 -20.05,-8.438 -30.81,-10.098 -15.21,-2.43 -30.62,-3.543 -46.03,-3.332 h -70.02 c -15.41,-0.211 -30.81,0.902 -46.04,3.332 -10.75,1.66 -21.16,5.059 -30.81,10.098 -7.52,4.031 -13.91,9.871 -18.61,16.98 -4.62,7.371 -7.88,15.512 -9.63,24.039 -2.14,10.274 -3.31,20.723 -3.49,31.223 -0.32,11.668 -0.47,24.5 -0.47,38.5 v 119.449 h 29.81 V 942.449 c 0,-14.898 0.14,-27.699 0.41,-38.39 0.11,-9.079 0.96,-18.137 2.57,-27.079 1.05,-6.25 3.4,-12.21 6.88,-17.5 3.44,-4.679 8.17,-8.25 13.6,-10.269 7.2,-2.66 14.74,-4.25 22.41,-4.731 9.06,-0.781 20.21,-1.16 33.43,-1.16 h 70.02 c 13.14,0 24.27,0.379 33.38,1.16 7.65,0.461 15.2,2.059 22.4,4.731 5.42,2.051 10.14,5.609 13.59,10.269 3.55,5.282 5.95,11.239 7.06,17.5 1.66,8.942 2.52,17.989 2.57,27.079 0.2,10.691 0.29,23.492 0.29,38.39 v 119.271 z" /><path
         id="path26"
         style="fill:#171717;fill-opacity:1;fill-rule:nonzero;stroke:none"
         d="m 3270.13,823.238 h -29.81 v 44.703 c 0,7.231 -0.14,13.469 -0.41,18.731 -0.13,4.59 -1.02,9.117 -2.63,13.418 -1.42,3.621 -3.87,6.742 -7.06,8.98 -4.15,2.649 -8.8,4.43 -13.65,5.25 -7.39,1.418 -14.88,2.282 -22.4,2.571 -9.07,0.468 -20.22,0.711 -33.44,0.711 h -134.2 V 823.18 h -29.81 v 238.48 h 168.74 c 15.37,0.12 30.73,-0.51 46.03,-1.93 10.46,-0.9 20.8,-2.86 30.87,-5.84 6.85,-1.92 13.23,-5.19 18.79,-9.62 4.26,-3.64 7.57,-8.27 9.63,-13.48 2.11,-5.61 3.31,-11.51 3.55,-17.5 0.36,-6.43 0.53,-13.528 0.53,-21.302 0.1,-8.758 -0.6,-17.508 -2.1,-26.136 -1.13,-6.774 -3.52,-13.262 -7.06,-19.141 -3.27,-5.262 -7.8,-9.602 -13.18,-12.66 -6.42,-3.481 -13.42,-5.711 -20.66,-6.602 7,-0.808 13.77,-3.027 19.9,-6.527 4.89,-2.942 8.92,-7.133 11.67,-12.141 2.84,-5.461 4.65,-11.39 5.37,-17.5 0.92,-7.75 1.37,-15.543 1.33,-23.34 z m -243.42,119.211 h 138.92 c 13.22,0 24.38,0.231 33.44,0.699 7.52,0.301 15.01,1.141 22.4,2.571 4.86,0.82 9.5,2.613 13.65,5.242 3.18,2.25 5.64,5.379 7.07,9 1.61,4.289 2.5,8.828 2.62,13.418 0.28,5.203 0.41,11.453 0.41,18.73 0,7.27 -0.13,13.101 -0.41,17.501 -0.11,4.21 -0.99,8.37 -2.62,12.25 -1.48,3.31 -3.95,6.09 -7.07,7.93 -4.23,2.34 -8.86,3.9 -13.65,4.61 -7.41,1.24 -14.89,1.95 -22.4,2.11 -9.06,0.3 -20.22,0.46 -33.44,0.46 h -138.92 v -94.521" /><path
         id="path28"
         style="fill:none;stroke:#171717;stroke-width:27.20000076;stroke-linecap:butt;stroke-linejoin:miter;stroke-miterlimit:10;stroke-dasharray:none;stroke-opacity:1"
         d="m 3270.13,823.238 h -29.81 v 44.703 c 0,7.231 -0.14,13.469 -0.41,18.731 -0.13,4.59 -1.02,9.117 -2.63,13.418 -1.42,3.621 -3.87,6.742 -7.06,8.98 -4.15,2.649 -8.8,4.43 -13.65,5.25 -7.39,1.418 -14.88,2.282 -22.4,2.571 -9.07,0.468 -20.22,0.711 -33.44,0.711 h -134.2 V 823.18 h -29.81 v 238.48 h 168.74 c 15.37,0.12 30.73,-0.51 46.03,-1.93 10.46,-0.9 20.8,-2.86 30.87,-5.84 6.85,-1.92 13.23,-5.19 18.79,-9.62 4.26,-3.64 7.57,-8.27 9.63,-13.48 2.11,-5.61 3.31,-11.51 3.55,-17.5 0.36,-6.43 0.53,-13.528 0.53,-21.302 0.1,-8.758 -0.6,-17.508 -2.1,-26.136 -1.13,-6.774 -3.52,-13.262 -7.06,-19.141 -3.27,-5.262 -7.8,-9.602 -13.18,-12.66 -6.42,-3.481 -13.42,-5.711 -20.66,-6.602 7,-0.808 13.77,-3.027 19.9,-6.527 4.89,-2.942 8.92,-7.133 11.67,-12.141 2.84,-5.461 4.65,-11.39 5.37,-17.5 0.92,-7.75 1.37,-15.543 1.33,-23.34 z m -243.42,119.211 h 138.92 c 13.22,0 24.38,0.231 33.44,0.699 7.52,0.301 15.01,1.141 22.4,2.571 4.86,0.82 9.5,2.613 13.65,5.242 3.18,2.25 5.64,5.379 7.07,9 1.61,4.289 2.5,8.828 2.62,13.418 0.28,5.203 0.41,11.453 0.41,18.73 0,7.27 -0.13,13.101 -0.41,17.501 -0.11,4.21 -0.99,8.37 -2.62,12.25 -1.48,3.31 -3.95,6.09 -7.07,7.93 -4.23,2.34 -8.86,3.9 -13.65,4.61 -7.41,1.24 -14.89,1.95 -22.4,2.11 -9.06,0.3 -20.22,0.46 -33.44,0.46 h -138.92 z" /><path
         id="path30"
         style="fill:#171717;fill-opacity:1;fill-rule:nonzero;stroke:none"
         d="M 3388.35,1061.66 V 823.18 h 238.47 v 24.859 h -208.66 v 84.492 h 198.74 v 24.801 h -198.74 v 79.518 h 208.66 v 24.81 h -238.47" /><path
         id="path32"
         style="fill:none;stroke:#171717;stroke-width:27.20000076;stroke-linecap:butt;stroke-linejoin:miter;stroke-miterlimit:10;stroke-dasharray:none;stroke-opacity:1"
         d="M 3388.35,1061.66 V 823.18 h 238.47 v 24.859 h -208.66 v 84.492 h 198.74 v 24.801 h -198.74 v 79.518 h 208.66 v 24.81 z" /><path
         id="path34"
         style="fill:#ec1c26;fill-opacity:1;fill-rule:nonzero;stroke:none"
         d="m 3963.32,823.18 v 238.48 h 178.66 c 15.41,0.19 30.81,-0.88 46.04,-3.21 10.76,-1.57 21.2,-4.84 30.92,-9.69 7.51,-3.8 13.96,-9.4 18.79,-16.28 4.64,-7.11 7.9,-15.03 9.63,-23.34 2.13,-9.859 3.32,-19.898 3.57,-29.992 0.34,-11.117 0.51,-23.476 0.51,-37.046 0,-13.582 -0.17,-25.911 -0.51,-36.993 -0.25,-10.07 -1.44,-20.089 -3.57,-29.937 -1.72,-8.313 -4.99,-16.231 -9.63,-23.34 -4.83,-6.883 -11.28,-12.48 -18.79,-16.281 -9.72,-4.852 -20.16,-8.121 -30.92,-9.68 -15.23,-2.34 -30.63,-3.41 -46.04,-3.211 z m 178.66,24.859 c 13.15,0 24.28,0.371 33.38,1.109 7.67,0.442 15.25,1.934 22.52,4.434 5.56,1.789 10.46,5.148 14.12,9.688 3.55,5.039 5.97,10.789 7.06,16.859 1.66,8.5 2.54,17.133 2.63,25.801 0.27,10.179 0.41,22.359 0.41,36.519 0,14.16 -0.14,26.36 -0.41,36.582 -0.09,8.66 -0.97,17.301 -2.63,25.789 -1.1,6.05 -3.52,11.79 -7.06,16.81 -3.54,4.46 -8.27,7.82 -13.65,9.69 -7.25,2.5 -14.81,3.99 -22.46,4.43 -9.07,0.74 -20.22,1.1 -33.44,1.1 H 3993.37 V 848.039 h 148.61" /><path
         id="path36"
         style="fill:none;stroke:#ec1c26;stroke-width:27.20000076;stroke-linecap:butt;stroke-linejoin:miter;stroke-miterlimit:10;stroke-dasharray:none;stroke-opacity:1"
         d="m 3963.32,823.18 v 238.48 h 178.66 c 15.41,0.19 30.81,-0.88 46.04,-3.21 10.76,-1.57 21.2,-4.84 30.92,-9.69 7.51,-3.8 13.96,-9.4 18.79,-16.28 4.64,-7.11 7.9,-15.03 9.63,-23.34 2.13,-9.859 3.32,-19.898 3.57,-29.992 0.34,-11.117 0.51,-23.476 0.51,-37.046 0,-13.582 -0.17,-25.911 -0.51,-36.993 -0.25,-10.07 -1.44,-20.089 -3.57,-29.937 -1.72,-8.313 -4.99,-16.231 -9.63,-23.34 -4.83,-6.883 -11.28,-12.48 -18.79,-16.281 -9.72,-4.852 -20.16,-8.121 -30.92,-9.68 -15.23,-2.34 -30.63,-3.41 -46.04,-3.211 z m 178.66,24.859 c 13.15,0 24.28,0.371 33.38,1.109 7.67,0.442 15.25,1.934 22.52,4.434 5.56,1.789 10.46,5.148 14.12,9.688 3.55,5.039 5.97,10.789 7.06,16.859 1.66,8.5 2.54,17.133 2.63,25.801 0.27,10.179 0.41,22.359 0.41,36.519 0,14.16 -0.14,26.36 -0.41,36.582 -0.09,8.66 -0.97,17.301 -2.63,25.789 -1.1,6.05 -3.52,11.79 -7.06,16.81 -3.54,4.46 -8.27,7.82 -13.65,9.69 -7.25,2.5 -14.81,3.99 -22.46,4.43 -9.07,0.74 -20.22,1.1 -33.44,1.1 H 3993.37 V 848.039 Z" /><path
         id="path38"
         style="fill:#ec1c26;fill-opacity:1;fill-rule:nonzero;stroke:none"
         d="M 4481.17,1061.72 4345.1,823.18 h 34.48 l 31.16,54.441 h 186.72 l 30.98,-54.672 h 31.27 l -135.78,238.711 z m 22.99,-19.73 79.06,-139.279 h -158.36 z" /><path
         id="path40"
         style="fill:none;stroke:#ec1c26;stroke-width:27.20000076;stroke-linecap:butt;stroke-linejoin:miter;stroke-miterlimit:10;stroke-dasharray:none;stroke-opacity:1"
         d="M 4481.17,1061.72 4345.1,823.18 h 34.48 l 31.16,54.441 h 186.72 l 30.98,-54.672 h 31.27 l -135.78,238.711 z m 22.99,-19.73 79.06,-139.279 h -158.36 z" /><path
         id="path42"
         style="fill:#ec1c26;fill-opacity:1;fill-rule:nonzero;stroke:none"
         d="m 4709.54,1061.66 v -24.81 h 119.27 V 823.18 h 29.81 v 213.67 h 119.21 v 24.81 h -268.29" /><path
         id="path44"
         style="fill:none;stroke:#ec1c26;stroke-width:27.20000076;stroke-linecap:butt;stroke-linejoin:miter;stroke-miterlimit:10;stroke-dasharray:none;stroke-opacity:1"
         d="m 4709.54,1061.66 v -24.81 h 119.27 V 823.18 h 29.81 v 213.67 h 119.21 v 24.81 z" /><path
         id="path46"
         style="fill:#ec1c26;fill-opacity:1;fill-rule:nonzero;stroke:none"
         d="M 5147.92,1061.66 5011.84,823.18 h 34.55 l 31.1,54.441 h 186.72 l 30.98,-54.672 h 31.27 l -135.77,238.711 z m 22.99,-19.67 79,-139.279 h -158.3 z" /><path
         id="path48"
         style="fill:none;stroke:#ec1c26;stroke-width:27.20000076;stroke-linecap:butt;stroke-linejoin:miter;stroke-miterlimit:10;stroke-dasharray:none;stroke-opacity:1"
         d="M 5147.92,1061.66 5011.84,823.18 h 34.55 l 31.1,54.441 h 186.72 l 30.98,-54.672 h 31.27 l -135.77,238.711 z m 22.99,-19.67 79,-139.279 h -158.3 z" /><path
         id="path50"
         style="fill:#ec1c26;fill-opacity:1;fill-rule:nonzero;stroke:none"
         d="m 1887.61,1048.01 c 0,11.67 5.18,17.5 15.53,17.5 h 186.31 c 10.34,0 15.52,-5.83 15.52,-17.5 0,-11.67 -5.18,-17.51 -15.52,-17.51 h -186.31 c -10.35,0 -15.53,5.84 -15.53,17.51 m 0,-103.748 c 0,11.668 5.18,17.508 15.53,17.508 h 186.31 c 10.34,0 15.52,-5.84 15.52,-17.508 0,-11.672 -5.18,-17.5 -15.52,-17.5 h -186.31 c -10.35,0 -15.53,5.828 -15.53,17.5 m 0,-103.742 c 0,11.671 5.18,17.5 15.53,17.5 h 186.31 c 10.34,0 15.52,-5.829 15.52,-17.5 0,-11.668 -5.18,-17.508 -15.52,-17.508 h -186.31 c -10.35,0 -15.53,5.84 -15.53,17.508" /><path
         id="path52"
         style="fill:#171717;fill-opacity:1;fill-rule:nonzero;stroke:none"
         d="m 1574.64,621.41 v 94.762 h -33.5 v 8 H 1617 v -8 h -33.38 V 621.41 h -8.98" /><path
         id="path54"
         style="fill:#171717;fill-opacity:1;fill-rule:nonzero;stroke:none"
         d="m 1741.8,694.121 c 0.36,11.82 -8.95,21.68 -20.77,22.027 -0.68,0.024 -1.36,0.012 -2.04,-0.039 h -28.65 v -44.23 h 28.83 c 11.86,-0.707 22.07,8.332 22.78,20.203 0.04,0.68 0.05,1.359 0.03,2.039 z m 0,-72.711 -28.82,42.539 h -22.64 V 621.41 h -8.75 v 102.762 h 38.33 c 17.51,0 31.28,-11.262 31.28,-30.051 0.71,-15.621 -11.38,-28.851 -26.98,-29.562 -0.5,-0.02 -1,-0.028 -1.5,-0.028 l 29.7,-43.121 h -10.62" /><path
         id="path56"
         style="fill:#171717;fill-opacity:1;fill-rule:nonzero;stroke:none"
         d="m 1819.29,660.859 v 63.313 h 8.93 v -63.141 c 0,-20.769 10.97,-33.429 31.09,-33.429 20.14,0 31.11,12.66 31.11,33.429 v 63.141 h 8.92 v -63.313 c 0,-25.437 -13.53,-41.25 -40.03,-41.25 -26.48,0 -40.02,15.981 -40.02,41.25" /><path
         id="path58"
         style="fill:#171717;fill-opacity:1;fill-rule:nonzero;stroke:none"
         d="m 1965.57,635.891 5.83,6.589 c 7.96,-9.46 19.68,-14.929 32.04,-14.941 21.12,0 27.13,11.672 27.13,20.492 0,30.16 -61.62,14.457 -61.62,50.348 0,16.801 15.12,27.422 33.73,27.422 13.26,0.691 26.12,-4.629 35.01,-14.469 l -5.84,-6.48 c -7.24,8.527 -17.98,13.296 -29.17,12.957 -13.71,0 -24.04,-7.879 -24.04,-18.957 0,-26.321 61.62,-11.672 61.62,-50.25 0,-13.243 -8.76,-29.172 -36.53,-29.172 -14.57,-0.7 -28.66,5.371 -38.16,16.461" /><path
         id="path60"
         style="fill:#171717;fill-opacity:1;fill-rule:nonzero;stroke:none"
         d="m 2132.57,621.41 v 94.762 h -33.62 v 8 h 75.86 v -8 h -33.55 V 621.41 h -8.69" /><path
         id="path62"
         style="fill:#171717;fill-opacity:1;fill-rule:nonzero;stroke:none"
         d="m 2239.46,621.41 v 102.762 h 65.12 v -8 h -56.37 v -38.043 h 55.32 v -8 h -55.32 v -40.84 h 56.37 v -7.988 l -65.12,0.109" /><path
         id="path64"
         style="fill:#171717;fill-opacity:1;fill-rule:nonzero;stroke:none"
         d="m 2447.94,672.699 c 0,24.051 -15.4,43.41 -42.65,43.41 h -24.04 v -86.64 h 24.04 c 27.07,0 42.71,19.25 42.71,43.23 z M 2372.5,621.41 v 102.762 h 32.79 c 28.37,0 51.38,-23.012 51.38,-51.383 0,-28.379 -23.01,-51.379 -51.38,-51.379 h -32.79" /><path
         id="path66"
         style="fill:#171717;fill-opacity:1;fill-rule:nonzero;stroke:none"
         d="m 2607.41,672.699 c -1.2,28.18 20.66,51.992 48.84,53.192 1.1,0.05 2.21,0.058 3.33,0.031 14.66,0.199 28.55,-6.563 37.45,-18.211 l -7.4,-4.781 c -7.09,9.449 -18.25,14.992 -30.05,14.941 -24.16,0 -42.83,-18.332 -42.83,-45.172 0,-26.828 18.61,-45.097 42.83,-45.097 11.8,-0.051 22.96,5.48 30.05,14.937 l 7.4,-4.609 c -8.84,-11.739 -22.76,-18.551 -37.45,-18.321 -28.2,-0.64 -51.56,21.7 -52.2,49.891 -0.02,1.059 -0.01,2.141 0.03,3.199" /><path
         id="path68"
         style="fill:#171717;fill-opacity:1;fill-rule:nonzero;stroke:none"
         d="m 2789.46,621.41 v 43.942 l -40.85,58.82 h 10.51 l 35.01,-50.762 34.66,50.52 h 10.61 l -40.84,-58.809 v -43.883 l -9.1,0.172" /><path
         id="path70"
         style="fill:#171717;fill-opacity:1;fill-rule:nonzero;stroke:none"
         d="m 2963.81,650.012 c 0.22,11.008 -8.52,20.129 -19.54,20.359 -0.69,0.02 -1.37,0 -2.06,-0.062 h -32.96 v -40.84 h 32.96 c 13.6,0 21.6,7.812 21.6,20.601 z m -1.99,47.25 c 0.37,10.218 -7.61,18.789 -17.82,19.148 -0.79,0.031 -1.58,0.012 -2.37,-0.058 h -32.33 v -38.043 h 32.33 c 10.07,-1.008 19.04,6.339 20.05,16.41 0.08,0.773 0.1,1.543 0.09,2.32 z M 2900.5,621.41 v 102.762 h 42.18 c 17.5,0 28.36,-10.043 28.36,-26.203 0.29,-11.078 -7.24,-20.821 -18.03,-23.34 11.76,-2.707 20.07,-13.199 20.01,-25.27 0,-17.097 -11.08,-27.711 -29.17,-27.711 l -43.35,-0.238" /><path
         id="path72"
         style="fill:#171717;fill-opacity:1;fill-rule:nonzero;stroke:none"
         d="m 3041.23,621.41 v 102.762 h 65.17 v -8 h -56.35 v -38.043 h 55.31 v -8 h -55.31 v -40.84 h 56.35 v -7.988 l -65.17,0.109" /><path
         id="path74"
         style="fill:#171717;fill-opacity:1;fill-rule:nonzero;stroke:none"
         d="m 3234.54,694.121 c 0.35,11.82 -8.95,21.68 -20.77,22.027 -0.69,0.024 -1.36,0.012 -2.04,-0.039 h -28.82 v -44.23 h 28.82 c 11.86,-0.809 22.13,8.152 22.95,20.012 0.05,0.738 0.06,1.488 0.03,2.23 z m 0,-72.711 -28.82,42.539 h -22.64 V 621.41 h -8.76 v 102.762 h 38.34 c 17.5,0 31.27,-11.262 31.27,-30.051 0.72,-15.621 -11.36,-28.851 -26.98,-29.562 -0.5,-0.02 -1,-0.028 -1.48,-0.028 l 29.69,-43.121 h -10.62" /><path
         id="path76"
         style="fill:#171717;fill-opacity:1;fill-rule:nonzero;stroke:none"
         d="m 3306.32,635.891 5.83,6.589 c 7.95,-9.46 19.67,-14.929 32.03,-14.941 21.12,0 27.14,11.672 27.14,20.492 0,30.16 -61.63,14.457 -61.63,50.348 0,16.801 15.12,27.422 33.74,27.422 13.25,0.691 26.1,-4.629 35.01,-14.469 l -5.84,-6.48 c -7.25,8.527 -17.99,13.296 -29.17,12.957 -13.73,0 -24.05,-7.879 -24.05,-18.957 0,-26.321 61.61,-11.672 61.61,-50.25 0,-13.243 -8.75,-29.172 -36.52,-29.172 -14.58,-0.7 -28.66,5.371 -38.15,16.461" /><path
         id="path78"
         style="fill:#171717;fill-opacity:1;fill-rule:nonzero;stroke:none"
         d="m 3447.63,621.41 v 102.762 h 65.18 v -8 h -56.37 v -38.043 h 55.37 v -8 h -55.31 v -40.84 h 56.37 v -7.988 l -65.24,0.109" /><path
         id="path80"
         style="fill:#171717;fill-opacity:1;fill-rule:nonzero;stroke:none"
         d="m 3576.93,672.699 c -1.19,28.18 20.67,51.992 48.84,53.18 1.07,0.051 2.14,0.062 3.21,0.043 14.66,0.199 28.56,-6.563 37.46,-18.211 l -7.41,-4.781 c -7.09,9.449 -18.23,14.992 -30.05,14.941 -24.16,0 -42.83,-18.332 -42.83,-45.172 0,-26.828 18.61,-45.097 42.83,-45.097 11.82,-0.051 22.96,5.48 30.05,14.937 l 7.41,-4.609 c -8.84,-11.739 -22.76,-18.551 -37.46,-18.321 -28.19,-0.578 -51.51,21.813 -52.08,50.012 -0.02,1.02 -0.01,2.059 0.03,3.078" /><path
         id="path82"
         style="fill:#171717;fill-opacity:1;fill-rule:nonzero;stroke:none"
         d="m 3730.51,660.859 v 63.313 h 8.86 v -63.141 c 0,-20.769 10.98,-33.429 31.11,-33.429 20.12,0 31.1,12.66 31.1,33.429 v 63.141 h 8.93 v -63.313 c 0,-25.437 -13.54,-41.25 -40.03,-41.25 -26.5,0 -39.97,15.981 -39.97,41.25" /><path
         id="path84"
         style="fill:#171717;fill-opacity:1;fill-rule:nonzero;stroke:none"
         d="m 3942.6,694.121 c 0.36,11.82 -8.95,21.68 -20.77,22.027 -0.68,0.024 -1.36,0.012 -2.04,-0.039 h -28.71 v -44.23 h 28.83 c 11.86,-0.707 22.07,8.332 22.78,20.203 0.04,0.68 0.05,1.359 0.03,2.039 z m 0,-72.711 -28.82,42.539 h -22.7 V 621.41 h -8.75 v 102.762 h 38.33 c 17.51,0 31.28,-11.262 31.28,-30.051 0.71,-15.621 -11.38,-28.851 -26.98,-29.562 -0.5,-0.02 -1,-0.028 -1.5,-0.028 l 29.7,-43.121 h -10.56" /><path
         id="path86"
         style="fill:#171717;fill-opacity:1;fill-rule:nonzero;stroke:none"
         d="m 4020.04,621.41 v 102.762 h 8.75 V 621.41 h -8.75" /><path
         id="path88"
         style="fill:#171717;fill-opacity:1;fill-rule:nonzero;stroke:none"
         d="m 4126.81,621.41 v 94.762 h -33.55 v 8 h 75.86 v -8 h -33.56 V 621.41 h -8.75" /><path
         id="path90"
         style="fill:#171717;fill-opacity:1;fill-rule:nonzero;stroke:none"
         d="m 4264.05,621.41 v 43.942 l -40.85,58.82 h 10.63 l 34.65,-50.762 34.66,50.52 h 10.63 l -40.85,-58.809 v -43.883 l -8.87,0.172" /><path
         id="path92"
         style="fill:#171717;fill-opacity:1;fill-rule:nonzero;stroke:none"
         d="m 4461.15,621.41 v 102.762 h 65.18 v -8 h -56.37 v -38.043 h 55.32 v -8 h -55.32 v -40.84 h 56.37 v -7.988 l -65.18,0.109" /><path
         id="path94"
         style="fill:#171717;fill-opacity:1;fill-rule:nonzero;stroke:none"
         d="m 4667.13,621.41 -36.07,46.16 -35.71,-46.39 h -11.08 l 41.42,52.519 -39.15,50.063 h 11.26 l 33.26,-43.59 33.44,43.59 h 11.08 l -38.97,-49.891 41.31,-52.812 -10.79,0.351" /><path
         id="path96"
         style="fill:#171717;fill-opacity:1;fill-rule:nonzero;stroke:none"
         d="m 4799.99,694.121 c 0.41,11.75 -8.79,21.609 -20.55,22.02 -0.7,0.031 -1.4,0.019 -2.1,-0.032 h -28.52 v -44.05 h 28.81 c 11.75,-0.59 21.75,8.461 22.34,20.203 0.03,0.617 0.04,1.238 0.02,1.859 z m -60.23,-72.711 v 102.762 h 38.52 c 16.58,0.726 30.61,-12.121 31.34,-28.703 0.73,-16.578 -12.11,-30.61 -28.69,-31.34 -0.88,-0.039 -1.77,-0.039 -2.65,0 h -29.46 v -42.66 l -9.06,-0.059" /><path
         id="path98"
         style="fill:#171717;fill-opacity:1;fill-rule:nonzero;stroke:none"
         d="m 4873.91,621.41 v 102.762 h 65.18 v -8 h -56.37 v -38.043 h 55.31 v -8 h -55.31 v -40.84 h 56.37 v -7.988 l -65.18,0.109" /><path
         id="path100"
         style="fill:#171717;fill-opacity:1;fill-rule:nonzero;stroke:none"
         d="m 5067.22,694.121 c 0.35,11.82 -8.95,21.68 -20.78,22.027 -0.67,0.024 -1.35,0.012 -2.04,-0.039 h -28.82 v -44.23 h 28.82 c 11.87,-0.809 22.15,8.152 22.96,20.012 0.05,0.738 0.06,1.488 0.04,2.23 z m 0,-72.711 -28.82,42.539 h -22.64 V 621.41 h -8.75 v 102.762 h 38.33 c 17.51,0 31.28,-11.262 31.28,-30.051 0.7,-15.621 -11.38,-28.851 -26.99,-29.562 -0.49,-0.02 -0.99,-0.028 -1.49,-0.028 l 29.7,-43.121 h -10.62" /><path
         id="path102"
         style="fill:#171717;fill-opacity:1;fill-rule:nonzero;stroke:none"
         d="m 5169.33,621.41 v 94.762 h -33.55 v 8 h 75.86 v -8 h -33.38 V 621.41 h -8.93" /><path
         id="path104"
         style="fill:#171717;fill-opacity:1;fill-rule:nonzero;stroke:none"
         d="m 5270.21,635.891 5.84,6.589 c 7.95,-9.46 19.68,-14.929 32.03,-14.941 21.13,0 27.13,11.672 27.13,20.492 0,30.16 -61.61,14.457 -61.61,50.348 0,16.801 15.11,27.422 33.72,27.422 13.26,0.691 26.12,-4.629 35.01,-14.469 l -5.83,-6.48 c -7.24,8.527 -17.99,13.296 -29.18,12.957 -13.71,0 -24.03,-7.879 -24.03,-18.957 0,-26.321 61.61,-11.672 61.61,-50.25 0,-13.243 -8.75,-29.172 -36.52,-29.172 -14.58,-0.7 -28.67,5.371 -38.17,16.461" /><path
         id="path106"
         style="fill:#ec1c26;fill-opacity:1;fill-rule:nonzero;stroke:none"
         d="m 3850.77,892.102 h -0.88 c -1.98,0.457 -3.21,2.429 -2.74,4.41 0,0 0,0.008 0,0.019 1.28,5.27 1.92,10.668 1.92,16.098 v 75.441 c 0.2,16.14 -5.63,31.76 -16.34,43.83 -19.12,21.8 -52.3,23.97 -74.1,4.84 -1.72,-1.51 -3.34,-3.13 -4.84,-4.84 -10.78,-12.06 -16.67,-27.7 -16.52,-43.88 v -45.278 0 c -0.12,-4.121 -0.59,-8.211 -1.39,-12.25 -0.84,-7.351 -4.3,-14.14 -9.75,-19.14 -5.48,-4.332 -12.57,-6.082 -19.43,-4.793 -3.12,0.57 -6.12,1.722 -8.81,3.39 l 4.08,6.121 c 6.18,-3.679 13.97,-3.218 19.67,1.168 3.91,3.953 6.36,9.121 6.94,14.653 0.7,3.601 1.11,7.25 1.23,10.91 v 45.269 c -0.16,18.02 6.41,35.43 18.44,48.84 5.69,6.28 12.61,11.34 20.3,14.88 15.71,7.32 33.84,7.32 49.54,0 7.63,-3.56 14.48,-8.62 20.13,-14.88 12.02,-13.41 18.6,-30.82 18.44,-48.84 v -75.441 c -0.01,-5.887 -0.72,-11.77 -2.1,-17.508 -0.32,-1.812 -1.95,-3.109 -3.79,-3.019" /><path
         id="path108"
         style="fill:#ec1c26;fill-opacity:1;fill-rule:nonzero;stroke:none"
         d="m 3791.6,904.699 c -3.7,0.012 -7.38,0.582 -10.91,1.692 -8.98,2.757 -16.32,9.3 -20.08,17.91 -0.84,1.859 -0.01,4.039 1.84,4.879 1.85,0.84 4.04,0.011 4.87,-1.84 2.89,-6.738 8.62,-11.84 15.65,-13.942 3.16,-1.007 6.48,-1.437 9.79,-1.289 h 0.35 c 21.77,0 39.5,19.61 39.5,43.7 v 29.179 c 0,24.092 -17.5,43.702 -39.5,43.702 -21.99,0 -39.5,-19.61 -39.5,-43.702 V 942.27 c 0.02,-5.18 -0.43,-10.36 -1.34,-15.461 -0.9,-6.469 -3.63,-12.539 -7.88,-17.508 -1.41,-1.461 -3.75,-1.5 -5.22,-0.082 -1.47,1.422 -1.51,3.761 -0.08,5.222 2.16,2.219 7.11,9.399 7.11,28.008 v 42.891 c -0.12,13.269 4.74,26.11 13.6,36 16.05,18.36 43.96,20.24 62.33,4.19 1.48,-1.3 2.89,-2.7 4.19,-4.19 8.86,-9.89 13.71,-22.731 13.59,-36 v -29.18 c 0.12,-13.269 -4.73,-26.109 -13.59,-36 -8.39,-9.5 -20.41,-15 -33.09,-15.109 l -1.63,-0.352" /><path
         id="path110"
         style="fill:#ec1c26;fill-opacity:1;fill-rule:nonzero;stroke:none"
         d="m 3793.05,1006.69 c -13.4,-0.75 -23.68,-12.202 -22.98,-25.62 v -19.191 c -2.32,-12.68 6.09,-24.84 18.77,-27.16 12.68,-2.309 24.83,6.101 27.14,18.769 0.51,2.782 0.51,5.621 0,8.391 v 19.25 c 0.71,13.402 -9.54,24.831 -22.93,25.621 z m 0,-77.721 c -17.45,0.793 -30.99,15.511 -30.34,32.972 v 19.188 c -1.46,16.762 10.93,31.531 27.69,33.011 16.75,1.47 31.53,-10.92 33,-27.679 0.15,-1.77 0.15,-3.551 0,-5.332 v -19.188 c 0.66,-17.461 -12.89,-32.179 -30.35,-32.972" /><path
         id="path112"
         style="fill:#ec1c26;fill-opacity:1;fill-rule:nonzero;stroke:none"
         d="m 3793.05,986.559 c -3.84,-0.278 -6.73,-3.618 -6.47,-7.469 v -14.578 c -0.48,-3.582 2.03,-6.883 5.61,-7.352 3.57,-0.48 6.86,2.031 7.35,5.602 0.08,0.578 0.08,1.16 0,1.75 v 14.578 c 0.23,3.832 -2.66,7.129 -6.49,7.41 z m 0,-36.93 c -7.89,0.312 -14.05,6.922 -13.82,14.82 v 14.582 c -0.5,7.66 5.3,14.27 12.96,14.758 7.65,0.492 14.25,-5.309 14.75,-12.949 0.04,-0.61 0.04,-1.199 0,-1.809 v -14.582 c 0.24,-7.918 -5.97,-14.539 -13.89,-14.82" /><path
         id="path114"
         style="fill:#ec1c26;fill-opacity:1;fill-rule:nonzero;stroke:none"
         d="m 3793.05,823.531 c -20.55,0.078 -40.2,8.508 -54.43,23.34 -1.43,1.461 -1.43,3.789 0.03,5.231 1.45,1.429 3.79,1.41 5.21,-0.032 25.64,-27.211 68.48,-28.5 95.69,-2.859 1.71,1.609 3.33,3.301 4.85,5.07 13.94,15.559 21.55,35.778 21.36,56.668 v 78.942 c 0.27,20.989 -7.35,41.309 -21.36,56.939 -24.53,28.25 -67.32,31.25 -95.56,6.72 -2.4,-2.08 -4.64,-4.32 -6.72,-6.72 -13.94,-15.55 -21.56,-35.77 -21.36,-56.65 v -41.258 c 0.18,-2.652 0.18,-5.332 0,-7.981 -0.11,-4.851 -1.76,-9.543 -4.73,-13.371 -1.66,-1.82 -4.01,-2.859 -6.47,-2.859 -3.73,0 -8.63,1.687 -10.68,9.68 -1.12,5.769 -1.63,11.64 -1.52,17.507 0,1.934 0,3.911 0,5.832 0,2.032 1.65,3.68 3.68,3.68 2.03,0 3.67,-1.648 3.67,-3.68 0,-2.039 0,-4.082 0,-5.832 -0.24,-5.32 0.03,-10.66 0.82,-15.929 1.05,-4.137 2.57,-4.137 3.56,-4.137 0.43,0 0.84,0.199 1.11,0.52 2.53,4.949 3.57,10.527 2.98,16.046 v 41.493 c -0.03,11.579 2.09,23.079 6.24,33.899 3.9,10.23 9.68,19.66 17.04,27.77 7.15,7.84 15.8,14.17 25.44,18.61 19.79,9.23 42.65,9.23 62.43,0 9.63,-4.5 18.27,-10.89 25.38,-18.79 7.37,-8.11 13.14,-17.52 17.05,-27.77 4.15,-10.82 6.26,-22.31 6.24,-33.899 v -78.82 c 0.02,-11.602 -2.09,-23.09 -6.24,-33.911 -3.91,-10.23 -9.68,-19.66 -17.05,-27.769 -7.11,-7.891 -15.75,-14.281 -25.38,-18.789 -9.79,-4.563 -20.47,-6.922 -31.28,-6.891" /><path
         id="path116"
         style="fill:#ec1c26;fill-opacity:1;fill-rule:nonzero;stroke:none"
         d="m 3885.77,904.871 c -2.02,0 -3.67,1.649 -3.67,3.68 v 0 83.258 c 0.03,13.091 -2.37,26.071 -7.06,38.281 -4.33,11.49 -10.77,22.08 -18.97,31.22 -7.94,8.8 -17.56,15.92 -28.3,20.94 -21.87,10.2 -47.15,10.2 -69.02,0 -10.73,-5.02 -20.36,-12.14 -28.3,-20.94 -8.26,-9.12 -14.76,-19.71 -19.14,-31.22 -4.65,-12.22 -7.01,-25.2 -6.95,-38.281 v -34.137 c 0,-2.043 -1.65,-3.703 -3.7,-3.703 -2.05,0 -3.7,1.66 -3.7,3.703 v 34.137 c -0.03,13.961 2.52,27.811 7.52,40.841 4.73,12.36 11.71,23.72 20.61,33.5 8.58,9.53 19,17.26 30.62,22.7 23.86,11.12 51.42,11.12 75.27,0 11.62,-5.44 22.04,-13.17 30.64,-22.7 8.89,-9.78 15.88,-21.14 20.59,-33.5 5,-13.03 7.55,-26.88 7.53,-40.841 v -83.258 c 0,-2.031 -1.64,-3.68 -3.66,-3.692 -0.11,0 -0.2,0 -0.31,0.012" /><path
         id="path118"
         style="fill:#ec1c26;fill-opacity:1;fill-rule:nonzero;stroke:none"
         d="m 3793.05,803.051 c -29.02,0.347 -56.24,14.16 -73.63,37.41 -1.24,1.609 -0.94,3.918 0.68,5.16 1.61,1.238 3.91,0.938 5.15,-0.672 15.98,-21.461 41.06,-34.23 67.8,-34.539 16.66,0.012 32.93,5.059 46.68,14.469 13.91,9.562 25.02,22.66 32.21,37.922 0.89,1.84 3.1,2.609 4.93,1.73 1.84,-0.89 2.61,-3.101 1.73,-4.929 -7.84,-16.493 -19.92,-30.59 -35.01,-40.852 -14.89,-10.168 -32.5,-15.641 -50.54,-15.699" /><path
         id="path120"
         style="fill:#ec1c26;fill-opacity:1;fill-rule:nonzero;stroke:none"
         d="m 3709.09,922.32 c -3.31,-0.109 -6.51,1.211 -8.81,3.621 -1.94,2.141 -3.29,4.758 -3.91,7.579 -1.15,5.921 -1.68,11.949 -1.57,17.972 0,1.93 0,3.906 0,5.84 -0.11,3.219 2.4,5.918 5.63,6.039 3.22,0.109 5.92,-2.422 6.04,-5.641 0,-2.039 0,-4.082 0,-5.832 0,-4.437 0.28,-8.878 0.81,-13.296 0.59,-3.864 1.53,-4.61 1.53,-4.61 h 0.46 c 3.22,0 5.83,-2.621 5.83,-5.844 0,-3.218 -2.61,-5.828 -5.83,-5.828 h -0.18" /><path
         id="path122"
         style="fill:#ec1c26;fill-opacity:1;fill-rule:nonzero;stroke:none"
         d="m 3885.77,902.77 c -3.22,0 -5.83,2.621 -5.83,5.839 v 83.2 c 0.06,12.831 -2.26,25.541 -6.83,37.521 -4.28,11.27 -10.63,21.63 -18.73,30.58 -7.7,8.58 -17.05,15.55 -27.48,20.48 -21.33,9.94 -45.96,9.94 -67.27,0 -10.5,-4.91 -19.91,-11.88 -27.66,-20.48 -8.16,-8.93 -14.57,-19.3 -18.91,-30.58 -4.6,-11.99 -6.93,-24.73 -6.88,-37.568 v -34.141 c 0,-3.223 -2.62,-5.84 -5.84,-5.84 -3.22,0 -5.83,2.617 -5.83,5.84 v 34.188 c -0.05,14.261 2.54,28.401 7.64,41.721 4.82,12.59 11.94,24.16 21,34.13 8.76,9.8 19.4,17.74 31.28,23.34 24.42,11.39 52.61,11.39 77.02,0 11.89,-5.6 22.52,-13.54 31.27,-23.34 9.07,-9.97 16.19,-21.54 21.01,-34.13 5.11,-13.32 7.69,-27.46 7.64,-41.721 v -83.258 c -0.02,-3.11 -2.49,-5.653 -5.6,-5.781" /><path
         id="path124"
         style="fill:#ec1c26;fill-opacity:1;fill-rule:nonzero;stroke:none"
         d="m 3793.05,800.781 c -3.22,0 -5.83,2.61 -5.83,5.828 0,3.223 2.61,5.84 5.83,5.84 9.66,0 19.23,1.762 28.25,5.192 8.91,3.398 17.17,8.3 24.45,14.468 7.46,6.34 13.88,13.84 19.01,22.172 5.3,8.699 9.23,18.141 11.67,28.008 1.32,2.941 4.77,4.27 7.71,2.961 2.26,-1.008 3.65,-3.352 3.45,-5.82 -2.83,-11.02 -7.31,-21.551 -13.32,-31.211 -5.77,-9.34 -12.97,-17.699 -21.34,-24.797 -8.27,-7 -17.66,-12.543 -27.78,-16.402 -10.23,-4 -21.11,-6.122 -32.1,-6.239" /><path
         id="path126"
         style="fill:#ec1c26;fill-opacity:1;fill-rule:nonzero;stroke:none"
         d="m 3885.77,902.539 c -3.22,0 -5.83,2.609 -5.83,5.84 v 83.199 c 0,3.223 2.61,5.832 5.83,5.832 3.22,0 5.84,-2.609 5.84,-5.832 V 908.32 c -0.03,-3.199 -2.64,-5.781 -5.84,-5.781" /><path
         id="path128"
         style="fill:#ec1c26;fill-opacity:1;fill-rule:nonzero;stroke:none"
         d="m 3793.05,801.012 c -29.67,0.308 -57.51,14.437 -75.26,38.218 -1.54,2.829 -0.5,6.372 2.32,7.918 2.21,1.204 4.95,0.864 6.78,-0.859 15.59,-20.937 40.06,-33.41 66.16,-33.719 16.24,0 32.11,4.899 45.52,14.059 13.6,9.359 24.47,22.172 31.51,37.109 1.85,2.633 5.48,3.282 8.12,1.422 2.04,-1.422 2.95,-3.988 2.27,-6.379 -7.94,-16.781 -20.18,-31.16 -35.48,-41.66 -15.3,-10.473 -33.4,-16.09 -51.94,-16.109" /><path
         id="path130"
         style="fill:#ec1c26;fill-opacity:1;fill-rule:nonzero;stroke:none"
         d="m 3793.05,965.91 c -2.03,0 -3.67,1.641 -3.67,3.672 v 0 5.84 c 0,2.039 1.66,3.699 3.7,3.699 2.05,0 3.71,-1.66 3.71,-3.699 v -5.84 c 0,-2.031 -1.65,-3.672 -3.68,-3.672 -0.02,0 -0.04,0 -0.06,0" /><path
         id="path132"
         style="fill:#ec1c26;fill-opacity:1;fill-rule:nonzero;stroke:none"
         d="m 3797.72,883.449 c -8.55,0.352 -16.93,2.531 -24.56,6.43 -3.98,1.93 -8.17,3.422 -12.49,4.43 -23.34,4.261 -55.19,-8.047 -55.55,-8.168 -1.9,-0.743 -4.04,0.211 -4.78,2.097 -0.74,1.903 0.2,4.043 2.1,4.793 1.41,0.52 34.42,13.188 59.58,8.578 4.87,-1.078 9.62,-2.738 14.12,-4.898 10.2,-5.77 22.3,-7.191 33.55,-3.922 7.56,2.18 14.48,6.191 20.13,11.672 2.3,2.18 4.26,4.668 5.83,7.41 0.9,1.84 3.13,2.598 4.96,1.688 1.84,-0.899 2.6,-3.11 1.69,-4.95 v 0 c -6.7,-11.359 -17.6,-19.617 -30.34,-23 -4.61,-1.429 -9.4,-2.16 -14.24,-2.16" /><path
         id="path134"
         style="fill:#ec1c26;fill-opacity:1;fill-rule:nonzero;stroke:none"
         d="m 3798.78,862.742 c -11.34,0.457 -22.43,3.449 -32.44,8.758 -4.15,2.07 -8.49,3.73 -12.96,4.949 -9.71,1.942 -19.76,1.332 -29.17,-1.75 -4.48,-1.34 -8.77,-3.179 -12.85,-5.469 -1.73,-1.07 -4.01,-0.519 -5.06,1.219 -1.07,1.742 -0.52,4.012 1.22,5.082 4.54,2.571 9.35,4.617 14.35,6.117 10.65,3.512 22.03,4.204 33.03,1.981 4.99,-1.309 9.84,-3.117 14.47,-5.418 11.03,-5.02 23.33,-10.68 40.84,-6.77 19.38,4.438 26.61,9.86 32.03,17.207 1.42,1.461 3.74,1.493 5.2,0.09 1.21,-1.168 1.47,-3.008 0.64,-4.457 -6.25,-8.461 -14.82,-15.062 -36.35,-20.011 -4.25,-1 -8.6,-1.508 -12.95,-1.528" /><path
         id="path136"
         style="fill:#ec1c26;fill-opacity:1;fill-rule:nonzero;stroke:none"
         d="m 3799.13,842.148 c -11.47,-0.308 -22.77,2.872 -32.38,9.102 -4.63,2.77 -9.5,5.121 -14.54,7 -14.76,5.309 -35.01,-4.488 -35.36,-4.609 -1.83,-0.891 -4.04,-0.121 -4.93,1.718 -0.89,1.84 -0.12,4.051 1.72,4.93 v 0 c 0.94,0.473 23.34,11.262 40.85,4.902 5.45,-2.031 10.7,-4.55 15.69,-7.531 8.52,-5.621 18.57,-8.469 28.77,-8.16 12,-0.309 23.6,4.359 32.03,12.891 1.31,1.609 3.68,1.871 5.29,0.558 1.61,-1.301 1.85,-3.668 0.55,-5.289 -9.82,-10.23 -23.5,-15.871 -37.69,-15.512" /><path
         id="path138"
         style="fill:#e5143c;fill-opacity:1;fill-rule:nonzero;stroke:none"
         d="m 3440.47,1103.46 v 0 c -0.01,0.01 -0.03,0.03 -0.03,0.03 0,0 0.02,-0.02 0.03,-0.03" /><path
         id="path140"
         style="fill:#ed1834;fill-opacity:1;fill-rule:nonzero;stroke:none"
         d="m 4441.3,1521.09 h 18.11 v 40.49 h 14.36 c 9.49,0 16.32,-0.98 20.18,-3.38 6.39,-3.82 9.66,-11.74 9.66,-23.58 v -8.28 l 0.33,-3.12 c 0.23,-0.61 0.23,-0.87 0.28,-1.25 0.1,-0.5 0.15,-0.66 0.48,-0.88 h 16.81 l -0.59,1.19 c -0.55,0.77 -0.82,2.52 -0.88,5.26 -0.22,2.83 -0.22,5.34 -0.22,7.63 v 7.64 c 0,5.24 -1.9,10.48 -5.61,15.99 -3.83,5.51 -9.84,8.73 -17.9,10.15 6.43,1.03 11.46,2.79 14.89,4.86 6.87,4.36 10.09,11.34 10.09,20.41 0,12.88 -5.12,21.72 -15.92,26.08 -5.96,2.4 -15.28,3.71 -28.11,3.71 h -35.96 z m 51.62,55.44 c -3.65,-1.58 -9.49,-2.28 -17.25,-2.28 h -16.26 v 37.43 h 15.5 c 10.04,0 17.35,-1.42 21.83,-3.93 4.63,-2.63 6.87,-7.64 6.87,-15.07 0,-7.97 -3.49,-13.2 -10.69,-16.15 z m 52.71,61.89 c -18.44,18.22 -40.54,27.28 -66.68,27.28 -25.59,0 -47.8,-9.06 -65.93,-27.28 -18.43,-18.29 -27.39,-40.44 -27.39,-66.42 0,-25.92 8.84,-48.18 27.07,-66.35 18.12,-18.5 40.44,-27.67 66.25,-27.67 26.14,0 48.24,9.17 66.68,27.67 18.18,18.28 27.51,40.6 27.51,66.35 0,26.14 -9.33,48.13 -27.51,66.42 z m -9.49,-9.34 c 15.83,-15.44 23.57,-34.65 23.57,-57.08 0,-22.21 -7.74,-41.58 -23.57,-57.4 -15.61,-15.72 -34.71,-23.74 -57.19,-23.74 -22.26,0 -41.36,8.02 -57.08,23.74 -15.5,15.82 -23.46,35.19 -23.46,57.4 0,22.43 7.96,41.64 23.46,57.08 15.99,16.1 34.98,23.96 57.08,23.96 22.42,0 41.42,-7.86 57.19,-23.96" /><path
         id="path142"
         style="fill:#ffffff;fill-opacity:1;fill-rule:nonzero;stroke:none"
         d="m 4581.48,2311.39 c 6.68,132.71 -17.83,275.67 -133.3,405.03 -118.69,127.91 -318.92,236.49 -730.82,261.8 21.41,66.76 40.12,127.91 59.86,190.41 246.26,-8.68 465.42,-26.41 652.03,-50.62 14.71,66.81 22.7,132.12 37.95,195.14 -19.01,27.74 -39.14,54.66 -60.28,80.73 -88.71,10.25 -177.15,32.42 -272.35,44.53 -128.7,16.61 -263.44,28.48 -409,35.2 -91.66,-273.02 -206.25,-616.57 -323.8,-971.61 612.74,-53.03 848.37,-218.13 835.12,-451.04 -12.2,-125.8 -127.22,-240.22 -278.47,-253.74 -179.93,-12.09 -262.29,60.59 -316.35,140.31 -47.61,71.63 -95.11,143.38 -145.84,221.57 -13.78,22.99 -31.96,8.05 -48.37,-7.98 -37.11,-36.01 -72.4,-70.05 -109.06,-105.18 -23.59,-20.52 -18.34,-38.14 -10.01,-55.33 34.24,-80.77 66.15,-154.81 98.38,-228.3 53.63,-32.88 305.79,-77.76 494.36,-63.64 127.78,10.72 287.57,60.15 419.61,159.63 130.52,101.07 225.62,237.43 240.34,453.09" /><path
         id="path144"
         style="fill:#ffffff;fill-opacity:1;fill-rule:nonzero;stroke:none"
         d="m 2438.52,1873.49 c 23.59,-32 48.67,-62.81 75.14,-92.37 211.94,-38.12 476.27,-64.46 751.52,-72.49 -0.92,28.56 -1.74,56.31 -2.4,85.74 -169.03,9.53 -246.75,35.31 -260.25,68.74 -11.28,26.59 -13.25,66.27 -15.66,105.45 -12.69,259.65 -16.85,540.49 -12.47,822.37 94.66,1.64 188.67,2.41 287.45,3.56 47.88,21.81 92.92,43.39 140.7,64.74 0,34.12 0.21,64.67 0.21,98 -146.49,-0.71 -285.32,-3.02 -424.53,-7.01 3.94,118.51 8.58,227.87 15.54,334.58 5.03,70.1 53.51,121.35 103.59,125.37 80.27,3.12 152.34,-28.76 222.12,-59.76 38.47,-18.65 76.39,-37.18 115.79,-57.37 18.82,-5.09 41.15,-9.39 54.61,6.95 23.37,27.65 45.58,53.38 68.57,80.27 12.42,18.39 7.06,28.92 1.97,35.7 -50.07,39.55 -97.19,75.09 -144.86,110.83 -29.43,20 -75.88,24.26 -121.7,24.26 -18.28,0 -36.61,-0.66 -53.62,-1.2 -47.07,-2.46 -107.04,-10.02 -205.11,-33.89 -220.96,-59.47 -486.26,-213.62 -514.27,-465.5 -3.62,-41.14 -6.62,-81.88 -9.31,-123.93 -62.38,-5.25 -119.18,-9.77 -172.81,-14.91 -3.94,-48.19 -6.56,-94.44 -8.75,-143.29 54.29,3.17 110.92,6.01 174.01,8.76 -9.36,-264.15 -0.5,-527.75 24.3,-771.87 4.16,-37.1 8.21,-73.86 3.4,-97.62 -3.96,-22.72 -40.49,-34.51 -93.18,-34.11" /><path
         id="path146"
         style="fill:#ed1834;fill-opacity:1;fill-rule:nonzero;stroke:none"
         d="m 4467.2,3313.15 c -15.25,-63.02 -23.24,-128.33 -37.95,-195.14 -186.61,24.21 -405.77,41.94 -652.03,50.62 -19.74,-62.5 -38.45,-123.65 -59.86,-190.41 411.9,-25.31 612.13,-133.89 730.82,-261.8 115.47,-129.36 139.98,-272.32 133.3,-405.03 -14.71,-215.66 -109.82,-352.02 -240.34,-453.09 -132.04,-99.48 -291.83,-148.91 -419.61,-159.63 -188.57,-14.12 -440.73,30.76 -494.36,63.64 -32.23,73.49 -64.14,147.53 -98.38,228.3 -8.33,17.19 -13.58,34.81 10.01,55.33 36.66,35.13 71.95,69.17 109.06,105.18 16.41,16.03 34.59,30.97 48.37,7.98 50.73,-78.19 98.23,-149.94 145.84,-221.57 54.06,-79.72 136.42,-152.4 316.35,-140.31 151.25,13.52 266.27,127.94 278.48,253.74 13.24,232.91 -222.39,398.01 -835.13,451.04 117.55,355.04 232.14,698.59 323.8,971.61 145.56,-6.72 280.3,-18.59 409,-35.2 95.2,-12.11 183.64,-34.28 272.35,-44.53 -228.06,281.12 -576.12,460.91 -966.36,460.91 -687.14,0 -1244.17,-557 -1244.17,-1244.06 0,-275.99 90.03,-530.89 242.13,-737.24 52.69,-0.4 89.22,11.39 93.18,34.11 4.81,23.76 0.76,60.52 -3.4,97.62 -24.8,244.12 -33.65,507.72 -24.3,771.87 -63.09,-2.75 -119.72,-5.59 -174.01,-8.76 2.19,48.85 4.81,95.1 8.75,143.29 53.63,5.14 110.43,9.66 172.82,14.91 2.68,42.05 5.68,82.79 9.3,123.93 28.01,251.88 293.31,406.03 514.27,465.5 98.07,23.87 158.04,31.43 205.11,33.89 17.01,0.54 35.34,1.2 53.62,1.2 45.82,0 92.27,-4.26 121.7,-24.26 47.67,-35.74 94.79,-71.28 144.86,-110.83 5.09,-6.78 10.45,-17.31 -1.97,-35.7 -22.99,-26.89 -45.2,-52.62 -68.57,-80.27 -13.46,-16.34 -35.79,-12.04 -54.61,-6.95 -39.4,20.19 -77.32,38.72 -115.79,57.37 -69.78,31 -141.85,62.88 -222.12,59.76 -50.08,-4.02 -98.56,-55.27 -103.59,-125.37 -6.96,-106.71 -11.6,-216.07 -15.54,-334.58 139.21,3.99 278.04,6.3 424.53,7.01 0,-33.33 -0.21,-63.88 -0.21,-98 -47.78,-21.35 -92.82,-42.93 -140.7,-64.74 -98.78,-1.15 -192.79,-1.92 -287.45,-3.56 -4.38,-281.88 -0.22,-562.72 12.47,-822.37 2.41,-39.18 4.38,-78.86 15.66,-105.45 13.5,-33.43 91.22,-59.21 260.25,-68.74 0.66,-29.43 1.48,-57.18 2.4,-85.74 -275.25,8.03 -539.57,34.37 -751.51,72.49 227.8,-254.31 558.58,-414.45 926.89,-414.45 687.1,0 1243.96,557.02 1243.96,1244.06 0,260.67 -80.3,502.51 -217.32,702.42" /><path
         id="path148"
         style="fill:#e5143c;fill-opacity:1;fill-rule:nonzero;stroke:none"
         d="m 2513.66,1781.12 h 0.01 c -0.02,0.01 -0.03,0.03 -0.03,0.03 0,0 0.01,-0.02 0.02,-0.03" /><g
         transform="scale(10)"
         id="g150"><text
           id="text154"
           style="font-variant:normal;font-weight:normal;font-size:25px;font-family:ProximaNova;-inkscape-font-specification:ProximaNova-Regular;writing-mode:lr-tb;fill:#231f20;fill-opacity:1;fill-rule:nonzero;stroke:none"
           transform="matrix(1,0,0,-1,6.16211,16.2922)"><tspan
             id="tspan152"
             y="0"
             x="0 13.75 28.5 34.950001 52.650002 66.724998 74.074997 92.425003 106.725 114.975 127.67419 138.80038 151.15039 157.60039 175.42538 192.27599 208.72598 223.92519 241.42519 247.40018 263.85019 281.54999 292.89999 299.35001 315.79999 332.79999 347.9006 364.35062 382.0506 398.95001 413.17502 430.67502 437.12503 451.77502 466.00003 482.89944 500.39944 515.59863 521.57367 535.82367 551.47302 557.92303 572.59802 587.79724 606.42224 622.87225 628.84723 646.34723 660.57227">F5 Networks® GUARDIAN™ ADVANCED SECURITY PROVIDER</tspan></text>
</g></g></g></svg>