<?xml version="1.0" encoding="UTF-8" standalone="no"?>
<svg
   xmlns:dc="http://purl.org/dc/elements/1.1/"
   xmlns:cc="http://creativecommons.org/ns#"
   xmlns:rdf="http://www.w3.org/1999/02/22-rdf-syntax-ns#"
   xmlns:svg="http://www.w3.org/2000/svg"
   xmlns="http://www.w3.org/2000/svg"
   viewBox="0 0 508.51999 431.38666"
   height="431.38666"
   width="508.51999"
   xml:space="preserve"
   id="svg2"
   version="1.1"><metadata
     id="metadata8"><rdf:RDF><cc:Work
         rdf:about=""><dc:format>image/svg+xml</dc:format><dc:type
           rdf:resource="http://purl.org/dc/dcmitype/StillImage" /></cc:Work></rdf:RDF></metadata><defs
     id="defs6" /><g
     transform="matrix(1.3333333,0,0,-1.3333333,0,431.38667)"
     id="g10"><g
       transform="scale(0.1)"
       id="g12"><path
         id="path14"
         style="fill:#171717;fill-opacity:1;fill-rule:nonzero;stroke:none"
         d="m 165.113,337.949 c 14.051,0.11 28.098,-0.57 42.071,-2.039 10.031,-0.961 19.941,-2.91 29.582,-5.84 6.953,-2.101 13.464,-5.461 19.199,-9.922 4.551,-3.687 8.301,-8.277 11.023,-13.476 2.676,-5.301 4.395,-11.024 5.078,-16.922 0.801,-6.719 1.192,-13.48 1.161,-20.25 0.019,-6.871 -0.664,-13.738 -2.039,-20.469 -1.204,-6.211 -3.536,-12.14 -6.883,-17.511 -3.547,-5.532 -8.117,-10.329 -13.481,-14.122 -6.668,-4.589 -14.011,-8.136 -21.765,-10.5 -10.34,-3.23 -20.965,-5.429 -31.739,-6.589 -14.414,-1.61 -28.906,-2.34 -43.41,-2.219 h -39.734 c -14.9026,0 -27.9494,0.558 -39.1526,1.691 -9.7656,0.879 -19.4336,2.617 -28.8867,5.188 -7.0976,1.961 -13.8554,5 -20.0078,9.051 -5.0195,3.32 -9.3281,7.589 -12.668,12.589 -3.2304,5.012 -5.47652,10.61 -6.58981,16.461 -1.30078,6.731 -1.92578,13.571 -1.86718,20.43 H 34.8789 c -0.3633,-7.629 1.0156,-15.23 4.0234,-22.238 2.8204,-5.551 7.5782,-9.891 13.3594,-12.192 7.8203,-3.011 16.0821,-4.711 24.4531,-5.011 C 86.793,223.352 99.293,223 114.234,223 h 39.676 c 14.477,-0.18 28.938,0.66 43.293,2.512 9.492,1.117 18.731,3.847 27.305,8.047 6.258,3.05 11.347,8.07 14.472,14.293 2.969,6.757 4.407,14.097 4.2,21.476 0.195,7.152 -0.774,14.293 -2.852,21.121 -1.992,5.711 -6.023,10.5 -11.328,13.422 -7.383,3.789 -15.422,6.129 -23.684,6.879 -13.339,1.59 -26.777,2.289 -40.203,2.102 h -40.847 c -15.578,-0.09 -31.1644,0.589 -46.6722,2.046 -11.0469,0.993 -21.9844,2.942 -32.6758,5.84 -7.5313,1.942 -14.668,5.133 -21.125,9.453 -4.9024,3.387 -9.0117,7.809 -12.0196,12.95 -2.79293,5.019 -4.62106,10.519 -5.37106,16.218 -0.85156,6.403 -1.26171,12.86 -1.22265,19.309 -0.04688,6.781 0.59765,13.551 1.92578,20.191 1.13281,6.059 3.49613,11.821 6.94143,16.922 3.8867,5.367 8.7812,9.938 14.414,13.418 7.3164,4.469 15.2657,7.813 23.5743,9.922 11.3281,2.899 22.8828,4.859 34.5429,5.84 C 100.035,446.32 115.863,447 134.066,447 h 29.817 c 14.902,0 27.949,-0.539 39.16,-1.641 9.758,-0.828 19.426,-2.539 28.879,-5.121 7.098,-1.91 13.887,-4.84 20.137,-8.699 5.054,-3.211 9.382,-7.449 12.711,-12.43 3.136,-4.918 5.316,-10.379 6.418,-16.097 1.296,-6.692 1.921,-13.5 1.875,-20.313 h -29.708 c 0.364,7.512 -1.015,15 -4.023,21.879 -2.91,5.363 -7.656,9.5 -13.359,11.672 -7.91,3.16 -16.289,4.969 -24.805,5.371 -10.148,0.66 -22.676,0.988 -37.566,0.988 h -29.536 c -16.375,0.161 -32.761,-0.55 -49.0699,-2.097 -10.4492,-0.821 -20.7148,-3.203 -30.4609,-7.063 -6.5508,-2.527 -12.0391,-7.25 -15.5157,-13.359 -3.0976,-6.531 -4.582,-13.719 -4.3164,-20.949 -0.039,-4.641 0.3321,-9.25 1.1016,-13.821 0.6445,-3.84 2.1601,-7.48 4.4453,-10.629 2.4023,-3.312 5.5547,-6.023 9.2188,-7.871 5.0664,-2.422 10.4492,-4.14 15.9843,-5.14 8.0196,-1.5 16.125,-2.461 24.2696,-2.86 9.5703,-0.582 20.9883,-0.871 34.2573,-0.871 h 41.133" /><path
         id="path16"
         style="fill:none;stroke:#171717;stroke-width:10;stroke-linecap:butt;stroke-linejoin:miter;stroke-miterlimit:10;stroke-dasharray:none;stroke-opacity:1"
         d="m 165.113,337.949 c 14.051,0.11 28.098,-0.57 42.071,-2.039 10.031,-0.961 19.941,-2.91 29.582,-5.84 6.953,-2.101 13.464,-5.461 19.199,-9.922 4.551,-3.687 8.301,-8.277 11.023,-13.476 2.676,-5.301 4.395,-11.024 5.078,-16.922 0.801,-6.719 1.192,-13.48 1.161,-20.25 0.019,-6.871 -0.664,-13.738 -2.039,-20.469 -1.204,-6.211 -3.536,-12.14 -6.883,-17.511 -3.547,-5.532 -8.117,-10.329 -13.481,-14.122 -6.668,-4.589 -14.011,-8.136 -21.765,-10.5 -10.34,-3.23 -20.965,-5.429 -31.739,-6.589 -14.414,-1.61 -28.906,-2.34 -43.41,-2.219 h -39.734 c -14.9026,0 -27.9494,0.558 -39.1526,1.691 -9.7656,0.879 -19.4336,2.617 -28.8867,5.188 -7.0976,1.961 -13.8554,5 -20.0078,9.051 -5.0195,3.32 -9.3281,7.589 -12.668,12.589 -3.2304,5.012 -5.47652,10.61 -6.58981,16.461 -1.30078,6.731 -1.92578,13.571 -1.86718,20.43 H 34.8789 c -0.3633,-7.629 1.0156,-15.23 4.0234,-22.238 2.8204,-5.551 7.5782,-9.891 13.3594,-12.192 7.8203,-3.011 16.0821,-4.711 24.4531,-5.011 C 86.793,223.352 99.293,223 114.234,223 h 39.676 c 14.477,-0.18 28.938,0.66 43.293,2.512 9.492,1.117 18.731,3.847 27.305,8.047 6.258,3.05 11.347,8.07 14.472,14.293 2.969,6.757 4.407,14.097 4.2,21.476 0.195,7.152 -0.774,14.293 -2.852,21.121 -1.992,5.711 -6.023,10.5 -11.328,13.422 -7.383,3.789 -15.422,6.129 -23.684,6.879 -13.339,1.59 -26.777,2.289 -40.203,2.102 h -40.847 c -15.578,-0.09 -31.1644,0.589 -46.6722,2.046 -11.0469,0.993 -21.9844,2.942 -32.6758,5.84 -7.5313,1.942 -14.668,5.133 -21.125,9.453 -4.9024,3.387 -9.0117,7.809 -12.0196,12.95 -2.79293,5.019 -4.62106,10.519 -5.37106,16.218 -0.85156,6.403 -1.26171,12.86 -1.22265,19.309 -0.04688,6.781 0.59765,13.551 1.92578,20.191 1.13281,6.059 3.49613,11.821 6.94143,16.922 3.8867,5.367 8.7812,9.938 14.414,13.418 7.3164,4.469 15.2657,7.813 23.5743,9.922 11.3281,2.899 22.8828,4.859 34.5429,5.84 C 100.035,446.32 115.863,447 134.066,447 h 29.817 c 14.902,0 27.949,-0.539 39.16,-1.641 9.758,-0.828 19.426,-2.539 28.879,-5.121 7.098,-1.91 13.887,-4.84 20.137,-8.699 5.054,-3.211 9.382,-7.449 12.711,-12.43 3.136,-4.918 5.316,-10.379 6.418,-16.097 1.296,-6.692 1.921,-13.5 1.875,-20.313 h -29.708 c 0.364,7.512 -1.015,15 -4.023,21.879 -2.91,5.363 -7.656,9.5 -13.359,11.672 -7.91,3.16 -16.289,4.969 -24.805,5.371 -10.148,0.66 -22.676,0.988 -37.566,0.988 h -29.536 c -16.375,0.161 -32.761,-0.55 -49.0699,-2.097 -10.4492,-0.821 -20.7148,-3.203 -30.4609,-7.063 -6.5508,-2.527 -12.0391,-7.25 -15.5157,-13.359 -3.0976,-6.531 -4.582,-13.719 -4.3164,-20.949 -0.039,-4.641 0.3321,-9.25 1.1016,-13.821 0.6445,-3.84 2.1601,-7.48 4.4453,-10.629 2.4023,-3.312 5.5547,-6.023 9.2188,-7.871 5.0664,-2.422 10.4492,-4.14 15.9843,-5.14 8.0196,-1.5 16.125,-2.461 24.2696,-2.86 9.5703,-0.582 20.9883,-0.871 34.2573,-0.871 z" /><path
         id="path18"
         style="fill:#171717;fill-opacity:1;fill-rule:nonzero;stroke:none"
         d="m 931.18,367.77 c 0.347,10 -1.008,19.98 -4.035,29.519 -2.391,6.871 -7.122,12.699 -13.36,16.449 -7.539,4.121 -15.879,6.563 -24.441,7.121 -10.078,1.063 -22.59,1.571 -37.524,1.571 h -69.722 c -13.274,0 -24.414,-0.391 -33.442,-1.16 -7.652,-0.481 -15.203,-2.071 -22.398,-4.719 -5.449,-2.051 -10.188,-5.61 -13.656,-10.281 -3.551,-5.27 -5.934,-11.239 -7,-17.5 -1.614,-8.93 -2.454,-18 -2.508,-27.079 -0.199,-10.691 -0.293,-23.48 -0.293,-38.39 0,-14.903 0.133,-27.711 0.41,-38.449 0.098,-9.082 0.957,-18.141 2.566,-27.071 1.055,-6.25 3.399,-12.211 6.883,-17.5 3.391,-4.851 8.137,-8.562 13.653,-10.691 7.199,-2.649 14.746,-4.25 22.406,-4.719 9.058,-0.781 20.203,-1.172 33.433,-1.172 h 69.731 c 11.668,0 21.637,0.321 29.93,0.93 7.238,0.441 14.406,1.59 21.414,3.449 5.148,1.301 9.992,3.621 14.242,6.82 3.64,2.942 6.543,6.704 8.457,10.973 2.176,5.027 3.551,10.359 4.082,15.809 0.777,7.199 1.148,14.429 1.109,21.648 h 29.817 c 0.058,-9.019 -0.567,-18.019 -1.868,-26.949 -1.062,-7.457 -3.289,-14.707 -6.597,-21.481 -3.11,-6.187 -7.414,-11.687 -12.66,-16.218 -5.938,-4.93 -12.723,-8.739 -20.008,-11.262 -9.356,-3.246 -19.043,-5.43 -28.887,-6.527 -12.996,-1.5 -26.074,-2.211 -39.148,-2.11 h -69.668 c -15.422,-0.211 -30.825,0.899 -46.039,3.328 -10.758,1.653 -21.161,5.063 -30.809,10.102 -7.52,3.98 -13.937,9.777 -18.672,16.859 -4.617,7.379 -7.883,15.508 -9.629,24.039 -2.14,10.27 -3.308,20.723 -3.508,31.219 -0.3,11.672 -0.457,24.504 -0.457,38.5 0,14.012 0.157,26.852 0.457,38.524 0.188,10.488 1.36,20.937 3.508,31.207 1.746,8.531 5.012,16.671 9.629,24.043 4.735,7.128 11.172,12.957 18.731,16.988 9.648,5.031 20.046,8.43 30.8,10.078 15.227,2.441 30.625,3.551 46.043,3.332 h 69.731 c 13.074,0.102 26.148,-0.602 39.148,-2.102 9.824,-1.089 19.5,-3.226 28.875,-6.359 7.219,-2.32 13.965,-5.867 19.961,-10.5 5.196,-4.25 9.504,-9.48 12.656,-15.398 3.293,-6.332 5.532,-13.153 6.606,-20.2 1.297,-8.222 1.922,-16.531 1.863,-24.851 l -29.812,0.18" /><path
         id="path20"
         style="fill:none;stroke:#171717;stroke-width:10;stroke-linecap:butt;stroke-linejoin:miter;stroke-miterlimit:10;stroke-dasharray:none;stroke-opacity:1"
         d="m 931.18,367.77 c 0.347,10 -1.008,19.98 -4.035,29.519 -2.391,6.871 -7.122,12.699 -13.36,16.449 -7.539,4.121 -15.879,6.563 -24.441,7.121 -10.078,1.063 -22.59,1.571 -37.524,1.571 h -69.722 c -13.274,0 -24.414,-0.391 -33.442,-1.16 -7.652,-0.481 -15.203,-2.071 -22.398,-4.719 -5.449,-2.051 -10.188,-5.61 -13.656,-10.281 -3.551,-5.27 -5.934,-11.239 -7,-17.5 -1.614,-8.93 -2.454,-18 -2.508,-27.079 -0.199,-10.691 -0.293,-23.48 -0.293,-38.39 0,-14.903 0.133,-27.711 0.41,-38.449 0.098,-9.082 0.957,-18.141 2.566,-27.071 1.055,-6.25 3.399,-12.211 6.883,-17.5 3.391,-4.851 8.137,-8.562 13.653,-10.691 7.199,-2.649 14.746,-4.25 22.406,-4.719 9.058,-0.781 20.203,-1.172 33.433,-1.172 h 69.731 c 11.668,0 21.637,0.321 29.93,0.93 7.238,0.441 14.406,1.59 21.414,3.449 5.148,1.301 9.992,3.621 14.242,6.82 3.64,2.942 6.543,6.704 8.457,10.973 2.176,5.027 3.551,10.359 4.082,15.809 0.777,7.199 1.148,14.429 1.109,21.648 h 29.817 c 0.058,-9.019 -0.567,-18.019 -1.868,-26.949 -1.062,-7.457 -3.289,-14.707 -6.597,-21.481 -3.11,-6.187 -7.414,-11.687 -12.66,-16.218 -5.938,-4.93 -12.723,-8.739 -20.008,-11.262 -9.356,-3.246 -19.043,-5.43 -28.887,-6.527 -12.996,-1.5 -26.074,-2.211 -39.148,-2.11 h -69.668 c -15.422,-0.211 -30.825,0.899 -46.039,3.328 -10.758,1.653 -21.161,5.063 -30.809,10.102 -7.52,3.98 -13.937,9.777 -18.672,16.859 -4.617,7.379 -7.883,15.508 -9.629,24.039 -2.14,10.27 -3.308,20.723 -3.508,31.219 -0.3,11.672 -0.457,24.504 -0.457,38.5 0,14.012 0.157,26.852 0.457,38.524 0.188,10.488 1.36,20.937 3.508,31.207 1.746,8.531 5.012,16.671 9.629,24.043 4.735,7.128 11.172,12.957 18.731,16.988 9.648,5.031 20.046,8.43 30.8,10.078 15.227,2.441 30.625,3.551 46.043,3.332 h 69.731 c 13.074,0.102 26.148,-0.602 39.148,-2.102 9.824,-1.089 19.5,-3.226 28.875,-6.359 7.219,-2.32 13.965,-5.867 19.961,-10.5 5.196,-4.25 9.504,-9.48 12.656,-15.398 3.293,-6.332 5.532,-13.153 6.606,-20.2 1.297,-8.222 1.922,-16.531 1.863,-24.851 z" /><path
         id="path22"
         style="fill:#171717;fill-opacity:1;fill-rule:nonzero;stroke:none"
         d="M 1352.57,442.281 V 323.07 c 0,-14.082 -0.17,-26.922 -0.52,-38.511 -0.24,-10.489 -1.43,-20.938 -3.57,-31.219 -1.71,-8.59 -4.92,-16.801 -9.51,-24.27 -4.68,-7.129 -11.07,-12.968 -18.61,-16.98 -9.64,-5.039 -20.05,-8.442 -30.8,-10.102 -15.23,-2.429 -30.63,-3.539 -46.05,-3.328 h -70.02 c -15.41,-0.211 -30.81,0.899 -46.03,3.328 -10.75,1.66 -21.17,5.063 -30.8,10.102 -7.52,4.031 -13.92,9.871 -18.62,16.98 -4.63,7.371 -7.88,15.508 -9.63,24.039 -2.14,10.27 -3.32,20.723 -3.5,31.219 -0.31,11.672 -0.47,24.504 -0.47,38.5 v 119.453 h 29.82 V 323.07 c 0,-14.898 0.13,-27.699 0.4,-38.39 0.11,-9.078 0.97,-18.141 2.57,-27.078 1.07,-6.25 3.41,-12.211 6.89,-17.5 3.43,-4.68 8.16,-8.25 13.59,-10.274 7.21,-2.656 14.76,-4.25 22.41,-4.726 9.07,-0.782 20.21,-1.161 33.43,-1.161 h 70.02 c 13.15,0 24.28,0.379 33.38,1.161 7.66,0.457 15.21,2.058 22.4,4.726 5.43,2.051 10.15,5.613 13.61,10.274 3.53,5.277 5.93,11.238 7.06,17.5 1.65,8.937 2.51,17.988 2.55,27.078 0.2,10.691 0.3,23.492 0.3,38.39 v 119.27 l 29.7,-0.059" /><path
         id="path24"
         style="fill:none;stroke:#171717;stroke-width:10;stroke-linecap:butt;stroke-linejoin:miter;stroke-miterlimit:10;stroke-dasharray:none;stroke-opacity:1"
         d="M 1352.57,442.281 V 323.07 c 0,-14.082 -0.17,-26.922 -0.52,-38.511 -0.24,-10.489 -1.43,-20.938 -3.57,-31.219 -1.71,-8.59 -4.92,-16.801 -9.51,-24.27 -4.68,-7.129 -11.07,-12.968 -18.61,-16.98 -9.64,-5.039 -20.05,-8.442 -30.8,-10.102 -15.23,-2.429 -30.63,-3.539 -46.05,-3.328 h -70.02 c -15.41,-0.211 -30.81,0.899 -46.03,3.328 -10.75,1.66 -21.17,5.063 -30.8,10.102 -7.52,4.031 -13.92,9.871 -18.62,16.98 -4.63,7.371 -7.88,15.508 -9.63,24.039 -2.14,10.27 -3.32,20.723 -3.5,31.219 -0.31,11.672 -0.47,24.504 -0.47,38.5 v 119.453 h 29.82 V 323.07 c 0,-14.898 0.13,-27.699 0.4,-38.39 0.11,-9.078 0.97,-18.141 2.57,-27.078 1.07,-6.25 3.41,-12.211 6.89,-17.5 3.43,-4.68 8.16,-8.25 13.59,-10.274 7.21,-2.656 14.76,-4.25 22.41,-4.726 9.07,-0.782 20.21,-1.161 33.43,-1.161 h 70.02 c 13.15,0 24.28,0.379 33.38,1.161 7.66,0.457 15.21,2.058 22.4,4.726 5.43,2.051 10.15,5.613 13.61,10.274 3.53,5.277 5.93,11.238 7.06,17.5 1.65,8.937 2.51,17.988 2.55,27.078 0.2,10.691 0.3,23.492 0.3,38.39 v 119.27 z" /><path
         id="path26"
         style="fill:#171717;fill-opacity:1;fill-rule:nonzero;stroke:none"
         d="m 1739.13,203.859 h -29.82 v 44.7 c 0,7.23 -0.13,13.472 -0.41,18.73 -0.12,4.59 -1.01,9.121 -2.62,13.422 -1.43,3.617 -3.88,6.738 -7.06,8.98 -4.16,2.649 -8.79,4.43 -13.66,5.25 -7.39,1.418 -14.88,2.278 -22.4,2.571 -9.06,0.468 -20.2,0.707 -33.44,0.707 h -134.2 v -94.418 h -29.81 v 238.48 h 168.74 c 15.37,0.117 30.73,-0.511 46.04,-1.929 10.45,-0.903 20.8,-2.864 30.86,-5.84 6.85,-1.922 13.24,-5.192 18.79,-9.621 4.27,-3.641 7.57,-8.27 9.63,-13.481 2.11,-5.609 3.31,-11.512 3.57,-17.5 0.34,-6.43 0.51,-13.531 0.51,-21.301 0.1,-8.757 -0.6,-17.507 -2.1,-26.14 -1.12,-6.77 -3.52,-13.258 -7.06,-19.141 -3.27,-5.258 -7.8,-9.598 -13.18,-12.656 -6.42,-3.481 -13.42,-5.711 -20.65,-6.602 7,-0.808 13.76,-3.031 19.89,-6.531 4.9,-2.937 8.92,-7.129 11.67,-12.141 2.84,-5.457 4.66,-11.386 5.37,-17.5 0.94,-7.75 1.39,-15.539 1.34,-23.339 z M 1495.7,323.07 h 138.92 c 13.24,0 24.38,0.231 33.44,0.7 7.52,0.3 15.01,1.14 22.4,2.57 4.87,0.82 9.51,2.609 13.66,5.238 3.18,2.254 5.63,5.383 7.06,9 1.62,4.293 2.51,8.832 2.62,13.422 0.28,5.199 0.41,11.449 0.41,18.73 0,7.27 -0.13,13.098 -0.41,17.5 -0.1,4.211 -0.99,8.372 -2.62,12.25 -1.48,3.309 -3.94,6.09 -7.06,7.93 -4.24,2.34 -8.86,3.899 -13.66,4.61 -7.4,1.242 -14.89,1.949 -22.4,2.109 -9.06,0.301 -20.2,0.461 -33.44,0.461 H 1495.7 v -94.52" /><path
         id="path28"
         style="fill:none;stroke:#171717;stroke-width:10;stroke-linecap:butt;stroke-linejoin:miter;stroke-miterlimit:10;stroke-dasharray:none;stroke-opacity:1"
         d="m 1739.13,203.859 h -29.82 v 44.7 c 0,7.23 -0.13,13.472 -0.41,18.73 -0.12,4.59 -1.01,9.121 -2.62,13.422 -1.43,3.617 -3.88,6.738 -7.06,8.98 -4.16,2.649 -8.79,4.43 -13.66,5.25 -7.39,1.418 -14.88,2.278 -22.4,2.571 -9.06,0.468 -20.2,0.707 -33.44,0.707 h -134.2 v -94.418 h -29.81 v 238.48 h 168.74 c 15.37,0.117 30.73,-0.511 46.04,-1.929 10.45,-0.903 20.8,-2.864 30.86,-5.84 6.85,-1.922 13.24,-5.192 18.79,-9.621 4.27,-3.641 7.57,-8.27 9.63,-13.481 2.11,-5.609 3.31,-11.512 3.57,-17.5 0.34,-6.43 0.51,-13.531 0.51,-21.301 0.1,-8.757 -0.6,-17.507 -2.1,-26.14 -1.12,-6.77 -3.52,-13.258 -7.06,-19.141 -3.27,-5.258 -7.8,-9.598 -13.18,-12.656 -6.42,-3.481 -13.42,-5.711 -20.65,-6.602 7,-0.808 13.76,-3.031 19.89,-6.531 4.9,-2.937 8.92,-7.129 11.67,-12.141 2.84,-5.457 4.66,-11.386 5.37,-17.5 0.94,-7.75 1.39,-15.539 1.34,-23.339 z M 1495.7,323.07 h 138.92 c 13.24,0 24.38,0.231 33.44,0.7 7.52,0.3 15.01,1.14 22.4,2.57 4.87,0.82 9.51,2.609 13.66,5.238 3.18,2.254 5.63,5.383 7.06,9 1.62,4.293 2.51,8.832 2.62,13.422 0.28,5.199 0.41,11.449 0.41,18.73 0,7.27 -0.13,13.098 -0.41,17.5 -0.1,4.211 -0.99,8.372 -2.62,12.25 -1.48,3.309 -3.94,6.09 -7.06,7.93 -4.24,2.34 -8.86,3.899 -13.66,4.61 -7.4,1.242 -14.89,1.949 -22.4,2.109 -9.06,0.301 -20.2,0.461 -33.44,0.461 H 1495.7 Z" /><path
         id="path30"
         style="fill:#171717;fill-opacity:1;fill-rule:nonzero;stroke:none"
         d="m 1857.35,442.281 v -238.48 h 238.47 v 24.859 h -208.66 v 84.488 h 198.73 v 24.801 h -198.73 v 79.52 h 208.66 v 24.812 h -238.47" /><path
         id="path32"
         style="fill:none;stroke:#171717;stroke-width:10;stroke-linecap:butt;stroke-linejoin:miter;stroke-miterlimit:10;stroke-dasharray:none;stroke-opacity:1"
         d="m 1857.35,442.281 v -238.48 h 238.47 v 24.859 h -208.66 v 84.488 h 198.73 v 24.801 h -198.73 v 79.52 h 208.66 v 24.812 z" /><path
         id="path34"
         style="fill:#ec1c26;fill-opacity:1;fill-rule:nonzero;stroke:none"
         d="m 2432.31,203.801 v 238.48 h 178.67 c 15.4,0.188 30.8,-0.883 46.04,-3.211 10.75,-1.57 21.2,-4.84 30.93,-9.691 7.5,-3.801 13.95,-9.399 18.77,-16.277 4.64,-7.114 7.9,-15.032 9.63,-23.34 2.14,-9.864 3.33,-19.903 3.57,-29.992 0.35,-11.122 0.53,-23.481 0.53,-37.051 0,-13.578 -0.18,-25.91 -0.53,-36.989 -0.25,-10.07 -1.44,-20.089 -3.57,-29.941 -1.72,-8.309 -4.99,-16.23 -9.63,-23.34 -4.82,-6.879 -11.27,-12.48 -18.77,-16.281 -9.73,-4.848 -20.18,-8.117 -30.93,-9.68 -15.24,-2.34 -30.64,-3.41 -46.04,-3.207 z m 178.67,24.859 c 13.15,0 24.27,0.371 33.37,1.11 7.68,0.441 15.26,1.929 22.53,4.429 5.55,1.789 10.46,5.153 14.12,9.692 3.55,5.039 5.96,10.789 7.05,16.859 1.67,8.5 2.55,17.129 2.63,25.801 0.27,10.179 0.41,22.359 0.41,36.519 0,14.16 -0.14,26.36 -0.41,36.578 -0.08,8.661 -0.96,17.301 -2.63,25.793 -1.1,6.047 -3.5,11.789 -7.05,16.809 -3.53,4.461 -8.28,7.82 -13.66,9.691 -7.25,2.5 -14.8,3.989 -22.46,4.43 -9.06,0.738 -20.21,1.098 -33.44,1.098 H 2462.36 V 228.66 h 148.62" /><path
         id="path36"
         style="fill:none;stroke:#ec1c26;stroke-width:10;stroke-linecap:butt;stroke-linejoin:miter;stroke-miterlimit:10;stroke-dasharray:none;stroke-opacity:1"
         d="m 2432.31,203.801 v 238.48 h 178.67 c 15.4,0.188 30.8,-0.883 46.04,-3.211 10.75,-1.57 21.2,-4.84 30.93,-9.691 7.5,-3.801 13.95,-9.399 18.77,-16.277 4.64,-7.114 7.9,-15.032 9.63,-23.34 2.14,-9.864 3.33,-19.903 3.57,-29.992 0.35,-11.122 0.53,-23.481 0.53,-37.051 0,-13.578 -0.18,-25.91 -0.53,-36.989 -0.25,-10.07 -1.44,-20.089 -3.57,-29.941 -1.72,-8.309 -4.99,-16.23 -9.63,-23.34 -4.82,-6.879 -11.27,-12.48 -18.77,-16.281 -9.73,-4.848 -20.18,-8.117 -30.93,-9.68 -15.24,-2.34 -30.64,-3.41 -46.04,-3.207 z m 178.67,24.859 c 13.15,0 24.27,0.371 33.37,1.11 7.68,0.441 15.26,1.929 22.53,4.429 5.55,1.789 10.46,5.153 14.12,9.692 3.55,5.039 5.96,10.789 7.05,16.859 1.67,8.5 2.55,17.129 2.63,25.801 0.27,10.179 0.41,22.359 0.41,36.519 0,14.16 -0.14,26.36 -0.41,36.578 -0.08,8.661 -0.96,17.301 -2.63,25.793 -1.1,6.047 -3.5,11.789 -7.05,16.809 -3.53,4.461 -8.28,7.82 -13.66,9.691 -7.25,2.5 -14.8,3.989 -22.46,4.43 -9.06,0.738 -20.21,1.098 -33.44,1.098 H 2462.36 V 228.66 Z" /><path
         id="path38"
         style="fill:#ec1c26;fill-opacity:1;fill-rule:nonzero;stroke:none"
         d="M 2950.16,442.34 2814.09,203.801 h 34.48 l 31.16,54.437 h 186.72 l 30.99,-54.668 h 31.27 l -135.78,238.711 z m 22.99,-19.731 79.06,-139.281 h -158.36 z" /><path
         id="path40"
         style="fill:none;stroke:#ec1c26;stroke-width:10;stroke-linecap:butt;stroke-linejoin:miter;stroke-miterlimit:10;stroke-dasharray:none;stroke-opacity:1"
         d="M 2950.16,442.34 2814.09,203.801 h 34.48 l 31.16,54.437 h 186.72 l 30.99,-54.668 h 31.27 l -135.78,238.711 z m 22.99,-19.731 79.06,-139.281 h -158.36 z" /><path
         id="path42"
         style="fill:#ec1c26;fill-opacity:1;fill-rule:nonzero;stroke:none"
         d="M 3178.54,442.281 V 417.469 H 3297.8 V 203.801 h 29.82 v 213.668 h 119.2 v 24.812 h -268.28" /><path
         id="path44"
         style="fill:none;stroke:#ec1c26;stroke-width:10;stroke-linecap:butt;stroke-linejoin:miter;stroke-miterlimit:10;stroke-dasharray:none;stroke-opacity:1"
         d="M 3178.54,442.281 V 417.469 H 3297.8 V 203.801 h 29.82 v 213.668 h 119.2 v 24.812 z" /><path
         id="path46"
         style="fill:#ec1c26;fill-opacity:1;fill-rule:nonzero;stroke:none"
         d="m 3616.91,442.281 -136.06,-238.48 h 34.54 l 31.1,54.437 h 186.71 l 30.99,-54.668 h 31.27 l -135.78,238.711 z m 22.99,-19.672 79,-139.281 h -158.3 z" /><path
         id="path48"
         style="fill:none;stroke:#ec1c26;stroke-width:10;stroke-linecap:butt;stroke-linejoin:miter;stroke-miterlimit:10;stroke-dasharray:none;stroke-opacity:1"
         d="m 3616.91,442.281 -136.06,-238.48 h 34.54 l 31.1,54.437 h 186.71 l 30.99,-54.668 h 31.27 l -135.78,238.711 z m 22.99,-19.672 79,-139.281 h -158.3 z" /><path
         id="path50"
         style="fill:#ec1c26;fill-opacity:1;fill-rule:nonzero;stroke:none"
         d="m 356.617,428.629 c 0,11.672 5.164,17.5 15.52,17.5 h 186.304 c 10.344,0 15.52,-5.828 15.52,-17.5 0,-11.668 -5.176,-17.508 -15.52,-17.508 H 372.137 c -10.356,0 -15.52,5.84 -15.52,17.508 m 0,-103.75 c 0,11.672 5.164,17.512 15.52,17.512 h 186.304 c 10.344,0 15.52,-5.84 15.52,-17.512 0,-11.668 -5.176,-17.5 -15.52,-17.5 H 372.137 c -10.356,0 -15.52,5.832 -15.52,17.5 m 0,-103.738 c 0,11.668 5.164,17.5 15.52,17.5 h 186.304 c 10.344,0 15.52,-5.832 15.52,-17.5 0,-11.672 -5.176,-17.512 -15.52,-17.512 H 372.137 c -10.356,0 -15.52,5.84 -15.52,17.512" /><path
         id="path52"
         style="fill:#171717;fill-opacity:1;fill-rule:nonzero;stroke:none"
         d="M 43.6289,2.03125 V 96.7891 H 10.1406 v 7.9999 H 85.9922 V 96.7891 H 52.6133 V 2.03125 h -8.9844" /><path
         id="path54"
         style="fill:#171717;fill-opacity:1;fill-rule:nonzero;stroke:none"
         d="m 210.797,74.7383 c 0.351,11.8203 -8.953,21.6836 -20.774,22.0312 -0.679,0.0196 -1.355,0.0118 -2.039,-0.039 H 159.332 V 52.5 h 28.828 c 11.863,-0.7109 22.07,8.3281 22.793,20.1992 0.039,0.6797 0.051,1.3594 0.02,2.0391 z m 0,-72.70705 -28.82,42.53905 H 159.332 V 2.03125 h -8.75 V 104.789 h 38.34 c 17.5,0 31.269,-11.2577 31.269,-30.0507 0.711,-15.6172 -11.367,-28.8477 -26.98,-29.5586 -0.5,-0.0195 -0.996,-0.0313 -1.496,-0.0313 L 221.422,2.03125 h -10.625" /><path
         id="path56"
         style="fill:#171717;fill-opacity:1;fill-rule:nonzero;stroke:none"
         d="m 288.285,41.4805 v 63.3085 h 8.93 V 41.6484 c 0,-20.7695 10.965,-33.42965 31.101,-33.42965 20.125,0 31.094,12.66015 31.094,33.42965 v 63.1406 h 8.938 V 41.4805 c 0,-25.4414 -13.547,-41.250031 -40.032,-41.250031 -26.496,0 -40.031,15.980431 -40.031,41.250031" /><path
         id="path58"
         style="fill:#171717;fill-opacity:1;fill-rule:nonzero;stroke:none"
         d="m 434.566,16.5117 5.84,6.5899 c 7.949,-9.461 19.668,-14.92972 32.032,-14.94144 21.121,0 27.128,11.66794 27.128,20.48824 0,30.1602 -61.613,14.461 -61.613,50.3516 0,16.8008 15.11,27.422 33.723,27.422 13.254,0.687 26.113,-4.633 35.008,-14.4728 l -5.829,-6.4804 C 493.602,94 482.867,98.7695 471.676,98.4297 c -13.711,0 -24.043,-7.8789 -24.043,-18.9609 0,-26.3204 61.621,-11.668 61.621,-50.25 0,-13.2383 -8.75,-29.1680187 -36.524,-29.1680187 C 458.148,-0.648438 444.066,5.42188 434.566,16.5117" /><path
         id="path60"
         style="fill:#171717;fill-opacity:1;fill-rule:nonzero;stroke:none"
         d="M 601.559,2.03125 V 96.7891 h -33.606 v 7.9999 h 75.852 V 96.7891 H 610.262 V 2.03125 h -8.703" /><path
         id="path62"
         style="fill:#171717;fill-opacity:1;fill-rule:nonzero;stroke:none"
         d="M 708.453,2.03125 V 104.789 H 773.57 V 96.7891 H 717.215 V 58.75 h 55.308 v -8 H 717.215 V 9.91016 H 773.57 V 1.92188 l -65.117,0.10937" /><path
         id="path64"
         style="fill:#171717;fill-opacity:1;fill-rule:nonzero;stroke:none"
         d="m 916.938,53.3203 c 0,24.0508 -15.411,43.4102 -42.657,43.4102 H 850.238 V 10.0898 h 24.043 c 27.071,0 42.715,19.25 42.715,43.2305 z M 841.488,2.03125 V 104.789 h 32.793 c 28.379,0 51.379,-23.0077 51.379,-51.3788 0,-28.3789 -23,-51.37895 -51.379,-51.37895 h -32.793" /><path
         id="path66"
         style="fill:#171717;fill-opacity:1;fill-rule:nonzero;stroke:none"
         d="m 1076.4,53.3203 c -1.2,28.1797 20.67,51.9887 48.84,53.1917 1.11,0.047 2.22,0.058 3.33,0.027 14.66,0.199 28.55,-6.5585 37.46,-18.2109 l -7.41,-4.7773 c -7.09,9.4492 -18.23,14.9883 -30.05,14.9375 -24.16,0 -42.83,-18.3281 -42.83,-45.168 0,-26.832 18.61,-45.10155 42.83,-45.10155 11.82,-0.04687 22.96,5.48045 30.05,14.94145 l 7.41,-4.6094 C 1157.18,6.80859 1143.27,0 1128.57,0.230469 c -28.19,-0.640625 -51.56,21.699231 -52.2,49.890631 -0.02,1.0586 -0.01,2.1406 0.03,3.1992" /><path
         id="path68"
         style="fill:#171717;fill-opacity:1;fill-rule:nonzero;stroke:none"
         d="M 1258.45,2.03125 V 45.9688 l -40.84,58.8202 h 10.5 l 35.01,-50.7577 34.66,50.5197 h 10.62 L 1267.55,45.7383 V 1.85938 l -9.1,0.17187" /><path
         id="path70"
         style="fill:#171717;fill-opacity:1;fill-rule:nonzero;stroke:none"
         d="m 1432.8,30.6289 c 0.23,11.0117 -8.52,20.1328 -19.53,20.3594 -0.69,0.0234 -1.38,0 -2.06,-0.0586 h -32.97 V 10.0898 h 32.97 c 13.59,0 21.59,7.8086 21.59,20.6016 z m -1.98,47.25 c 0.36,10.2227 -7.62,18.793 -17.83,19.1524 -0.79,0.0273 -1.58,0.0078 -2.36,-0.0625 H 1378.3 V 58.9297 h 32.33 c 10.07,-1.0078 19.04,6.3398 20.04,16.4101 0.08,0.7696 0.11,1.5391 0.09,2.3204 z M 1369.49,2.03125 V 104.789 h 42.19 c 17.51,0 28.36,-10.039 28.36,-26.1992 0.29,-11.0781 -7.25,-20.8203 -18.03,-23.3398 11.76,-2.7109 20.07,-13.1992 20.01,-25.2695 0,-17.1016 -11.09,-27.71097 -29.17,-27.71097 l -43.36,-0.23828" /><path
         id="path72"
         style="fill:#171717;fill-opacity:1;fill-rule:nonzero;stroke:none"
         d="M 1510.23,2.03125 V 104.789 h 65.18 v -7.9999 h -56.37 V 58.75 h 55.31 v -8 h -55.31 V 9.91016 h 56.37 V 1.92188 l -65.18,0.10937" /><path
         id="path74"
         style="fill:#171717;fill-opacity:1;fill-rule:nonzero;stroke:none"
         d="m 1703.54,74.7383 c 0.34,11.8203 -8.95,21.6836 -20.78,22.0312 -0.67,0.0196 -1.36,0.0118 -2.04,-0.039 H 1651.9 V 52.5 h 28.82 c 11.86,-0.8086 22.15,8.1484 22.96,20.0117 0.05,0.7383 0.06,1.4883 0.04,2.2266 z m 0,-72.70705 -28.83,42.53905 h -22.63 V 2.03125 h -8.75 V 104.789 h 38.33 c 17.51,0 31.28,-11.2577 31.28,-30.0507 0.7,-15.6172 -11.38,-28.8477 -27,-29.5586 -0.48,-0.0195 -0.98,-0.0313 -1.48,-0.0313 l 29.7,-43.11715 h -10.62" /><path
         id="path76"
         style="fill:#171717;fill-opacity:1;fill-rule:nonzero;stroke:none"
         d="m 1775.31,16.5117 5.83,6.5899 c 7.96,-9.461 19.68,-14.92972 32.04,-14.94144 21.11,0 27.13,11.66794 27.13,20.48824 0,30.1602 -61.62,14.461 -61.62,50.3516 0,16.8008 15.11,27.422 33.73,27.422 13.25,0.687 26.11,-4.633 35.01,-14.4728 l -5.84,-6.4804 c -7.25,8.5312 -17.98,13.3007 -29.17,12.9609 -13.71,0 -24.05,-7.8789 -24.05,-18.9609 0,-26.3204 61.63,-11.668 61.63,-50.25 0,-13.2383 -8.76,-29.1680187 -36.54,-29.1680187 C 1798.89,-0.648438 1784.8,5.42188 1775.31,16.5117" /><path
         id="path78"
         style="fill:#171717;fill-opacity:1;fill-rule:nonzero;stroke:none"
         d="M 1916.63,2.03125 V 104.789 h 65.17 v -7.9999 h -56.36 V 58.75 h 55.37 v -8 h -55.32 V 9.91016 h 56.37 V 1.92188 l -65.23,0.10937" /><path
         id="path80"
         style="fill:#171717;fill-opacity:1;fill-rule:nonzero;stroke:none"
         d="m 2045.92,53.3203 c -1.19,28.1797 20.68,51.9887 48.85,53.1797 1.07,0.051 2.14,0.059 3.2,0.039 14.67,0.199 28.57,-6.5585 37.47,-18.2109 l -7.42,-4.7773 c -7.09,9.4492 -18.23,14.9883 -30.05,14.9375 -24.15,0 -42.82,-18.3281 -42.82,-45.168 0,-26.832 18.62,-45.10155 42.82,-45.10155 11.82,-0.04687 22.96,5.48045 30.05,14.94145 l 7.42,-4.6094 C 2126.59,6.80859 2112.67,0 2097.97,0.230469 c -28.19,-0.582032 -51.5,21.808631 -52.08,50.007831 -0.02,1.0234 -0.01,2.0625 0.03,3.082" /><path
         id="path82"
         style="fill:#171717;fill-opacity:1;fill-rule:nonzero;stroke:none"
         d="m 2199.5,41.4805 v 63.3085 h 8.87 V 41.6484 c 0,-20.7695 10.97,-33.42965 31.1,-33.42965 20.14,0 31.1,12.66015 31.1,33.42965 v 63.1406 h 8.93 V 41.4805 c 0,-25.4414 -13.54,-41.250031 -40.03,-41.250031 -26.49,0 -39.97,15.980431 -39.97,41.250031" /><path
         id="path84"
         style="fill:#171717;fill-opacity:1;fill-rule:nonzero;stroke:none"
         d="m 2411.6,74.7383 c 0.35,11.8203 -8.96,21.6836 -20.77,22.0312 -0.69,0.0196 -1.36,0.0118 -2.04,-0.039 h -28.72 V 52.5 h 28.83 c 11.88,-0.7109 22.07,8.3281 22.8,20.1992 0.03,0.6797 0.04,1.3594 0.01,2.0391 z m 0,-72.70705 -28.82,42.53905 h -22.71 V 2.03125 h -8.75 V 104.789 h 38.34 c 17.5,0 31.27,-11.2577 31.27,-30.0507 0.72,-15.6172 -11.36,-28.8477 -26.98,-29.5586 -0.5,-0.0195 -0.99,-0.0313 -1.48,-0.0313 l 29.69,-43.11715 h -10.56" /><path
         id="path86"
         style="fill:#171717;fill-opacity:1;fill-rule:nonzero;stroke:none"
         d="M 2489.03,2.03125 V 104.789 h 8.75 V 2.03125 h -8.75" /><path
         id="path88"
         style="fill:#171717;fill-opacity:1;fill-rule:nonzero;stroke:none"
         d="M 2595.81,2.03125 V 96.7891 h -33.55 v 7.9999 h 75.85 v -7.9999 h -33.55 V 2.03125 h -8.75" /><path
         id="path90"
         style="fill:#171717;fill-opacity:1;fill-rule:nonzero;stroke:none"
         d="M 2733.04,2.03125 V 45.9688 l -40.84,58.8202 h 10.62 l 34.66,-50.7577 34.65,50.5197 h 10.63 L 2741.91,45.7383 V 1.85938 l -8.87,0.17187" /><path
         id="path92"
         style="fill:#171717;fill-opacity:1;fill-rule:nonzero;stroke:none"
         d="M 2930.14,2.03125 V 104.789 h 65.18 v -7.9999 h -56.36 V 58.75 h 55.31 v -8 h -55.31 V 9.91016 h 56.36 V 1.92188 l -65.18,0.10937" /><path
         id="path94"
         style="fill:#171717;fill-opacity:1;fill-rule:nonzero;stroke:none"
         d="m 3136.12,2.03125 -36.07,46.16015 -35.7,-46.39062 h -11.08 l 41.42,52.51952 -39.16,50.0587 h 11.27 l 33.25,-43.5899 33.44,43.5899 h 11.09 l -38.98,-49.8907 41.31,-52.80861 -10.79,0.35156" /><path
         id="path96"
         style="fill:#171717;fill-opacity:1;fill-rule:nonzero;stroke:none"
         d="m 3268.98,74.7383 c 0.41,11.75 -8.79,21.6133 -20.55,22.0234 -0.69,0.0274 -1.39,0.0196 -2.09,-0.0312 h -28.53 V 52.6797 h 28.82 c 11.74,-0.5899 21.74,8.4609 22.34,20.1992 0.03,0.6211 0.03,1.2422 0.01,1.8594 z M 3208.77,2.03125 V 104.789 h 38.5 c 16.58,0.731 30.62,-12.1171 31.35,-28.6992 0.73,-16.5781 -12.12,-30.6093 -28.7,-31.3398 -0.88,-0.0391 -1.77,-0.0391 -2.65,0 h -29.46 V 2.08984 l -9.04,-0.05859" /><path
         id="path98"
         style="fill:#171717;fill-opacity:1;fill-rule:nonzero;stroke:none"
         d="M 3342.91,2.03125 V 104.789 h 65.17 v -7.9999 h -56.37 V 58.75 h 55.32 v -8 h -55.32 V 9.91016 h 56.37 V 1.92188 l -65.17,0.10937" /><path
         id="path100"
         style="fill:#171717;fill-opacity:1;fill-rule:nonzero;stroke:none"
         d="m 3536.22,74.7383 c 0.35,11.8203 -8.96,21.6836 -20.77,22.0312 -0.69,0.0196 -1.37,0.0118 -2.05,-0.039 h -28.82 V 52.5 h 28.82 c 11.87,-0.8086 22.14,8.1484 22.95,20.0117 0.05,0.7383 0.06,1.4883 0.04,2.2266 z m 0,-72.70705 -28.83,42.53905 h -22.64 V 2.03125 H 3476 V 104.789 h 38.33 c 17.51,0 31.28,-11.2577 31.28,-30.0507 0.71,-15.6172 -11.38,-28.8477 -26.98,-29.5586 -0.5,-0.0195 -1,-0.0313 -1.5,-0.0313 l 29.7,-43.11715 h -10.61" /><path
         id="path102"
         style="fill:#171717;fill-opacity:1;fill-rule:nonzero;stroke:none"
         d="M 3638.33,2.03125 V 96.7891 h -33.56 v 7.9999 h 75.86 v -7.9999 h -33.38 V 2.03125 h -8.92" /><path
         id="path104"
         style="fill:#171717;fill-opacity:1;fill-rule:nonzero;stroke:none"
         d="m 3739.21,16.5117 5.83,6.5899 c 7.95,-9.461 19.68,-14.92972 32.04,-14.94144 21.12,0 27.13,11.66794 27.13,20.48824 0,30.1602 -61.62,14.461 -61.62,50.3516 0,16.8008 15.12,27.422 33.73,27.422 13.26,0.687 26.11,-4.633 35.01,-14.4728 l -5.84,-6.4804 c -7.24,8.5312 -17.98,13.3007 -29.17,12.9609 -13.71,0 -24.04,-7.8789 -24.04,-18.9609 0,-26.3204 61.62,-11.668 61.62,-50.25 0,-13.2383 -8.76,-29.1680187 -36.53,-29.1680187 C 3762.79,-0.648438 3748.71,5.42188 3739.21,16.5117" /><path
         id="path106"
         style="fill:#ec1c26;fill-opacity:1;fill-rule:nonzero;stroke:none"
         d="m 2319.76,272.719 h -0.88 c -1.97,0.461 -3.2,2.429 -2.74,4.41 0,0 0,0.012 0,0.019 1.28,5.27 1.93,10.672 1.93,16.102 v 75.441 c 0.2,16.137 -5.63,31.758 -16.34,43.829 -19.13,21.8 -52.31,23.968 -74.11,4.839 -1.72,-1.507 -3.33,-3.129 -4.84,-4.839 -10.78,-12.059 -16.67,-27.7 -16.5,-43.879 v -45.282 0 c -0.13,-4.121 -0.6,-8.211 -1.41,-12.25 -0.84,-7.347 -4.3,-14.14 -9.75,-19.14 -5.48,-4.328 -12.56,-6.078 -19.42,-4.789 -3.13,0.57 -6.11,1.718 -8.81,3.39 l 4.08,6.121 c 6.17,-3.679 13.97,-3.222 19.66,1.168 3.92,3.95 6.37,9.121 6.94,14.653 0.71,3.597 1.12,7.25 1.23,10.91 v 45.269 c -0.16,18.02 6.42,35.43 18.44,48.84 5.71,6.278 12.61,11.34 20.3,14.879 15.71,7.32 33.84,7.32 49.55,0 7.63,-3.558 14.48,-8.621 20.12,-14.879 12.02,-13.41 18.61,-30.82 18.44,-48.84 V 293.25 c -0.01,-5.891 -0.71,-11.77 -2.1,-17.512 -0.32,-1.808 -1.94,-3.109 -3.79,-3.019" /><path
         id="path108"
         style="fill:#ec1c26;fill-opacity:1;fill-rule:nonzero;stroke:none"
         d="m 2260.59,285.32 c -3.7,0.008 -7.37,0.578 -10.91,1.692 -8.98,2.758 -16.31,9.297 -20.06,17.906 -0.84,1.863 -0.02,4.043 1.83,4.883 1.86,0.84 4.03,0.008 4.87,-1.84 2.89,-6.742 8.62,-11.84 15.64,-13.941 3.16,-1.008 6.48,-1.438 9.8,-1.29 h 0.36 c 21.75,0 39.5,19.61 39.5,43.7 v 29.179 c 0,24.09 -17.51,43.7 -39.5,43.7 -22.01,0 -39.51,-19.61 -39.51,-43.7 v -42.718 c 0.01,-5.18 -0.44,-10.36 -1.34,-15.461 -0.9,-6.469 -3.64,-12.539 -7.88,-17.512 -1.42,-1.457 -3.76,-1.496 -5.22,-0.078 -1.46,1.422 -1.5,3.762 -0.09,5.219 2.16,2.222 7.12,9.402 7.12,28.011 v 42.891 c -0.12,13.269 4.73,26.109 13.59,36 16.06,18.359 43.96,20.238 62.33,4.187 1.49,-1.296 2.89,-2.699 4.19,-4.187 8.87,-9.891 13.72,-22.731 13.59,-36 v -29.18 c 0.13,-13.269 -4.72,-26.109 -13.59,-36 -8.39,-9.5 -20.41,-15 -33.09,-15.109 l -1.63,-0.352" /><path
         id="path110"
         style="fill:#ec1c26;fill-opacity:1;fill-rule:nonzero;stroke:none"
         d="m 2262.06,387.309 c -13.41,-0.75 -23.69,-12.2 -23,-25.618 V 342.5 c -2.32,-12.68 6.09,-24.84 18.77,-27.16 12.68,-2.309 24.84,6.101 27.16,18.769 0.5,2.782 0.5,5.621 0,8.391 v 19.25 c 0.69,13.398 -9.55,24.828 -22.93,25.621 z m 0,-77.719 c -17.46,0.789 -31.01,15.512 -30.35,32.969 v 19.191 c -1.47,16.762 10.92,31.531 27.68,33.012 16.76,1.468 31.53,-10.922 33.01,-27.684 0.14,-1.769 0.14,-3.547 0,-5.328 v -19.191 c 0.65,-17.457 -12.89,-32.18 -30.34,-32.969" /><path
         id="path112"
         style="fill:#ec1c26;fill-opacity:1;fill-rule:nonzero;stroke:none"
         d="m 2262.06,367.18 c -3.85,-0.282 -6.75,-3.621 -6.49,-7.469 v -14.582 c -0.48,-3.578 2.03,-6.879 5.61,-7.348 3.58,-0.48 6.87,2.028 7.35,5.598 0.08,0.582 0.08,1.16 0,1.75 v 14.582 c 0.24,3.828 -2.66,7.129 -6.47,7.41 z m 0,-36.93 c -7.9,0.309 -14.07,6.922 -13.83,14.82 v 14.578 c -0.5,7.661 5.3,14.274 12.95,14.762 7.65,0.488 14.27,-5.308 14.76,-12.949 0.04,-0.609 0.04,-1.199 0,-1.813 V 345.07 c 0.23,-7.922 -5.97,-14.539 -13.88,-14.82" /><path
         id="path114"
         style="fill:#ec1c26;fill-opacity:1;fill-rule:nonzero;stroke:none"
         d="m 2262.06,204.148 c -20.57,0.082 -40.21,8.512 -54.45,23.34 -1.43,1.461 -1.41,3.793 0.03,5.231 1.45,1.429 3.79,1.41 5.23,-0.028 25.62,-27.211 68.46,-28.5 95.67,-2.863 1.71,1.613 3.33,3.301 4.86,5.07 13.94,15.563 21.56,35.782 21.35,56.672 v 78.942 c 0.28,20.988 -7.34,41.308 -21.35,56.937 -24.54,28.25 -67.32,31.25 -95.57,6.723 -2.39,-2.082 -4.64,-4.32 -6.72,-6.723 -13.94,-15.551 -21.55,-35.769 -21.35,-56.648 v -41.262 c 0.18,-2.648 0.18,-5.328 0,-7.98 -0.11,-4.848 -1.77,-9.539 -4.72,-13.368 -1.67,-1.82 -4.02,-2.863 -6.49,-2.863 -3.73,0 -8.63,1.692 -10.67,9.684 -1.12,5.769 -1.62,11.636 -1.52,17.508 0,1.929 0,3.91 0,5.832 0,2.027 1.64,3.679 3.68,3.679 2.03,0 3.68,-1.652 3.68,-3.679 0,-2.043 0,-4.082 0,-5.832 -0.26,-5.321 0.02,-10.661 0.81,-15.93 1.05,-4.141 2.57,-4.141 3.56,-4.141 0.43,0 0.83,0.199 1.11,0.52 2.52,4.953 3.56,10.531 2.97,16.051 v 41.492 c -0.03,11.578 2.09,23.078 6.24,33.898 3.91,10.231 9.68,19.66 17.05,27.77 7.15,7.84 15.8,14.172 25.43,18.609 19.79,9.231 42.65,9.231 62.44,0 9.63,-4.5 18.26,-10.891 25.38,-18.789 7.36,-8.109 13.14,-17.52 17.04,-27.77 4.15,-10.82 6.27,-22.308 6.24,-33.902 v -78.816 c 0.03,-11.602 -2.09,-23.09 -6.24,-33.91 -3.9,-10.231 -9.68,-19.661 -17.04,-27.774 -7.12,-7.887 -15.75,-14.277 -25.38,-18.789 -9.8,-4.559 -20.47,-6.918 -31.27,-6.891" /><path
         id="path116"
         style="fill:#ec1c26;fill-opacity:1;fill-rule:nonzero;stroke:none"
         d="m 2354.77,285.488 c -2.03,0 -3.68,1.653 -3.68,3.684 v 0 83.258 c 0.03,13.09 -2.36,26.07 -7.06,38.281 -4.33,11.488 -10.75,22.078 -18.96,31.219 -7.94,8.8 -17.56,15.922 -28.3,20.941 -21.88,10.199 -47.15,10.199 -69.03,0 -10.73,-5.019 -20.35,-12.141 -28.29,-20.941 -8.27,-9.121 -14.77,-19.711 -19.14,-31.219 -4.66,-12.223 -7.01,-25.199 -6.94,-38.281 v -34.141 c 0,-2.039 -1.66,-3.699 -3.72,-3.699 -2.04,0 -3.7,1.66 -3.7,3.699 v 34.141 c -0.03,13.961 2.53,27.808 7.53,40.84 4.72,12.359 11.7,23.718 20.6,33.5 8.59,9.531 19,17.261 30.63,22.699 23.86,11.121 51.41,11.121 75.27,0 11.63,-5.438 22.04,-13.168 30.63,-22.699 8.9,-9.782 15.88,-21.141 20.6,-33.5 5,-13.032 7.56,-26.879 7.53,-40.84 v -83.258 c 0.01,-2.031 -1.63,-3.684 -3.67,-3.692 -0.1,0 -0.2,0 -0.3,0.008" /><path
         id="path118"
         style="fill:#ec1c26;fill-opacity:1;fill-rule:nonzero;stroke:none"
         d="m 2262.06,183.668 c -29.04,0.352 -56.24,14.16 -73.65,37.41 -1.24,1.613 -0.93,3.922 0.68,5.16 1.61,1.242 3.92,0.942 5.16,-0.668 15.98,-21.461 41.05,-34.23 67.81,-34.539 16.66,0.008 32.93,5.059 46.68,14.469 13.89,9.559 25.01,22.66 32.2,37.922 0.88,1.84 3.09,2.609 4.93,1.726 1.84,-0.886 2.61,-3.097 1.72,-4.929 -7.84,-16.489 -19.92,-30.59 -35.01,-40.848 -14.89,-10.172 -32.5,-15.641 -50.52,-15.703" /><path
         id="path120"
         style="fill:#ec1c26;fill-opacity:1;fill-rule:nonzero;stroke:none"
         d="m 2178.09,302.941 c -3.32,-0.113 -6.52,1.207 -8.82,3.618 -1.93,2.14 -3.28,4.761 -3.9,7.582 -1.16,5.918 -1.68,11.949 -1.58,17.968 0,1.93 0,3.911 0,5.84 -0.11,3.219 2.41,5.922 5.63,6.039 3.22,0.114 5.93,-2.418 6.04,-5.636 0,-2.043 0,-4.082 0,-5.832 0.01,-4.442 0.28,-8.879 0.82,-13.301 0.58,-3.86 1.52,-4.61 1.52,-4.61 h 0.47 c 3.22,0 5.83,-2.621 5.83,-5.839 0,-3.219 -2.61,-5.829 -5.83,-5.829 h -0.18" /><path
         id="path122"
         style="fill:#ec1c26;fill-opacity:1;fill-rule:nonzero;stroke:none"
         d="m 2354.77,283.391 c -3.22,0 -5.84,2.621 -5.84,5.839 v 83.2 c 0.06,12.832 -2.25,25.539 -6.82,37.519 -4.29,11.27 -10.64,21.629 -18.74,30.582 -7.7,8.578 -17.05,15.547 -27.48,20.481 -21.31,9.937 -45.95,9.937 -67.27,0 -10.5,-4.91 -19.9,-11.883 -27.66,-20.481 -8.15,-8.929 -14.57,-19.301 -18.9,-30.582 -4.6,-11.988 -6.94,-24.73 -6.89,-37.57 v -34.141 c 0,-3.218 -2.62,-5.84 -5.84,-5.84 -3.22,0 -5.83,2.622 -5.83,5.84 v 34.192 c -0.05,14.261 2.54,28.398 7.65,41.718 4.81,12.59 11.93,24.161 21,34.133 8.75,9.797 19.39,17.739 31.27,23.34 24.42,11.391 52.61,11.391 77.03,0 11.88,-5.601 22.51,-13.543 31.27,-23.34 9.07,-9.972 16.19,-21.543 21.01,-34.133 5.1,-13.32 7.69,-27.457 7.64,-41.718 v -83.258 c -0.03,-3.113 -2.49,-5.652 -5.6,-5.781" /><path
         id="path124"
         style="fill:#ec1c26;fill-opacity:1;fill-rule:nonzero;stroke:none"
         d="m 2262.06,181.398 c -3.23,0 -5.84,2.614 -5.84,5.832 0,3.219 2.61,5.84 5.84,5.84 9.65,0 19.22,1.758 28.23,5.192 8.92,3.398 17.18,8.297 24.45,14.468 7.46,6.34 13.89,13.84 19.03,22.168 5.28,8.704 9.21,18.141 11.67,28.012 1.3,2.942 4.75,4.27 7.7,2.961 2.27,-1.012 3.64,-3.351 3.44,-5.82 -2.82,-11.02 -7.31,-21.551 -13.3,-31.211 -5.78,-9.34 -12.99,-17.699 -21.36,-24.801 -8.26,-7 -17.66,-12.539 -27.77,-16.398 -10.24,-4 -21.11,-6.121 -32.09,-6.243" /><path
         id="path126"
         style="fill:#ec1c26;fill-opacity:1;fill-rule:nonzero;stroke:none"
         d="m 2354.77,283.16 c -3.22,0 -5.84,2.61 -5.84,5.84 v 83.199 c 0,3.223 2.62,5.832 5.84,5.832 3.22,0 5.83,-2.609 5.83,-5.832 v -83.258 c -0.03,-3.203 -2.64,-5.781 -5.83,-5.781" /><path
         id="path128"
         style="fill:#ec1c26;fill-opacity:1;fill-rule:nonzero;stroke:none"
         d="m 2262.06,181.629 c -29.68,0.312 -57.52,14.441 -75.28,38.223 -1.54,2.828 -0.49,6.367 2.34,7.918 2.19,1.199 4.93,0.859 6.76,-0.86 15.6,-20.941 40.06,-33.41 66.18,-33.719 16.24,0 32.1,4.899 45.5,14.059 13.61,9.359 24.48,22.172 31.51,37.109 1.85,2.629 5.5,3.282 8.13,1.422 2.03,-1.422 2.94,-3.992 2.26,-6.383 -7.94,-16.777 -20.18,-31.16 -35.48,-41.66 -15.29,-10.468 -33.39,-16.09 -51.92,-16.109" /><path
         id="path130"
         style="fill:#ec1c26;fill-opacity:1;fill-rule:nonzero;stroke:none"
         d="m 2262.06,346.531 c -2.03,0 -3.69,1.641 -3.69,3.668 v 0 5.84 c 0,2.039 1.67,3.699 3.72,3.699 2.04,0 3.7,-1.66 3.7,-3.699 v -5.84 c 0,-2.027 -1.64,-3.668 -3.67,-3.668 -0.02,0 -0.04,0 -0.06,0" /><path
         id="path132"
         style="fill:#ec1c26;fill-opacity:1;fill-rule:nonzero;stroke:none"
         d="m 2266.72,264.07 c -8.56,0.352 -16.94,2.532 -24.57,6.43 -3.98,1.93 -8.17,3.422 -12.48,4.43 -23.34,4.261 -55.2,-8.051 -55.55,-8.168 -1.9,-0.742 -4.05,0.207 -4.79,2.097 -0.73,1.903 0.21,4.039 2.11,4.789 1.4,0.524 34.43,13.192 59.57,8.582 4.88,-1.082 9.62,-2.742 14.12,-4.902 10.2,-5.769 22.3,-7.187 33.55,-3.918 7.57,2.18 14.48,6.192 20.13,11.672 2.3,2.18 4.26,4.668 5.83,7.406 0.91,1.84 3.13,2.602 4.97,1.692 1.83,-0.899 2.59,-3.11 1.68,-4.95 v 0 c -6.68,-11.359 -17.59,-19.621 -30.34,-23 -4.6,-1.429 -9.4,-2.16 -14.23,-2.16" /><path
         id="path134"
         style="fill:#ec1c26;fill-opacity:1;fill-rule:nonzero;stroke:none"
         d="m 2267.77,243.359 c -11.33,0.461 -22.41,3.45 -32.44,8.762 -4.14,2.07 -8.49,3.731 -12.95,4.949 -9.72,1.942 -19.77,1.328 -29.18,-1.75 -4.46,-1.34 -8.77,-3.179 -12.83,-5.468 -1.75,-1.071 -4.02,-0.524 -5.08,1.218 -1.07,1.739 -0.52,4.012 1.22,5.078 4.54,2.571 9.36,4.622 14.36,6.122 10.65,3.511 22.03,4.199 33.02,1.98 5,-1.309 9.85,-3.121 14.48,-5.418 11.02,-5.023 23.34,-10.684 40.84,-6.773 19.37,4.441 26.61,9.863 32.03,17.211 1.41,1.46 3.74,1.492 5.2,0.089 1.2,-1.168 1.47,-3.007 0.64,-4.461 -6.24,-8.457 -14.83,-15.058 -36.35,-20.007 -4.25,-1 -8.6,-1.512 -12.96,-1.532" /><path
         id="path136"
         style="fill:#ec1c26;fill-opacity:1;fill-rule:nonzero;stroke:none"
         d="m 2268.12,222.77 c -11.46,-0.309 -22.75,2.871 -32.38,9.101 -4.62,2.77 -9.48,5.117 -14.53,7 -14.76,5.309 -35.01,-4.492 -35.36,-4.609 -1.84,-0.891 -4.05,-0.121 -4.94,1.718 -0.87,1.84 -0.1,4.051 1.73,4.93 v 0 c 0.93,0.469 23.34,11.262 40.84,4.899 5.45,-2.028 10.71,-4.547 15.7,-7.528 8.51,-5.621 18.56,-8.472 28.77,-8.16 12,-0.312 23.59,4.359 32.03,12.891 1.31,1.609 3.67,1.867 5.28,0.558 1.61,-1.3 1.86,-3.672 0.56,-5.289 -9.83,-10.23 -23.51,-15.871 -37.7,-15.511" /><path
         id="path138"
         style="fill:#e5143c;fill-opacity:1;fill-rule:nonzero;stroke:none"
         d="m 1909.46,484.078 h 0.01 c -0.02,0.012 -0.04,0.031 -0.04,0.031 0,0 0.02,-0.019 0.03,-0.031" /><path
         id="path140"
         style="fill:#ed1834;fill-opacity:1;fill-rule:nonzero;stroke:none"
         d="m 2910.29,901.711 h 18.11 v 40.488 h 14.36 c 9.5,0 16.32,-0.98 20.2,-3.379 6.37,-3.82 9.64,-11.738 9.64,-23.582 v -8.277 l 0.34,-3.121 c 0.22,-0.61 0.22,-0.871 0.27,-1.25 0.11,-0.5 0.16,-0.66 0.5,-0.879 h 16.79 l -0.59,1.187 c -0.55,0.774 -0.82,2.524 -0.87,5.262 -0.22,2.828 -0.22,5.34 -0.22,7.629 v 7.641 c 0,5.242 -1.91,10.48 -5.62,15.992 -3.83,5.508 -9.83,8.726 -17.9,10.148 6.43,1.032 11.46,2.789 14.89,4.86 6.88,4.359 10.1,11.34 10.1,20.41 0,12.879 -5.13,21.719 -15.93,26.08 -5.96,2.4 -15.28,3.71 -28.1,3.71 h -35.97 z m 51.63,55.437 c -3.66,-1.578 -9.5,-2.277 -17.25,-2.277 h -16.27 v 37.43 h 15.51 c 10.03,0 17.35,-1.422 21.83,-3.93 4.64,-2.633 6.86,-7.641 6.86,-15.07 0,-7.973 -3.48,-13.199 -10.68,-16.153 z m 52.7,61.892 c -18.43,18.22 -40.53,27.28 -66.67,27.28 -25.6,0 -47.81,-9.06 -65.92,-27.28 -18.45,-18.29 -27.41,-40.438 -27.41,-66.419 0,-25.922 8.85,-48.18 27.08,-66.351 18.11,-18.5 40.43,-27.668 66.25,-27.668 26.14,0 48.24,9.168 66.67,27.668 18.18,18.281 27.51,40.601 27.51,66.351 0,26.141 -9.33,48.129 -27.51,66.419 z m -9.49,-9.34 c 15.83,-15.438 23.58,-34.649 23.58,-57.079 0,-22.211 -7.75,-41.582 -23.58,-57.402 -15.6,-15.719 -34.7,-23.739 -57.18,-23.739 -22.27,0 -41.37,8.02 -57.08,23.739 -15.5,15.82 -23.47,35.191 -23.47,57.402 0,22.43 7.97,41.641 23.47,57.079 15.98,16.1 34.98,23.96 57.08,23.96 22.43,0 41.41,-7.86 57.18,-23.96" /><path
         id="path142"
         style="fill:#ffffff;fill-opacity:1;fill-rule:nonzero;stroke:none"
         d="m 3050.47,1692.01 c 6.68,132.71 -17.83,275.67 -133.3,405.03 -118.69,127.91 -318.91,236.49 -730.81,261.8 21.4,66.76 40.11,127.91 59.87,190.41 246.25,-8.68 465.41,-26.41 652.01,-50.62 14.72,66.81 22.7,132.12 37.97,195.14 -19.03,27.75 -39.15,54.66 -60.3,80.73 -88.71,10.25 -177.14,32.42 -272.34,44.53 -128.71,16.61 -263.44,28.48 -409,35.2 -91.66,-273.03 -206.25,-616.57 -323.79,-971.61 612.72,-53.03 848.36,-218.13 835.11,-451.04 -12.19,-125.8 -127.22,-240.22 -278.48,-253.74 -179.92,-12.09 -262.29,60.59 -316.35,140.31 -47.61,71.63 -95.11,143.38 -145.83,221.57 -13.79,22.99 -31.97,8.05 -48.38,-7.98 -37.1,-36.01 -72.39,-70.05 -109.06,-105.18 -23.58,-20.52 -18.34,-38.14 -10.01,-55.33 34.26,-80.77 66.15,-154.81 98.38,-228.3 53.64,-32.88 305.79,-77.76 494.36,-63.64 127.79,10.72 287.57,60.15 419.62,159.63 130.52,101.07 225.62,237.43 240.33,453.09" /><path
         id="path144"
         style="fill:#ffffff;fill-opacity:1;fill-rule:nonzero;stroke:none"
         d="m 907.516,1254.11 c 23.586,-32 48.664,-62.81 75.136,-92.37 211.948,-38.12 476.268,-64.46 751.538,-72.49 -0.93,28.56 -1.75,56.31 -2.41,85.74 -169.04,9.53 -246.74,35.31 -260.26,68.74 -11.28,26.59 -13.24,66.27 -15.65,105.45 -12.7,259.65 -16.86,540.49 -12.48,822.37 94.67,1.64 188.69,2.41 287.46,3.56 47.88,21.81 92.92,43.39 140.69,64.74 0,34.12 0.21,64.67 0.21,98.01 -146.49,-0.72 -285.32,-3.02 -424.53,-7.02 3.94,118.51 8.59,227.87 15.55,334.58 5.03,70.1 53.51,121.35 103.58,125.37 80.28,3.12 152.35,-28.75 222.12,-59.76 38.47,-18.65 76.39,-37.18 115.79,-57.37 18.82,-5.09 41.16,-9.39 54.62,6.95 23.36,27.66 45.58,53.38 68.57,80.27 12.42,18.39 7.05,28.92 1.96,35.71 -50.07,39.54 -97.18,75.08 -144.84,110.82 -29.45,20 -75.9,24.26 -121.71,24.26 -18.27,0 -36.6,-0.66 -53.63,-1.2 -47.07,-2.46 -107.04,-10.02 -205.09,-33.9 -220.98,-59.46 -486.27,-213.61 -514.288,-465.49 -3.618,-41.13 -6.625,-81.88 -9.297,-123.93 -62.383,-5.25 -119.192,-9.77 -172.825,-14.91 -3.933,-48.19 -6.562,-94.44 -8.75,-143.29 54.29,3.17 110.918,6.01 174.012,8.76 -9.351,-264.15 -0.484,-527.75 24.309,-771.87 4.149,-37.1 8.199,-73.86 3.389,-97.62 -3.956,-22.72 -40.479,-34.51 -93.174,-34.11" /><path
         id="path146"
         style="fill:#ed1834;fill-opacity:1;fill-rule:nonzero;stroke:none"
         d="m 2936.21,2693.77 c -15.27,-63.02 -23.25,-128.33 -37.97,-195.14 -186.6,24.21 -405.76,41.94 -652.01,50.62 -19.76,-62.5 -38.47,-123.65 -59.87,-190.41 411.9,-25.31 612.12,-133.89 730.81,-261.8 115.47,-129.36 139.98,-272.32 133.31,-405.03 -14.72,-215.66 -109.82,-352.02 -240.34,-453.09 -132.05,-99.48 -291.83,-148.91 -419.62,-159.63 -188.56,-14.12 -440.72,30.76 -494.36,63.64 -32.23,73.49 -64.12,147.53 -98.38,228.3 -8.33,17.19 -13.57,34.81 10.01,55.33 36.67,35.13 71.96,69.17 109.06,105.18 16.41,16.03 34.59,30.97 48.38,7.98 50.72,-78.19 98.22,-149.94 145.83,-221.57 54.06,-79.72 136.43,-152.4 316.36,-140.31 151.25,13.52 266.28,127.94 278.47,253.74 13.25,232.91 -222.39,398.01 -835.11,451.04 117.54,355.04 232.13,698.58 323.79,971.61 145.56,-6.72 280.29,-18.59 409,-35.2 95.2,-12.11 183.63,-34.28 272.34,-44.53 -228.05,281.12 -576.12,460.91 -966.35,460.91 -687.14,0 -1244.173,-557 -1244.173,-1244.06 0,-275.99 90.031,-530.89 242.129,-737.24 52.695,-0.4 89.218,11.39 93.174,34.11 4.81,23.76 0.76,60.52 -3.389,97.62 -24.793,244.12 -33.66,507.72 -24.309,771.87 -63.094,-2.75 -119.722,-5.59 -174.012,-8.76 2.188,48.85 4.817,95.1 8.75,143.29 53.633,5.14 110.442,9.66 172.825,14.91 2.672,42.05 5.679,82.8 9.297,123.93 28.018,251.88 293.308,406.03 514.288,465.49 98.05,23.88 158.02,31.44 205.09,33.9 17.03,0.54 35.36,1.2 53.63,1.2 45.81,0 92.26,-4.26 121.71,-24.26 47.66,-35.74 94.77,-71.28 144.84,-110.82 5.1,-6.79 10.46,-17.32 -1.96,-35.71 -22.99,-26.89 -45.21,-52.61 -68.57,-80.27 -13.46,-16.34 -35.8,-12.04 -54.62,-6.95 -39.4,20.19 -77.32,38.72 -115.79,57.37 -69.77,31.01 -141.83,62.88 -222.12,59.76 -50.07,-4.02 -98.55,-55.27 -103.58,-125.37 -6.96,-106.71 -11.61,-216.07 -15.55,-334.58 139.22,4 278.04,6.3 424.53,7.02 0,-33.34 -0.21,-63.89 -0.21,-98.01 -47.77,-21.35 -92.81,-42.93 -140.69,-64.74 -98.77,-1.15 -192.79,-1.92 -287.46,-3.56 -4.37,-281.88 -0.22,-562.72 12.48,-822.37 2.41,-39.18 4.37,-78.86 15.65,-105.45 13.52,-33.43 91.22,-59.21 260.26,-68.74 0.66,-29.43 1.48,-57.18 2.41,-85.74 -275.27,8.03 -539.58,34.37 -751.53,72.49 227.8,-254.31 558.6,-414.451 926.9,-414.451 687.1,0 1243.95,557.021 1243.95,1244.061 0,260.67 -80.29,502.51 -217.3,702.42" /><path
         id="path148"
         style="fill:#e5143c;fill-opacity:1;fill-rule:nonzero;stroke:none"
         d="m 982.652,1161.74 h 0.008 c -0.008,0.01 -0.027,0.03 -0.027,0.03 0,0 0.012,-0.02 0.019,-0.03" /></g></g></svg>