<?xml version="1.0" encoding="UTF-8" standalone="no"?>
<svg
   xmlns:dc="http://purl.org/dc/elements/1.1/"
   xmlns:cc="http://creativecommons.org/ns#"
   xmlns:rdf="http://www.w3.org/1999/02/22-rdf-syntax-ns#"
   xmlns:svg="http://www.w3.org/2000/svg"
   xmlns="http://www.w3.org/2000/svg"
   viewBox="0 0 2400 697.41333"
   height="697.41333"
   width="2400"
   xml:space="preserve"
   id="svg2"
   version="1.1"><metadata
     id="metadata8"><rdf:RDF><cc:Work
         rdf:about=""><dc:format>image/svg+xml</dc:format><dc:type
           rdf:resource="http://purl.org/dc/dcmitype/StillImage" /></cc:Work></rdf:RDF></metadata><defs
     id="defs6" /><g
     transform="matrix(1.3333333,0,0,-1.3333333,0,697.41333)"
     id="g10"><g
       transform="scale(0.1)"
       id="g12"><path
         id="path14"
         style="fill:#548ed2;fill-opacity:1;fill-rule:nonzero;stroke:none"
         d="m 1364.21,1062.05 c -117.24,0 -217.95,12.55 -302.12,37.57 v 360.75 c 70.16,-19.02 141.82,-28.56 214.94,-28.56 77.14,0 133.51,21.56 169.1,64.63 35.54,43.1 53.36,106.72 53.36,190.89 v 1529.12 h 458.43 V 1619.69 c 0,-178.34 -51.63,-315.87 -154.81,-412.59 -103.23,-96.69 -249.51,-145.05 -438.9,-145.05" /><path
         id="path16"
         style="fill:#548ed2;fill-opacity:1;fill-rule:nonzero;stroke:none"
         d="m 3534.36,2035.03 c 0,-172.37 -59.9,-303.62 -179.62,-393.81 -119.76,-90.18 -298.89,-135.28 -537.35,-135.28 -122.28,0 -226.48,8.27 -312.64,24.81 -86.21,16.53 -166.84,40.8 -242,72.89 v 378.78 c 85.15,-40.1 181.12,-73.65 287.84,-100.71 106.72,-27.05 200.66,-40.58 281.83,-40.58 166.32,0 249.51,48.1 249.51,144.3 0,36.07 -11.05,65.38 -33.07,87.93 -22.05,22.54 -60.12,48.1 -114.23,76.66 -54.11,28.55 -126.26,61.85 -216.45,99.95 -129.26,54.11 -224.22,104.2 -284.83,150.31 -60.65,46.07 -104.73,98.94 -132.27,158.57 -27.58,59.6 -41.33,133.03 -41.33,220.2 0,149.3 57.86,264.77 173.6,346.46 115.74,81.66 279.8,122.51 492.26,122.51 202.39,0 399.29,-44.12 590.71,-132.27 l -138.28,-330.68 c -84.18,36.07 -162.86,65.61 -235.99,88.68 -73.16,23.03 -147.83,34.57 -223.95,34.57 -135.28,0 -202.92,-36.6 -202.92,-109.73 0,-41.1 21.79,-76.65 65.38,-106.71 43.59,-30.06 139.03,-74.67 286.34,-133.78 131.25,-53.13 227.45,-102.73 288.59,-148.8 61.1,-46.11 106.19,-99.21 135.28,-159.33 29.04,-60.12 43.59,-131.78 43.59,-214.94" /><path
         id="path18"
         style="fill:#548ed2;fill-opacity:1;fill-rule:nonzero;stroke:none"
         d="m 4497.53,1505.94 c -523.07,0 -784.61,287.09 -784.61,861.27 0,285.59 71.14,503.76 213.44,654.59 142.27,150.8 346.2,226.22 611.76,226.22 194.38,0 368.74,-38.11 523.07,-114.24 l -135.28,-354.73 c -72.15,29.05 -139.3,52.84 -201.41,71.4 -62.16,18.53 -124.27,27.81 -186.38,27.81 -238.51,0 -357.74,-169.36 -357.74,-508.04 0,-328.69 119.23,-493.01 357.74,-493.01 88.15,0 169.84,11.76 245,35.32 75.15,23.52 150.31,60.35 225.46,110.47 v -392.3 c -74.18,-47.12 -149.07,-79.66 -224.71,-97.7 -75.68,-18.04 -171.13,-27.06 -286.34,-27.06" /><path
         id="path20"
         style="fill:#548ed2;fill-opacity:1;fill-rule:nonzero;stroke:none"
         d="M 13699.4,1536.01 H 13241 v 2305.72 h 458.4 V 1536.01" /><path
         id="path22"
         style="fill:#548ed2;fill-opacity:1;fill-rule:nonzero;stroke:none"
         d="m 14799.4,2921.85 c -97.3,0 -173.4,-30.81 -228.5,-92.44 -55.1,-61.63 -86.7,-149.07 -94.7,-262.29 h 643.3 c -2,113.22 -31.6,200.66 -88.7,262.29 -57.1,61.63 -134.3,92.44 -231.4,92.44 z m 64.6,-1415.91 c -270.6,0 -482,74.63 -634.3,223.96 -152.4,149.3 -228.5,360.75 -228.5,634.3 0,281.57 70.4,499.25 211.2,653.1 140.8,153.79 335.4,230.72 583.9,230.72 237.5,0 422.4,-67.64 554.7,-202.92 132.3,-135.28 198.4,-322.18 198.4,-560.65 v -222.46 h -1083.7 c 5,-130.28 43.6,-231.99 115.7,-305.12 72.2,-73.16 173.4,-109.73 303.6,-109.73 101.2,0 196.9,10.53 287.1,31.57 90.2,21.04 184.4,54.6 282.6,100.7 v -354.72 c -80.2,-40.09 -165.9,-69.89 -257,-89.44 -91.2,-19.54 -202.5,-29.31 -333.7,-29.31" /><path
         id="path24"
         style="fill:#548ed2;fill-opacity:1;fill-rule:nonzero;stroke:none"
         d="m 10829.9,3101.47 c -97.7,97.7 -241.8,146.55 -432.2,146.55 -331,0 -536.57,-246.51 -536.57,-246.51 -89.21,164.33 -259.55,246.51 -511.05,246.51 -110.25,0 -207.95,-21.8 -293.1,-65.39 -85.19,-43.59 -150.31,-103.97 -195.4,-181.12 v 214.94 h -437.4 V 1536.01 h 458.44 v 790.62 c 0,197.39 26.53,339.17 79.67,425.37 53.09,86.16 138.28,129.27 255.52,129.27 87.18,0 151.06,-30.33 191.64,-90.94 40.58,-60.65 60.87,-151.58 60.87,-272.81 v -981.51 h 458.45 v 843.22 c 0,174.36 27.8,301.6 83.43,381.79 55.6,80.15 139.5,120.25 251.8,120.25 87.1,0 151,-30.33 191.6,-90.94 40.6,-60.65 60.9,-151.58 60.9,-272.81 v -981.51 h 459.9 v 1095.74 c 0,215.43 -48.8,372.02 -146.5,469.72" /><path
         id="path26"
         style="fill:#548ed2;fill-opacity:1;fill-rule:nonzero;stroke:none"
         d="m 12388.3,2007.22 c -55.7,-86.69 -130.6,-130.01 -224.8,-130.01 -116.2,0 -201.1,39.07 -254.7,117.24 -53.6,78.16 -80.4,207.42 -80.4,387.79 v 49.6 c 2,160.31 29,275.29 81.1,344.96 52.1,69.63 134.8,104.47 248,104.47 97.2,0 173.9,-41.34 230,-124.01 56.1,-82.67 84.2,-206.67 84.2,-372.02 0,-165.33 -27.8,-291.36 -83.4,-378.02 z m 382.5,1010.31 c -112.2,154.81 -267.6,232.22 -466,232.22 -210.4,0 -369.2,-83.19 -476.4,-249.51 v 841.49 h -458.5 V 1536.01 h 458.5 v 186.61 c 112.2,-143.32 267,-214.94 464.4,-214.94 199.4,0 357,76.13 472.7,228.47 115.8,152.3 173.6,367.24 173.6,644.82 0,269.54 -56.1,481.74 -168.3,636.56" /><g
         transform="scale(1.03914)"
         id="g28"><path
           id="path30"
           style="fill:#548ed2;fill-opacity:1;fill-rule:nonzero;stroke:none"
           d="m 16151,3125.7 c -100.2,0 -193,-27.74 -278.4,-83.18 -85.3,-55.47 -153.1,-128.52 -203.2,-219.14 v 271.95 h -86.8 -334.2 V 1478.16 h 441.2 v 823.04 c 0,130.18 39.2,231.44 117.9,303.76 78.6,72.32 188.3,108.49 329.1,108.49 51.1,0 94.5,-4.84 130.2,-14.47 l 33.2,413.69 c -39.6,8.69 -89.2,13.03 -149,13.03" /></g><path
         id="path32"
         style="fill:#548ed2;fill-opacity:1;fill-rule:nonzero;stroke:none"
         d="m 7573.74,2176.32 c 0,-101.23 -31.83,-182.4 -95.44,-243.5 -63.66,-61.13 -148.59,-91.69 -254.78,-91.69 -148.31,0 -222.46,64.63 -222.46,193.9 0,90.19 32.55,157.3 97.7,201.42 65.13,44.07 164.33,68.12 297.62,72.14 l 177.36,6.01 z m 275.06,927.4 c -120.25,98.19 -293.1,147.3 -518.56,147.3 -235.49,0 -449.95,-50.61 -643.32,-151.81 l 151.81,-309.63 c 181.35,81.16 339.17,121.74 473.47,121.74 174.36,0 261.54,-85.18 261.54,-255.51 v -73.66 l -291.6,-9.02 c -251.54,-9.01 -439.65,-55.87 -564.41,-140.53 -124.76,-84.7 -187.13,-216.22 -187.13,-394.56 0,-170.38 46.33,-301.63 139.04,-393.81 92.66,-92.21 219.67,-138.29 381.02,-138.29 131.26,0 237.71,18.79 319.41,56.37 81.65,37.58 161.05,104.95 238.24,202.16 v -228.46 h 420.86 v 1119.8 c 0,200.39 -60.12,349.68 -180.37,447.91" /><path
         id="path34"
         style="fill:#548ed2;fill-opacity:1;fill-rule:nonzero;stroke:none"
         d="m 6258.85,3248.02 c -104.25,0 -200.67,-28.82 -289.35,-86.43 -88.68,-57.64 -159.1,-133.55 -211.18,-227.72 v 282.59 h -437.4 V 1536.01 h 458.44 v 855.25 c 0,135.27 40.81,240.49 122.5,315.65 81.66,75.15 195.63,112.73 341.95,112.73 53.1,0 98.19,-5.03 135.28,-15.03 l 34.57,429.88 c -41.11,9.02 -92.7,13.53 -154.81,13.53" /><path
         id="path36"
         style="fill:#548ed2;fill-opacity:1;fill-rule:nonzero;stroke:none"
         d="m 1728.71,5230.61 c -119.91,-169.14 -331.68,-326.84 -635.3,-326.84 0,-834.95 635.3,-1155.49 635.3,-1155.49 0,0 635.29,320.54 635.29,1155.49 -303.61,0 -515.38,157.7 -635.29,326.84" /><g
         transform="scale(1.10429)"
         id="g38"><path
           id="path40"
           style="fill:#548ed2;fill-opacity:1;fill-rule:nonzero;stroke:none"
           d="m 2476.32,4440.67 v -0.03 c 0,-155.5 -19.04,-296.07 -51.06,-422.81 H 15877.2 V 422.831 H 422.834 V 4017.83 h 282.788 c -32.02,126.74 -51.061,267.31 -51.061,422.81 v 0.03 H 0 V 0 H 16300 V 4440.67 H 2476.32" /></g></g></g></svg>