<?xml version="1.0" encoding="utf-8"?>
<!-- Generator: Adobe Illustrator 21.0.2, SVG Export Plug-In . SVG Version: 6.00 Build 0)  -->
<svg version="1.1" xmlns="http://www.w3.org/2000/svg" xmlns:xlink="http://www.w3.org/1999/xlink" x="0px" y="0px"
	 viewBox="0 0 5000 1630" style="enable-background:new 0 0 5000 1630;" xml:space="preserve">
<style type="text/css">
	.st0{display:none;}
	.st1{fill:#414845;}
	.st2{fill:#D9559A;}
	.st3{fill:#D1D01A;}
	.st4{fill:#01A4A6;}
	.st5{fill:#74C5C3;}
</style>
<g id="Fondo_xA0_Imagen_1_" class="st0">
</g>
<g id="kiuwan">
	<g>
		<path class="st1" d="M2044,1068.3c4.3,7.8,0.9,13-7.8,13h-123.7c-6.9,0-10.4-2.6-13.8-7.8l-46.7-92.5
			c-17.3-32-35.5-54.5-75.2-54.5h-6.9V1070c0,6.9-4.3,11.2-11.2,11.2h-115c-6.9,0-11.2-4.3-11.2-11.2V463c0-6.9,4.3-11.2,11.2-11.2
			h115c6.9,0,11.2,4.3,11.2,11.2v343.3h7.8c37.2,0,52.7-28.5,69.2-59.7l42.4-82.1c3.5-5.2,6.9-7.8,13.8-7.8h123.7
			c8.6,0,12.1,5.2,7.8,13l-69.2,134.9c-15.6,29.4-36.3,45.8-63.1,56.2c-2.6,0.9-3.5,5.2,0,6.9c26.8,12.1,54.5,30.3,68.3,57.9
			L2044,1068.3z"/>
		<path class="st1" d="M2291.3,1070c0,6.9-4.3,11.2-11.2,11.2H2166c-6.9,0-11.2-4.3-11.2-11.2V776.9h-45c-6.9,0-11.2-4.3-11.2-11.2
			v-97.7c0-6.9,4.3-11.2,11.2-11.2h170.3c6.9,0,11.2,4.3,11.2,11.2V1070z M2288.7,521.8c0,49.3-27.7,79.6-77,79.6
			c-48.4,0-77-30.3-77-79.6c0-50.2,28.5-78.7,77-78.7C2261.1,443.1,2288.7,471.6,2288.7,521.8z"/>
		<path class="st1" d="M2674.4,1055.3c-8.6-13-13.8-12.1-26.8-0.9c-34.6,29.4-74.4,36.3-100.3,36.3c-102,0-164.3-58.8-164.3-160
			V667.9c0-6.9,4.3-11.2,11.2-11.2h115c6.9,0,11.2,4.3,11.2,11.2v245.6c0,35.5,18.2,55.3,48.4,55.3c41.5,0,64.9-30.3,64.9-88.2
			V667.9c0-6.9,4.3-11.2,11.2-11.2h115c6.9,0,11.2,4.3,11.2,11.2V1070c0,6.9-4.3,11.2-11.2,11.2h-61.4c-6.1,0-10.4-2.6-13-7.8
			L2674.4,1055.3z"/>
		<path class="st1" d="M3446.6,883.2c-24.2,87.3-35.5,128-49.3,188.5c-1.7,6.1-6.1,9.5-13,9.5h-141.8c-6.9,0-11.2-3.5-13-9.5
			l-18.2-74.4l-9.5-35.5c-5.2-19.9-13.8-57.9-19-79.6c-2.6-11.2-9.5-11.2-12.1,0c-5.2,22.5-13.8,62.3-18.2,79.6l-9.5,35.5
			c-7.8,28.5-13,50.2-18.2,74.4c-1.7,6.1-6.1,9.5-13,9.5h-141.8c-6.9,0-11.2-3.5-13-9.5c-13.8-60.5-25.1-99.4-49.3-188.5
			l-59.7-213.6c-1.7-7.8,1.7-13,9.5-13h115c6.9,0,11.2,3.5,13,9.5l19.9,83c16.4,70,25.9,115.9,36.3,174.7c1.7,11.2,13.8,11.2,16.4,0
			c13-58.8,32.9-126.2,51.9-198l15.6-59.7c1.7-6.1,6.1-9.5,13-9.5h77c6.1,0,10.4,3.5,12.1,9.5l16.4,59.7
			c19,69.2,38.9,139.2,51.9,198c2.6,11.2,13.8,11.2,15.6,0c9.5-58.8,18.2-100.3,36.3-174.7l19.9-83c1.7-6.1,6.1-9.5,13-9.5h115
			c7.8,0,11.2,5.2,9.5,13L3446.6,883.2z"/>
		<path class="st1" d="M3632.5,661c32-8.6,62.3-13.8,95.1-13.8c131.4,0,208.4,62.3,208.4,167.8V1070c0,6.9-4.3,11.2-11.2,11.2h-64.9
			c-6.9,0-10.4-2.6-13.8-7.8l-7.8-15.6c-5.2-10.4-13-12.1-27.7,0c-22.5,19.9-57.1,32.9-93.4,32.9c-102.9,0-164.3-51-164.3-138.4
			c0-80.4,64-128,171.2-128h81.3v-1.7c-3.5-37.2-35.5-58.8-84.7-58.8c-17.3,0-37.2,3.5-56.2,8.6l-32.9,9.5
			c-6.9,1.7-11.2-0.9-13.8-7.8l-26.8-89.9c-2.6-7.8,0-12.1,7.8-13.8L3632.5,661z M3724.1,910.1c-25.1,0-43.2,13.8-43.2,32.9
			c0,24.2,18.2,38,49.3,38c45,0,70-21.6,75.2-69.2v-1.7H3724.1z"/>
		<path class="st1" d="M4124.5,682.6c8.6,13,13.8,12.1,26.8,0.9c34.6-29.4,74.4-36.3,100.3-36.3c102,0,164.3,58.8,164.3,160V1070
			c0,6.9-4.3,11.2-11.2,11.2h-115c-6.9,0-11.2-4.3-11.2-11.2V824.4c0-35.5-18.2-55.3-48.4-55.3c-41.5,0-64.9,30.3-64.9,88.2V1070
			c0,6.9-4.3,11.2-11.2,11.2h-115c-6.9,0-11.2-4.3-11.2-11.2V667.9c0-6.9,4.3-11.2,11.2-11.2h61.4c6.1,0,10.4,2.6,13,7.8
			L4124.5,682.6z"/>
	</g>
</g>
<g id="anagrama_1_">
	<g id="I_3_">
		<g>
			<path class="st2" d="M961.3,1147.3V510.4c0-33.1,7.5-57.9,22.6-74.5c15.1-16.5,34.6-24.8,58.5-24.8c24.7,0,44.6,8.2,59.9,24.5
				s22.9,41.3,22.9,74.7v636.9c0,33.5-7.6,58.5-22.9,75s-35.3,24.8-59.9,24.8c-23.6,0-43-8.4-58.3-25.1S961.3,1180.4,961.3,1147.3z"
				/>
		</g>
	</g>
	<g id="I_2_">
		<g>
			<path class="st3" d="M752.8,1068.6L1071.2,517c16.5-28.7,35.5-46.4,56.8-53.2c21.3-6.8,42.4-4.2,63.1,7.8
				c21.4,12.3,34.6,29.4,39.6,51.2s-0.8,47.2-17.5,76.2l-318.5,551.6c-16.7,29-35.9,46.8-57.4,53.5s-42.9,3.9-64.3-8.5
				c-20.4-11.8-33-28.7-37.9-50.9C730.4,1122.6,736.2,1097.2,752.8,1068.6z"/>
		</g>
	</g>
	<g id="I_1_">
		<g>
			<path class="st4" d="M613.1,887.1l551.6-318.5c28.7-16.5,53.9-22.4,75.8-17.6c21.9,4.8,38.8,17.6,50.8,38.3
				c12.3,21.4,15.2,42.7,8.7,64.2c-6.5,21.4-24.3,40.5-53.2,57.2l-551.6,318.5c-29,16.7-54.5,22.6-76.4,17.6
				c-22-5-39.1-18.1-51.4-39.5c-11.8-20.4-14.2-41.4-7.4-63C566.7,922.7,584.5,903.7,613.1,887.1z"/>
		</g>
	</g>
	<g id="I">
		<g>
			<path class="st5" d="M610.1,650.7H1247c33.1,0,57.9,7.5,74.5,22.6c16.5,15.1,24.8,34.6,24.8,58.5c0,24.7-8.2,44.6-24.5,59.9
				s-41.3,22.9-74.7,22.9H610.1c-33.5,0-58.5-7.6-75-22.9s-24.8-35.3-24.8-59.9c0-23.6,8.4-43,25.1-58.3S577,650.7,610.1,650.7z"/>
		</g>
	</g>
</g>
</svg>
