<?xml version="1.0" encoding="UTF-8" standalone="no"?>
<!-- Created with Inkscape (http://www.inkscape.org/) -->

<svg
   xmlns:dc="http://purl.org/dc/elements/1.1/"
   xmlns:cc="http://creativecommons.org/ns#"
   xmlns:rdf="http://www.w3.org/1999/02/22-rdf-syntax-ns#"
   xmlns:svg="http://www.w3.org/2000/svg"
   xmlns="http://www.w3.org/2000/svg"
   xmlns:sodipodi="http://sodipodi.sourceforge.net/DTD/sodipodi-0.dtd"
   xmlns:inkscape="http://www.inkscape.org/namespaces/inkscape"
   width="240"
   height="61"
   viewBox="0 0 63.500002 16.139583"
   version="1.1"
   id="svg8"
   inkscape:version="0.92.1 r15371"
   sodipodi:docname="logo-htbridge-vector.svg">
  <defs
     id="defs2" />
  <sodipodi:namedview
     id="base"
     pagecolor="#ffffff"
     bordercolor="#666666"
     borderopacity="1.0"
     inkscape:pageopacity="0.0"
     inkscape:pageshadow="2"
     inkscape:zoom="1"
     inkscape:cx="313.70079"
     inkscape:cy="297.44882"
     inkscape:document-units="mm"
     inkscape:current-layer="layer1"
     showgrid="false"
     inkscape:window-width="1920"
     inkscape:window-height="1003"
     inkscape:window-x="-9"
     inkscape:window-y="-9"
     inkscape:window-maximized="1"
     inkscape:snap-global="true"
     inkscape:pagecheckerboard="false"
     units="px" />
  <metadata
     id="metadata5">
    <rdf:RDF>
      <cc:Work
         rdf:about="">
        <dc:format>image/svg+xml</dc:format>
        <dc:type
           rdf:resource="http://purl.org/dc/dcmitype/StillImage" />
        <dc:title></dc:title>
      </cc:Work>
    </rdf:RDF>
  </metadata>
  <g
     inkscape:label="Layer 1"
     inkscape:groupmode="layer"
     id="layer1"
     transform="translate(0,-280.86042)">
    <g
       id="g4966"
       transform="matrix(0.06969696,0,0,0.06969696,24.119248,278.98029)">
      <path
         style="fill:#487ca5;stroke-width:0.26458338"
         d="m -141.16994,250.86634 c -0.29104,-0.0652 -1.09471,-0.29909 -1.78593,-0.51974 l -1.25677,-0.40118 v -2.35999 c 0,-1.29799 0.0613,-2.35998 0.1363,-2.35998 0.075,0 0.75957,0.34884 1.52135,0.77519 2.78084,1.55639 6.67794,1.60284 7.86499,0.0937 0.29234,-0.37165 0.53152,-0.88865 0.53152,-1.14891 0,-0.97391 -1.42541,-2.17958 -3.96238,-3.35154 -3.28963,-1.51965 -4.39283,-2.30179 -5.20755,-3.692 -1.02556,-1.75 -1.12907,-3.8681 -0.27969,-5.72338 1.32043,-2.8842 4.12534,-4.04617 9.23184,-3.82442 1.64775,0.0716 3.32333,0.26252 3.72352,0.42437 0.7133,0.28847 0.7276,0.33829 0.7276,2.53489 v 2.24063 l -1.19595,-0.52903 c -3.60723,-1.59564 -7.79989,-0.87044 -7.79989,1.34915 0,1.0316 1.09198,1.90764 4.26875,3.42463 3.50265,1.6726 4.8032,2.86045 5.40741,4.93884 0.36017,1.23895 0.38527,1.75712 0.14345,2.96125 -0.16122,0.80274 -0.50643,1.82828 -0.76715,2.27899 -0.64754,1.1194 -2.67898,2.43363 -4.29868,2.78099 -1.29642,0.27803 -5.92447,0.34907 -7.00274,0.10749 z m 88.71594,-0.31738 c -4.14157,-1.35999 -6.48933,-4.72678 -6.75645,-9.68914 -0.28594,-5.312 1.86555,-9.28696 6.18104,-11.4198 1.83491,-0.90686 2.18619,-0.98578 4.88259,-1.09687 1.80216,-0.0743 3.50504,0.008 4.4844,0.21536 l 1.57895,0.33508 v 2.3734 c 0,2.1573 -0.0421,2.35589 -0.46302,2.181 -3.60191,-1.49673 -7.26985,-1.15436 -9.41695,0.87899 -1.501,1.42149 -1.89399,2.56172 -1.89399,5.49526 0,2.50635 0.0481,2.74441 0.80074,3.96175 0.49696,0.80381 1.29254,1.59896 2.09703,2.09592 1.20767,0.74602 1.46939,0.80056 3.82945,0.79796 2.04573,-0.002 2.77699,-0.1148 3.80013,-0.58492 l 1.2669,-0.58214 -0.0763,2.30425 -0.0763,2.30425 -1.05834,0.37609 c -0.6292,0.2236 -2.39934,0.41103 -4.36562,0.46225 -2.68486,0.07 -3.5909,-0.007 -4.81428,-0.40869 z m 44.852137,0.13022 c -2.56754,-0.83481 -4.11199,-2.44319 -4.98999,-5.19658 -0.38102,-1.19488 -0.48336,-2.79962 -0.58579,-9.18684 l -0.12414,-7.73906 h 2.52098 2.52098 l 0.0877,7.47448 c 0.0803,6.84427 0.13227,7.56341 0.61682,8.52932 1.44693,2.88431 5.69958,3.08871 7.19707,0.34592 0.42145,-0.77197 0.48509,-1.75625 0.55668,-8.61066 l 0.0809,-7.73906 h 2.49883 2.49886 v 6.96286 c 0,3.8823 -0.12724,7.6511 -0.28758,8.51844 -0.56949,3.08067 -2.08875,5.23208 -4.45127,6.3033 -1.5386,0.69765 -6.41138,0.89991 -8.13996,0.33788 z m 251.944453,-0.1784 c -2.08338,-0.73377 -3.6422,-1.8888 -4.76721,-3.53236 -1.23684,-1.80692 -1.74265,-3.3257 -1.92,-5.76511 -0.44775,-6.15913 2.78776,-11.09561 8.22047,-12.54212 1.67394,-0.4457 5.74718,-0.47752 7.56008,-0.0591 l 1.34307,0.31003 v 2.36416 c 0,2.14845 -0.0422,2.34656 -0.46299,2.17171 -2.83983,-1.18005 -5.67309,-1.25126 -7.75594,-0.19494 -1.5988,0.81083 -2.97837,2.41882 -3.41064,3.97544 -0.15052,0.54202 -0.27437,1.71467 -0.27517,2.60588 -0.003,2.83827 1.06238,4.90025 3.17349,6.14454 1.06305,0.62653 1.46005,0.70173 3.7042,0.70155 2.0343,-1.6e-4 2.7551,-0.11168 3.78047,-0.58493 l 1.2669,-0.58472 -0.0763,2.30425 -0.0763,2.30425 -1.05833,0.37609 c -0.62437,0.22188 -2.41446,0.41366 -4.36563,0.46772 -2.83268,0.0785 -3.533,0.0121 -4.88018,-0.46234 z m 45.1467,0.0215 c -4.9031,-1.79047 -7.60941,-6.99864 -6.6707,-12.83747 0.74002,-4.60282 3.43453,-7.83021 7.51703,-9.00364 2.3877,-0.6863 6.16844,-0.45373 8.157,0.50176 3.18576,1.53074 5.2678,4.56732 5.7486,8.38409 0.7204,5.71909 -1.61261,10.57596 -6.07052,12.63755 -2.01147,0.93022 -6.54931,1.09629 -8.68141,0.31771 z m 6.58927,-4.3252 c 2.35497,-1.24374 3.52366,-4.59859 2.89679,-8.31528 -0.62357,-3.69706 -2.65107,-5.53521 -5.85005,-5.30381 -1.78159,0.12887 -2.56876,0.59363 -3.86439,2.2816 -2.0642,2.68931 -1.75149,8.12122 0.60266,10.46868 1.61558,1.61094 4.14124,1.96402 6.21499,0.86881 z m -614.52017,4.25388 c -0.11305,-0.32085 -5.20929,-19.69519 -5.57023,-21.17627 l -0.17965,-0.7372 2.71986,0.0757 2.71987,0.0758 1.66482,7.80521 c 0.91565,4.29286 1.67484,8.10286 1.68709,8.46667 0.0122,0.3638 0.416,-0.82683 0.89722,-2.64584 0.48123,-1.81901 1.51842,-5.65795 2.30487,-8.53097 l 1.42991,-5.22368 2.67197,-0.002 2.67196,-0.002 1.87881,7.73906 c 1.03335,4.25648 1.92589,7.97719 1.98344,8.26823 0.16692,0.84417 0.30521,0.28794 1.90766,-7.67292 0.82018,-4.07458 1.55038,-7.61669 1.62267,-7.87135 0.11334,-0.39926 0.47761,-0.46302 2.64498,-0.46302 2.27229,0 2.49973,0.0444 2.36964,0.46302 -0.2161,0.69531 -5.71259,21.531 -5.71259,21.65487 0,0.0589 -1.24557,0.10713 -2.76793,0.10713 h -2.76792 l -0.3112,-1.12448 c -0.17115,-0.61823 -1.10434,-4.21987 -2.07374,-8.00342 l -1.76254,-6.87916 -2.10065,8.00364 -2.10065,8.00365 h -2.85557 c -2.04592,0 -2.88861,-0.0938 -2.9721,-0.33073 z m 53.57897,-10.78177 v -11.1125 h 6.48229 6.48229 v 1.98437 1.98438 h -3.96875 -3.96875 v 2.51354 2.51354 h 3.70417 3.70417 v 1.98438 1.98437 h -3.70417 -3.70417 v 2.64584 2.64583 h 4.23334 4.23333 v 1.98437 1.98438 h -6.74688 -6.74687 z m 42.06875,-2.6e-4 v -11.1576 l 5.62239,0.10599 c 4.49934,0.0848 5.85948,0.19711 6.80927,0.56218 4.20236,1.61524 4.65825,6.50522 0.82213,8.81822 l -1.39639,0.84196 1.06787,0.31994 c 1.37474,0.41189 2.91601,1.68727 3.37947,2.7965 0.2002,0.47916 0.36139,1.55963 0.3582,2.40104 -0.0101,2.66877 -1.23838,4.4903 -3.83065,5.68102 -1.22666,0.56345 -1.74163,0.61424 -7.07761,0.69801 l -5.75468,0.0904 z m 9.7372,7.03892 c 1.58239,-0.81829 2.15447,-2.22386 1.52159,-3.73855 -0.51974,-1.24404 -1.67956,-1.7126 -4.23884,-1.7126 h -1.99287 v 2.91041 2.91041 h 1.99751 c 1.19305,0 2.28551,-0.14892 2.71261,-0.36979 z m 0.0942,-10.17403 c 0.6435,-0.7202 0.76634,-1.06573 0.70007,-1.96921 -0.11758,-1.60301 -1.24045,-2.30375 -3.69138,-2.30375 h -1.81296 v 2.67476 2.67475 l 2.01192,-0.1016 c 1.8858,-0.0952 2.06083,-0.15635 2.79235,-0.97506 z m 112.93532,3.13538 v -11.1125 h 6.35 6.35 v 1.98437 1.98438 h -3.83646 -3.83646 v 2.51354 2.51354 h 3.57187 3.57188 v 1.98438 1.98437 h -3.57188 -3.57187 v 2.64583 2.64583 h 4.10104 4.10104 v 1.98437 1.98438 h -6.61458 -6.61458 z m 135.466667,0 v -11.1125 h 4.8392 c 6.60686,0 8.91556,0.63182 10.26052,2.80799 0.71593,1.15842 0.97769,3.84684 0.51191,5.25811 -0.44312,1.34267 -2.00009,3.02017 -3.36597,3.62649 l -1.11578,0.49532 1.09609,0.98365 c 0.84492,0.75824 4.22161,5.56586 6.12653,8.72271 0.15484,0.25659 -0.44952,0.33073 -2.69605,0.33073 h -2.8956 l -2.05999,-3.46443 c -2.53092,-4.2564 -3.22212,-5.00224 -4.63579,-5.00224 h -1.03799 v 4.23333 4.23333 h -2.51354 -2.51354 z m 8.06979,-1.31518 c 1.57258,-0.3629 2.51354,-1.53727 2.51354,-3.13702 0,-2.09137 -1.16602,-2.95614 -3.98597,-2.95614 h -1.57028 v 3.175 3.175 l 0.99219,-0.006 c 0.5457,-0.003 1.46844,-0.11621 2.05052,-0.25054 z m 37.70313,1.31518 v -11.1125 h 2.51354 2.51354 v 11.1125 11.1125 h -2.51354 -2.51354 z m 39.687503,1.98437 v -9.12812 h -3.175 -3.175 v -1.98438 -1.98437 h 8.86354 8.86351 v 1.98437 1.98438 h -3.175 -3.17497 v 9.12812 9.12813 h -2.51354 -2.51354 z m 44.18541,5.28836 v -3.83976 l -2.02094,-4.03159 c -1.11151,-2.21737 -2.71108,-5.49011 -3.5546,-7.27274 l -1.53363,-3.24114 h 2.83435 2.83433 l 1.91084,4.48645 c 1.05101,2.46755 1.9109,4.67021 1.9109,4.89479 0,0.56822 0.52562,0.51542 0.54444,-0.0547 0.008,-0.25466 0.87892,-2.42755 1.93452,-4.82865 l 1.91926,-4.36562 2.6883,-0.0753 2.68836,-0.0753 -3.69682,7.24356 -3.69681,7.24356 v 3.87811 3.87812 h -2.38125 -2.38125 z m 168.27498,-7.27273 v -11.1125 h 3.64334 3.64339 l 2.44043,7.0776 c 1.34229,3.89268 2.51564,7.46456 2.60745,7.9375 0.0918,0.47295 0.24138,0.85519 0.33234,0.84943 0.091,-0.006 1.2264,-3.19067 2.5232,-7.0776 1.29677,-3.88693 2.51878,-7.45409 2.7155,-7.92704 l 0.35769,-0.85989 h 3.56833 3.56833 v 11.1125 11.1125 h -2.52365 -2.52373 l 0.0763,-8.87066 c 0.042,-4.87886 0.003,-8.6591 -0.0889,-8.40052 -0.0908,0.25858 -0.58955,1.77982 -1.10824,3.38055 -0.51869,1.60073 -1.79742,5.38097 -2.84168,8.40052 l -1.89859,5.49011 h -2.02303 -2.02303 l -2.70256,-7.62892 c -1.48641,-4.19591 -2.83449,-8.24403 -2.99572,-8.99584 -0.16121,-0.7518 -0.31303,-1.36699 -0.33737,-1.36708 -0.0243,-9e-5 -0.006,4.04804 0.0407,8.99584 l 0.0849,8.996 h -2.26771 -2.26775 z m 55.5625,0 v -11.1125 h 4.8392 c 7.1415,0 9.25187,0.71312 10.66644,3.60437 0.86048,1.75882 0.96835,4.60845 0.2417,6.3857 -1.12509,2.75174 -4.55015,4.56201 -8.63145,4.56201 h -2.08881 v 3.83646 3.83646 h -2.51354 -2.51354 z m 9.56974,-0.9684 c 2.01409,-1.17226 1.89074,-4.92049 -0.1932,-5.86999 -0.36859,-0.16795 -1.49802,-0.30536 -2.50981,-0.30536 h -1.83965 v 3.47513 3.47514 l 1.83068,-0.13099 c 1.12514,-0.0805 2.17035,-0.32867 2.71198,-0.64393 z m 36.87461,1.03454 4.02447,-11.04635 h 2.99635 2.9963 l 3.91081,10.98021 c 2.15093,6.03911 3.91321,11.00997 3.91612,11.04635 0.003,0.0364 -1.21504,0.0657 -2.70663,0.0652 l -2.71198,-0.001 -0.79375,-2.44646 -0.79375,-2.44647 h -3.95166 -3.95163 l -0.80042,2.4474 -0.80044,2.44739 h -2.67912 -2.67915 l 4.02448,-11.04635 z m 9.64734,2.1564 c 0,-0.0873 -0.5869,-2.02206 -1.30418,-4.29948 -0.71729,-2.27743 -1.35832,-4.3789 -1.42452,-4.66994 -0.11562,-0.5083 -0.12155,-0.50886 -0.15105,-0.0142 -0.0169,0.2832 -0.62598,2.38467 -1.35361,4.66993 -0.7276,2.28526 -1.32289,4.22643 -1.32289,4.31373 0,0.0873 1.25013,0.15871 2.7781,0.15871 1.52797,0 2.77815,-0.0714 2.77815,-0.15871 z m 36.24789,-2.22254 v -11.1125 l 2.71198,0.001 2.71198,10e-4 4.89479,7.52016 4.89479,7.52016 0.0702,-7.52137 0.0702,-7.52138 h 2.37717 2.37718 v 11.1125 11.1125 l -2.57966,-0.001 -2.57969,-0.001 -5.02709,-7.67363 -5.02708,-7.67363 -0.0701,7.67486 -0.0701,7.67486 h -2.37726 -2.37725 v -11.1125 z m 54.76875,7.13517 v -3.97733 l -3.43958,-7.04471 c -1.89175,-3.87459 -3.43959,-7.08944 -3.43959,-7.14412 0,-0.0547 1.27159,-0.0656 2.82573,-0.0243 l 2.82572,0.0751 1.57009,3.57188 c 0.86355,1.96453 1.78152,4.16718 2.03991,4.89479 0.38497,1.08395 0.50395,1.22733 0.65868,0.79375 0.10388,-0.29104 1.03976,-2.52333 2.07968,-4.96063 l 1.89082,-4.43147 2.57971,-2.6e-4 c 1.4188,-1.7e-4 2.57966,0.0601 2.57966,0.13387 0,0.0738 -1.60734,3.34717 -3.57187,7.27416 l -3.57188,7.13997 v 3.83835 3.83834 h -2.51354 -2.51354 v -3.97734 z m -860.68956,-65.74038 v -19.44688 h 8.33437 8.33438 v 7.54063 7.54062 h 11.77395 11.77397 v -7.54062 -7.54063 h 8.33437 8.33438 v 19.44688 19.44687 h -8.33438 -8.33437 v -7.67291 -7.67292 h -11.77397 -11.77395 v 7.67292 7.67291 h -8.33438 -8.33437 z m 67.20417,0 v -19.44688 h 8.33438 8.33437 v 19.44688 19.44687 h -8.33437 -8.33438 z m 41.67187,19.27035 c -8.78132,-0.72658 -13.96527,-3.18406 -14.60542,-6.92378 -0.11618,-0.67874 -0.21125,-6.41329 -0.21125,-12.74345 0,-12.44879 0.0121,-12.56962 1.46517,-14.68437 1.46096,-2.12617 4.85946,-3.49479 10.14038,-4.08365 1.54646,-0.17244 9.62471,-0.28198 20.79548,-0.28198 h 18.26668 v 4.10104 4.10105 l -15.67657,0.002 c -9.97155,0.001 -16.0348,0.10097 -16.66095,0.27487 -1.71308,0.47577 -1.67538,0.20271 -1.52915,11.07453 0.14543,10.81272 0.0182,10.0842 1.85208,10.60712 1.2635,0.36028 17.03396,0.34632 18.33958,-0.0162 2.04404,-0.5677 2.03334,-0.52807 2.03334,-7.52584 v -6.22147 l 8.26823,0.0699 8.26823,0.0699 v 7.14375 c 0,8.41327 -0.11705,9.06533 -1.94645,10.84352 -2.1672,2.10656 -5.97617,3.5577 -10.75355,4.09692 -2.1265,0.24001 -25.34596,0.31997 -28.04583,0.0966 z m 50.93229,-19.27035 v -19.44688 h 8.33437 8.33438 v 7.54063 7.54062 h 11.90625 11.90625 v -7.54062 -7.54063 h 8.33609 8.33609 l -0.0679,19.38073 -0.0679,19.38073 -8.26823,0.0699 -8.26823,0.0699 v -7.67668 -7.67669 h -11.90624 -11.90625 v 7.67292 7.67291 h -8.33438 -8.33437 z m 114.82917,4.10104 V 169.8192 h -8.33437 -8.33439 v -4.10105 -4.10104 h 25.13538 25.135407 v 4.10104 4.10105 h -8.46666 -8.46667 v 15.34583 15.34583 h -8.334377 -8.33437 z m 52.703357,15.06148 c -4.61822,-0.44602 -8.61629,-1.66511 -10.7179,-3.26809 -0.52162,-0.39786 -1.22229,-1.27937 -1.55704,-1.95891 l -0.60863,-1.23552 v -12.30313 c 0,-9.15563 0.0855,-12.58449 0.33428,-13.40295 0.76655,-2.52191 3.48017,-4.53312 7.73483,-5.73268 1.92923,-0.54393 2.55619,-0.5621 22.29183,-0.64611 l 20.30677,-0.0864 v 4.10159 4.10159 l -15.80885,0.0778 c -15.72506,0.0774 -15.81465,0.0809 -16.90071,0.66186 -0.6005,0.32122 -1.16605,0.77745 -1.25677,1.01383 -0.0907,0.23638 -0.16492,1.49161 -0.16492,2.78939 v 2.35961 h 17.06563 17.06562 v 4.23334 4.23333 H 23.400897 6.335277 v 2.23651 c 0,2.58493 0.25299,3.30244 1.4116,4.00362 0.79664,0.48209 1.6128,0.51035 16.7785,0.5808 l 15.94115,0.0741 v 4.22542 4.22542 l -17.79323,-0.036 c -9.78628,-0.0198 -18.78219,-0.13157 -19.99091,-0.2483 z m 60.80289,0.10994 c -7.61463,-1.17824 -11.2858,-2.80316 -12.77538,-5.65455 l -0.73747,-1.41167 0.0757,-12.72528 0.0757,-12.72527 0.67683,-1.31534 c 0.82169,-1.59683 2.76646,-3.14655 4.61484,-3.67739 3.49028,-1.00239 3.93729,-1.02279 24.80469,-1.13188 l 20.571293,-0.10754 v 4.11584 4.11584 l -15.544273,0.002 c -10.42572,0.001 -15.89278,0.0968 -16.60261,0.29088 -2.09677,0.57337 -1.98485,-0.0143 -1.98048,10.39813 0.004,10.20567 0.0154,10.28267 1.58729,11.07109 0.8473,0.42495 2.20908,0.46264 16.73122,0.46302 l 15.808853,2.6e-4 v 4.23333 4.23333 l -18.322403,-0.036 c -10.07731,-0.0198 -18.62005,-0.0821 -18.98385,-0.13838 z m 46.037503,-19.26869 v -19.45065 h 8.33438 8.33437 v 7.54063 7.54062 h 11.77393 11.77396 v -7.54062 -7.54063 h 8.3344 8.33435 v 19.44688 19.44687 h -8.33435 -8.3344 v -7.67291 -7.67292 h -11.76993 -11.76989 l -0.0702,7.60677 -0.0702,7.60677 -8.2682,0.0699 -8.26823,0.0699 z m 98.42498,-0.14828 v -19.3268 l 22.95263,0.0953 c 25.07422,0.10407 24.8566,0.0912 28.37653,1.68157 3.3551,1.51592 4.04874,3.04564 3.92224,8.64964 -0.0833,3.69031 -0.10816,3.83348 -0.8795,5.07439 -0.91326,1.46917 -2.82514,2.8878 -4.58245,3.40021 l -1.21526,0.35436 1.52754,0.48047 c 2.7431,0.86281 4.46948,2.31569 5.15573,4.33895 0.40103,1.18233 0.39245,6.9496 -0.0124,8.30065 -0.17454,0.58263 -0.884,1.6793 -1.57652,2.43704 -1.52889,1.67284 -3.51874,2.63051 -6.92732,3.33395 -2.26306,0.46704 -3.89099,0.50039 -24.58241,0.50363 l -22.15875,0.003 z m 37.42576,10.75024 c 1.22976,-0.51382 1.50408,-1.16843 1.41338,-3.37263 -0.0687,-1.66904 -0.15563,-1.94488 -0.75311,-2.38987 -1.07913,-0.80368 -3.52529,-0.99579 -12.75215,-1.00145 l -8.66513,-0.005 v 3.57187 3.57188 h 9.93036 c 7.96447,0 10.10783,-0.0741 10.82665,-0.37448 z m 1.09424,-15.84601 c 0.52681,-0.61263 0.63836,-1.03003 0.63836,-2.38852 0,-1.83428 -0.37397,-2.59158 -1.59041,-3.22063 -0.63903,-0.33044 -2.41777,-0.39536 -10.83189,-0.39536 h -10.06731 v 3.44828 3.44828 l 10.60645,-0.0748 10.60649,-0.0748 z m 27.36125,5.10799 v -19.31459 h 21.10748 c 13.14566,0 21.95314,0.10482 23.34945,0.27789 5.60705,0.69495 8.73051,2.19712 10.09777,4.85632 0.48522,0.94373 0.52803,1.50379 0.4948,6.47044 -0.034,5.07771 -0.0751,5.50735 -0.62159,6.49683 -0.78044,1.41309 -2.6407,2.77333 -5.0011,3.65686 -2.90859,1.08873 -4.20285,1.31324 -8.60663,1.49296 l -4.02672,0.16433 8.65693,7.05284 c 4.76128,3.87906 8.95455,7.29815 9.31836,7.59797 l 0.66145,0.54512 -9.65726,-2.6e-4 -9.65729,-2.6e-4 -8.86354,-7.28418 c -4.87495,-4.00629 -9.06929,-7.54428 -9.32069,-7.8622 -0.9988,-1.26296 -0.34486,-3.87674 1.28003,-5.1161 1.86756,-1.42449 3.62823,-1.7379 10.42191,-1.85522 7.17325,-0.12386 7.64503,-0.17409 8.42031,-0.89635 0.51654,-0.48126 0.57552,-0.80614 0.57552,-3.17171 0,-2.23383 -0.0764,-2.71192 -0.50125,-3.13678 -0.91472,-0.91485 -2.8643,-1.08641 -12.34409,-1.08641 h -9.1151 v 15.21355 15.21354 h -8.33435 -8.3344 z m 64.55836,0 v -19.31459 h 8.33434 8.33438 v 19.3146 19.31458 h -8.33438 -8.33434 z m 26.98747,0.01 v -19.32411 l 21.23284,0.002 c 12.62068,0.001 22.19862,0.11119 23.61403,0.27094 5.76795,0.65101 9.30019,2.32786 10.79736,5.1258 0.56777,1.06104 0.58145,1.32625 0.66167,12.85734 0.072,10.35252 0.0284,11.9743 -0.36171,13.43342 -0.78862,2.95015 -3.08634,4.90745 -7.26173,6.18585 l -1.9835,0.60731 -23.34948,0.0827 -23.34948,0.0827 v -19.3241 z m 38.45486,10.55962 c 1.16917,-0.91969 1.26328,-1.83743 1.17893,-11.49518 l -0.0786,-8.99584 -1.05834,-0.52916 c -0.99607,-0.49804 -1.67706,-0.53388 -11.57552,-0.6093 l -10.51718,-0.0801 v 11.12649 11.12649 h 10.67993 c 10.37233,0 10.69985,-0.0157 11.37073,-0.54336 z m 39.72954,8.4569 c -6.1618,-0.92102 -10.45604,-3.20466 -11.22349,-5.96851 -0.18153,-0.65375 -0.28345,-5.29844 -0.28443,-12.95812 0,-10.00746 0.0636,-12.12351 0.40058,-13.07871 1.29339,-3.66584 4.66376,-5.3825 11.90109,-6.06171 1.65934,-0.15573 10.44522,-0.27323 20.43904,-0.27336 l 17.52867,-2.2e-4 v 4.10104 4.10105 l -15.67659,0.002 c -10.01921,0.001 -16.03351,0.10061 -16.6656,0.27616 -0.54401,0.15108 -1.10958,0.49978 -1.2568,0.77488 -0.1665,0.31114 -0.2677,4.15019 -0.2677,10.15687 v 9.65667 l 0.85992,0.61333 c 0.85185,0.60761 0.94247,0.61411 9.72341,0.69709 9.06124,0.0856 10.40998,-0.0257 11.44323,-0.94462 0.41598,-0.36996 0.46302,-1.03917 0.46302,-6.58849 v -6.17681 h 8.20211 8.20206 v 7.22891 c 0,5.91904 -0.0764,7.45304 -0.42146,8.46582 -0.76618,2.24863 -3.75856,4.29414 -8.11821,5.5494 -1.82962,0.52681 -2.59008,0.55279 -17.78635,0.60769 -8.73125,0.0315 -16.5894,-0.0494 -17.4625,-0.17994 z m 64.02914,-0.23148 c -5.1762,-0.93263 -7.72657,-2.19748 -9.08783,-4.50706 l -0.70175,-1.19063 -0.0762,-12.09546 c -0.0867,-13.76303 -0.0542,-14.05015 1.83171,-16.1927 1.27873,-1.45269 3.93999,-2.81043 6.8435,-3.49145 1.7807,-0.41768 4.0413,-0.47525 22.02656,-0.561 l 20.04219,-0.0956 v 4.10362 4.10363 l -15.94117,0.0759 c -14.6322,0.0697 -16.01108,0.11416 -16.79321,0.54168 -1.21129,0.66214 -1.39687,1.17798 -1.39687,3.88247 v 2.39864 h 17.0656 17.06565 v 4.10104 4.10105 h -17.06565 -17.0656 v 2.65786 c 0,2.44584 0.0502,2.70804 0.6291,3.28698 1.17769,1.17768 1.81983,1.22061 18.09017,1.20946 l 15.41198,-0.0105 v 4.10104 4.10104 l -19.11617,-0.0216 c -17.19969,-0.0195 -19.38139,-0.0694 -21.76198,-0.49837 z m -607.61565,-16.54608 v -3.57187 h 14.68437 14.68438 v 3.57187 3.57188 h -14.68438 -14.68437 z M 529.5843,155.12841 c -2.42625,-0.61299 -4.60843,-1.92419 -6.83233,-4.10534 -3.34383,-3.27956 -4.62942,-6.61476 -4.38084,-11.36519 0.15047,-2.87631 0.73152,-4.67117 2.28269,-7.05122 2.08381,-3.19735 4.88421,-5.32081 8.32808,-6.31497 2.20763,-0.63729 7.09189,-0.45108 9.29817,0.35448 3.35201,1.22388 6.50375,4.07247 8.17192,7.38578 2.1381,4.24688 1.89921,10.26992 -0.56274,14.18775 -1.66992,2.65738 -5.01081,5.36663 -7.96732,6.46102 -2.22922,0.82516 -6.0348,1.02951 -8.33763,0.44769 z m 7.31851,-1.98041 c 3.40016,-1.05021 6.7174,-3.91465 8.20796,-7.08758 0.80515,-1.71392 0.83325,-1.89352 0.83571,-5.34538 0.003,-3.13449 -0.0733,-3.76058 -0.61714,-5.11287 -1.42208,-3.53613 -4.58782,-6.48074 -8.15049,-7.58113 -3.40548,-1.05186 -7.80883,-0.58526 -10.75153,1.13927 -1.72479,1.01081 -4.36999,3.98198 -5.28402,5.93522 -3.26681,6.981 0.454,15.4676 7.90509,18.03026 2.12664,0.73142 5.52712,0.74104 7.85442,0.0222 z m -9.86753,-12.85507 v -8.35961 l 4.83648,0.0914 c 4.54914,0.0859 4.91299,0.13077 6.12423,0.75448 1.85555,0.95548 2.3999,1.80015 2.37429,3.6844 -0.0276,2.03037 -0.75607,3.22255 -2.4679,4.03888 l -1.27799,0.60945 1.80086,3.77032 1.80086,3.77031 h -1.56959 -1.56956 l -1.78017,-3.57188 -1.78017,-3.57187 h -1.65817 -1.65817 v 3.57187 3.57188 h -1.5875 -1.5875 z m 8.09178,-0.93395 c 1.50852,-0.37985 2.22697,-1.26202 2.22697,-2.73454 0,-1.98599 -1.46542,-2.78857 -5.09151,-2.78857 h -2.05224 v 2.91042 2.91041 h 1.86722 c 1.02695,0 2.39924,-0.13397 3.04956,-0.29772 z M -73.03972,66.36712 V 33.55879 h 8.20208 8.20209 v 32.80833 32.80833 h -8.20209 -8.20208 z m 352.42497,0 V 33.55879 h 8.20211 8.20209 v 32.80833 32.80833 h -8.20209 -8.20211 z m -394.22616,13.5599 0.003,-17.66095 3.56889,-1.49583 3.5689,-1.49582 v 19.15676 19.15677 h -3.57188 -3.57187 l 0.003,-17.66093 z m 12.9616,-2.84428 c 0,-13.67501 0.0893,-20.5052 0.26814,-20.5052 0.14748,0 1.60599,-0.60483 3.24115,-1.34405 1.63515,-0.73923 3.12183,-1.40681 3.30373,-1.48351 0.26305,-0.11094 0.33073,4.36027 0.33073,21.84925 v 21.98872 h -3.57187 -3.57188 z m 12.9753,-2.84427 0.0107,-23.34948 3.69345,-1.7721 3.69345,-1.77211 v 25.12159 25.12158 h -3.70416 -3.70417 l 0.0107,-23.34948 z m 40.47054,-1.65364 c 0,-13.75172 0.0612,-25.00313 0.13608,-25.00313 0.0748,0 1.68216,0.77476 3.57187,1.72169 l 3.4358,1.72168 v 23.28144 23.28144 h -3.57188 -3.57187 z m 12.964577,3.05137 V 53.68445 l 2.57969,1.21381 c 1.41883,0.6676 3.02496,1.40784 3.56918,1.64498 l 0.98951,0.43117 0.003,20.30677 0.003,20.30677 h -3.57187 -3.57188 V 75.6362 Z m 12.96459,2.91005 c 0,-18.02575 0.0246,-19.03228 0.46302,-18.86533 0.25466,0.097 1.89177,0.79139 3.63802,1.5431 l 3.175,1.36675 0.068,17.49859 0.0681,17.49859 h -3.70607 -3.70604 z m 13.22916,2.7721 v -16.2696 l 1.65365,0.63213 c 0.9095,0.34768 2.51685,0.97125 3.57187,1.3857 l 1.91823,0.75357 v 14.8839 14.8839 h -3.57187 -3.57188 z m 12.96459,2.51127 c 0,-7.56708 0.0715,-13.75833 0.1588,-13.75833 0.0873,0 1.69468,0.55356 3.57187,1.23017 l 3.41308,1.23016 v 12.52817 12.52816 h -3.57188 -3.57187 z m 12.96458,2.24896 c 0,-6.33016 0.071,-11.50938 0.15788,-11.50938 0.0868,0 1.69418,0.48436 3.57187,1.07635 l 3.414,1.07634 v 10.43303 10.43303 h -3.57188 -3.57187 z m 12.96458,1.98437 c 0,-5.23875 0.0893,-9.52315 0.19844,-9.5209 0.10914,0.002 1.68672,0.401 3.50573,0.88608 l 3.30729,0.882 0.0698,8.63891 0.0697,8.63891 h -3.57548 -3.5755 z m 13.22917,1.71979 c 0,-4.29286 0.0634,-7.8052 0.14089,-7.8052 0.0775,0 1.68487,0.36704 3.57188,0.81564 l 3.43098,0.81564 v 6.98957 6.98956 h -3.57188 -3.57187 z m 12.7,1.45521 c 0,-3.4925 0.0651,-6.35 0.1447,-6.35 0.28496,0 6.34706,1.09019 6.80061,1.223 0.42236,0.12367 0.46302,0.63365 0.46302,5.80629 v 5.67071 h -3.70416 -3.70417 z m 13.22917,1.19063 c 0,-4.73718 0.0379,-5.1594 0.46302,-5.1597 0.25466,-1.8e-4 1.862,0.19748 3.57187,0.43925 l 3.10886,0.43958 v 4.72012 4.72012 h -3.57188 -3.57187 z m 12.96458,0.77048 v -4.38887 l 0.99219,0.147 c 0.5457,0.0809 1.94468,0.21982 3.10885,0.30881 3.33735,0.25512 3.04271,-0.16814 3.04271,4.37103 v 3.95092 h -3.57188 -3.57187 z m 12.96458,0.51647 v -3.87242 l 1.22756,0.16825 c 0.67514,0.0925 2.34202,0.16826 3.70417,0.16826 h 2.476613 v 3.70417 3.70416 h -3.704173 -3.70417 z M 107.6707,94.01608 V 90.4442 h 3.57187 3.57188 v 3.57188 3.57187 h -3.57188 -3.57187 z M 120.89986,93.9 v -3.68796 l 1.12448,-0.13682 c 0.61847,-0.0753 2.22581,-0.20589 3.57188,-0.2903 l 2.44739,-0.15348 v 3.97826 3.97825 h -3.57187 -3.57188 z m 12.96459,-0.54538 c 0,-3.20778 0.0801,-4.23447 0.33073,-4.23804 0.69098,-0.01 4.9018,-0.48939 5.8362,-0.66469 l 0.97682,-0.18324 v 4.65965 4.65965 h -3.57188 -3.57187 z m 12.96458,-0.755 v -4.98833 l 2.84427,-0.46115 c 1.56435,-0.25364 3.17169,-0.52408 3.57188,-0.60099 l 0.7276,-0.13984 v 5.58932 5.58932 h -3.57188 -3.57187 z m 12.96458,-1.05998 v -6.04831 l 2.97657,-0.58553 c 1.63711,-0.32204 3.24442,-0.64931 3.57187,-0.72724 l 0.59531,-0.14172 v 6.77555 6.77556 h -3.57187 -3.57188 z m 13.22917,-1.32726 V 82.8368 l 3.30033,-0.82651 c 1.8152,-0.45459 3.42255,-0.8265 3.5719,-0.8265 0.17976,0 0.27152,2.77056 0.27152,8.20208 v 8.20208 h -3.57188 -3.57187 z m 12.96458,-1.59974 v -8.97532 l 0.85987,-0.26767 c 1.17184,-0.36477 5.91931,-1.62545 6.12116,-1.62545 0.0895,0 0.16272,4.46485 0.16272,9.92188 v 9.92187 h -3.57187 -3.57188 z m 12.96459,-1.86123 V 75.91487 l 3.46448,-1.08891 c 1.90545,-0.5989 3.51279,-1.04058 3.57187,-0.98152 0.0591,0.0591 0.1074,5.42553 0.1074,11.92546 v 11.81805 h -3.57188 -3.57187 z m 12.96641,-2.06189 0.003,-12.89844 3.57007,-1.219 3.57005,-1.219 v 14.11744 14.11743 h -3.57187 -3.57188 l 0.003,-12.89843 z m 12.96275,-2.29198 V 67.20713 l 1.91823,-0.72126 c 1.05503,-0.39669 2.62337,-1.00241 3.48517,-1.34606 0.86186,-0.34362 1.606,-0.62477 1.65368,-0.62477 0.0477,0 0.0867,7.4414 0.0867,16.53645 v 16.53646 h -3.57187 -3.57188 z m 13.22914,-2.5001 V 62.20695 l 2.57972,-1.07313 c 1.41883,-0.59023 3.02617,-1.26312 3.57187,-1.49534 l 0.99216,-0.42221 v 19.18584 19.18584 h -3.57185 -3.5719 z m 12.96461,-2.76601 V 56.67491 l 1.52136,-0.61974 c 0.83674,-0.34085 2.44409,-1.07846 3.57187,-1.63914 l 2.05052,-1.0194 v 22.09566 22.09566 h -3.57187 -3.57188 z m 12.96459,-2.91962 V 50.83568 l 3.44061,-1.62699 c 1.89233,-0.89484 3.49967,-1.62699 3.57188,-1.62699 0.0722,0 0.13126,11.25141 0.13126,25.00313 v 25.00312 h -3.57188 -3.57187 z M 304.5207,72.59653 V 47.6051 l 3.50573,1.65947 3.50572,1.65947 0.0676,23.33196 0.0676,23.33195 h -3.57333 -3.57331 z m 12.96458,3.1633 c 0,-12.03961 0.10223,-21.82813 0.22796,-21.82813 0.12542,0 1.73273,0.71121 3.57191,1.58046 l 3.34388,1.58045 v 20.24767 20.24767 h -3.57188 -3.57187 z m 12.96458,2.7987 V 59.5291 l 3.50571,1.51663 3.50573,1.51662 0.068,17.5128 0.0681,17.5128 h -3.57378 -3.57373 z"
         id="path4839"
         inkscape:connector-curvature="0" />
      <path
         style="fill:#32474e;stroke-width:0.26458338"
         d="m -141.43452,250.76767 c -2.5599,-0.61992 -2.51354,-0.5607 -2.51354,-3.21109 v -2.36717 l 0.81802,0.58249 c 1.02585,0.73047 3.68255,1.57069 4.96024,1.56874 3.53901,-0.005 5.17486,-2.14597 3.12058,-4.08341 -0.4899,-0.46204 -2.00795,-1.30605 -3.37343,-1.87558 -4.52293,-1.88647 -6.36254,-4.57292 -5.52425,-8.0673 0.58516,-2.43923 2.50981,-4.0772 5.59649,-4.7629 1.7288,-0.38405 6.23229,-0.22428 7.56537,0.26839 l 0.8599,0.31779 v 2.22918 2.22917 l -0.59531,-0.38952 c -0.74045,-0.48447 -3.47625,-1.21068 -4.55351,-1.2087 -2.16763,0.004 -3.84702,1.01715 -3.84702,2.3209 0,1.25881 0.75749,1.92499 3.83078,3.36905 4.69667,2.20684 5.95881,3.6633 5.95881,6.87628 0,2.76397 -1.18992,4.53894 -3.83646,5.72276 -1.07519,0.48094 -1.8927,0.60537 -4.36563,0.66448 -1.67349,0.04 -3.51896,-0.0426 -4.10104,-0.18356 z m 89.2536,-0.22908 c -3.92322,-1.25468 -6.28423,-4.20761 -6.926,-8.66237 -0.89466,-6.21015 2.82681,-11.97569 8.58713,-13.30368 1.52345,-0.35121 5.31371,-0.30946 6.98111,0.0769 l 1.32292,0.30655 0.0762,2.2974 0.0762,2.29739 -1.45865,-0.51267 c -2.2098,-0.77668 -5.2116,-0.70688 -6.95465,0.16171 -1.45743,0.72628 -2.60763,2.01694 -3.15029,3.53508 -0.4281,1.19766 -0.45971,4.53373 -0.0557,5.88215 0.41026,1.36939 1.92886,3.09674 3.25003,3.69684 1.81213,0.8231 5.34263,0.63185 7.89734,-0.42782 0.43719,-0.18133 0.4682,-0.0235 0.39687,2.01872 l -0.0774,2.21543 -1.71979,0.44497 c -2.35305,0.60882 -6.2983,0.59608 -8.24537,-0.0266 z m 44.890157,0.15408 c -2.77429,-0.92064 -4.34123,-2.48381 -5.16575,-5.1533 -0.46956,-1.5202 -0.52279,-2.47115 -0.52279,-9.33763 v -7.64504 h 2.36307 2.3631 l 0.0843,7.60677 c 0.0761,6.86691 0.13372,7.70631 0.59232,8.63019 0.7761,1.5636 1.77871,2.06532 3.91491,1.95908 1.53879,-0.0765 1.88491,-0.1917 2.58135,-0.85894 0.44236,-0.42381 0.92194,-1.19405 1.06574,-1.71164 0.14378,-0.5176 0.2621,-4.24507 0.26289,-8.28327 l 0.003,-7.34219 h 2.51354 2.51354 l -0.003,6.68073 c -0.003,9.04427 -0.37053,11.02291 -2.48394,13.36221 -1.44634,1.60093 -3.19617,2.24698 -6.3776,2.35468 -1.72034,0.0582 -3.01601,-0.0333 -3.70416,-0.26165 z m 252.286583,-0.0705 c -3.9788,-1.06921 -6.54616,-4.14113 -7.21241,-8.62991 -0.34708,-2.33865 0.0425,-5.22629 0.98208,-7.2786 1.29736,-2.83373 4.50393,-5.43256 7.57719,-6.14108 1.52348,-0.35121 5.31374,-0.30946 6.98114,0.0769 l 1.32292,0.30655 0.0762,2.2974 0.0762,2.29739 -1.45868,-0.51267 c -1.94595,-0.68397 -5.15882,-0.68912 -6.65263,-0.0107 -1.47679,0.67073 -2.90414,2.21057 -3.40116,3.66924 -0.64183,1.88368 -0.54309,4.93298 0.21235,6.5552 0.66411,1.42618 1.88762,2.62588 3.26784,3.20428 1.61097,0.67508 5.2133,0.40345 7.56037,-0.57008 0.43719,-0.18133 0.4682,-0.0235 0.39687,2.01872 l -0.0774,2.21544 -1.7198,0.44497 c -2.13558,0.55256 -5.98389,0.58018 -7.93109,0.0569 z m 45.43171,0.15266 c -1.51183,-0.38104 -3.02926,-1.23551 -4.34038,-2.44406 -2.28275,-2.10416 -3.27808,-4.70169 -3.28316,-8.56803 -0.005,-3.79644 1.08161,-6.48737 3.52927,-8.73981 2.28317,-2.10113 4.73398,-2.88538 8.31803,-2.66179 3.99224,0.24908 6.88059,2.24121 8.61113,5.93926 0.68201,1.45751 0.83299,2.15009 0.93631,4.29579 0.20745,4.30862 -0.78333,7.18353 -3.29417,9.55818 -2.10609,1.99183 -3.85686,2.69501 -6.95198,2.79218 -1.39081,0.0437 -2.97709,-0.0336 -3.52505,-0.17172 z m 6.33349,-4.92025 c 2.15622,-1.74519 2.99779,-5.29422 2.09405,-8.83118 -0.7773,-3.0419 -2.47843,-4.49676 -5.25897,-4.4975 -3.45786,-7.9e-4 -5.41327,2.23145 -5.67848,6.48281 -0.16622,2.66383 0.35419,4.6493 1.5798,6.02754 1.3222,1.48685 2.15397,1.81523 4.35438,1.71909 1.66309,-0.0727 2.02424,-0.18449 2.90922,-0.90076 z m -615.42566,3.54683 c -0.21934,-0.76879 -1.48505,-5.56498 -2.81269,-10.65821 -1.32764,-5.09323 -2.47549,-9.46878 -2.55077,-9.72344 -0.12391,-0.4192 0.11321,-0.46302 2.50559,-0.46302 h 2.64245 l 0.40228,1.78594 c 0.96378,4.2787 3.08161,14.66647 3.10129,15.2115 0.0119,0.32854 0.19407,-0.17656 0.40491,-1.12244 0.21083,-0.94589 1.2515,-4.87495 2.3126,-8.73125 l 1.92927,-7.01146 2.62717,-0.0747 2.62718,-0.0747 1.93044,8.01217 c 1.06174,4.4067 1.92476,8.22054 1.91782,8.4752 -0.007,0.25466 0.10644,0.46302 0.25196,0.46302 0.14552,0 0.26458,-0.29019 0.26458,-0.64486 0,-0.62746 3.13243,-16.06952 3.2921,-16.22919 0.044,-0.044 1.1428,-0.0456 2.44172,-0.004 l 2.36168,0.0765 -2.91508,11.04634 -2.91508,11.04637 h -2.72017 c -1.49609,0 -2.72017,-0.051 -2.72017,-0.11333 0,-0.0623 -0.89215,-3.5449 -1.98257,-7.73905 -1.09041,-4.19416 -1.98988,-7.92341 -1.99882,-8.28722 -0.009,-0.36379 -0.60229,1.60073 -1.31855,4.36564 -0.71625,2.7649 -1.70105,6.51535 -2.18842,8.33438 l -0.88614,3.30728 -2.80289,0.0749 -2.8029,0.0749 z m 53.802,-9.73217 v -11.1125 h 6.35 6.35 v 1.98437 1.98438 h -3.83646 -3.83646 v 2.51354 2.51354 h 3.57189 3.57186 v 1.98438 1.98437 h -3.57186 -3.57189 v 2.64584 2.64583 h 4.10104 4.10105 v 1.98437 1.98438 h -6.61459 -6.61458 z m 42.33333,0.0267 v -11.13923 h 4.4101 c 6.61726,0 8.96556,0.59429 10.32615,2.61328 1.66885,2.4764 0.68413,5.52773 -2.26808,7.02809 l -1.22289,0.62149 1.05809,0.28678 c 3.75938,1.01891 5.25221,5.00739 3.14912,8.41373 -0.63032,1.02092 -1.15278,1.4631 -2.60334,2.2033 l -1.81475,0.92604 -5.5172,0.0929 -5.5172,0.0929 z m 9.94296,6.88274 c 1.59808,-0.97451 1.84222,-3.27441 0.48321,-4.55205 -0.5988,-0.56295 -0.97021,-0.64837 -3.17095,-0.72932 l -2.49272,-0.0917 v 2.93595 2.93596 l 2.18281,-0.001 c 1.66862,-7.9e-4 2.37476,-0.11803 2.99765,-0.49787 z m -0.94183,-9.42575 c 0.42502,-0.21979 0.89536,-0.62868 1.04519,-0.90865 0.30226,-0.56478 0.36261,-2.11762 0.10808,-2.78093 -0.29353,-0.76492 -1.57682,-1.20248 -3.52668,-1.20248 h -1.86522 v 2.64584 2.64583 h 1.73293 c 1.02817,0 2.0472,-0.16252 2.5057,-0.39961 z m 113.50095,2.51628 v -11.1125 h 6.35 6.35 v 1.98437 1.98438 h -3.83645 -3.83646 v 2.51354 2.51354 h 3.57187 3.57188 v 1.98438 1.98437 h -3.57188 -3.57187 v 2.64584 2.64583 h 4.10104 4.10104 v 1.98437 1.98438 h -6.61458 -6.61459 z m 135.466677,0 v -11.1125 h 4.44931 c 6.36733,0 8.63693,0.53021 10.19482,2.38168 1.35482,1.61011 1.56075,4.41213 0.47987,6.52991 -0.6392,1.25242 -1.1439,1.71491 -2.96936,2.72108 -0.79145,0.43624 -1.29434,0.79532 -1.1175,0.79795 0.75486,0.0112 2.33858,1.88646 4.6975,5.56201 1.38689,2.16099 2.52161,3.99731 2.52161,4.08072 0,0.0834 -1.22039,0.14872 -2.71198,0.14515 l -2.71198,-0.007 -2.11667,-3.59063 c -2.47951,-4.20615 -3.12555,-4.86303 -4.78279,-4.86303 h -1.17033 v 4.23334 4.23333 h -2.38125 -2.38125 z m 8.7336,-1.48703 c 1.53625,-0.61468 2.28407,-2.24162 1.81356,-3.94562 -0.38909,-1.40925 -1.49384,-1.97347 -3.86643,-1.9747 l -1.91823,-0.001 v 3.175 3.175 h 1.44986 c 0.7974,0 1.93199,-0.19292 2.52124,-0.42869 z m 37.3039,1.48703 v -11.1125 h 2.38125 2.38125 v 11.1125 11.1125 h -2.38125 -2.38125 z m 39.422913,1.98437 v -9.12812 h -3.175 -3.175 v -1.98438 -1.98437 h 8.86354 8.86355 v 1.98437 1.98438 h -3.175 -3.175 v 9.12812 9.12813 h -2.51355 -2.51354 z m 44.18542,5.21261 v -3.91552 l -3.43958,-6.95526 c -1.89177,-3.8254 -3.43959,-7.0682 -3.43959,-7.20624 0,-0.14679 1.12282,-0.21967 2.70489,-0.17557 l 2.70492,0.0754 1.92145,4.49792 c 1.0568,2.47385 1.92318,4.70627 1.9253,4.96093 0.003,0.25467 0.12292,0.46302 0.26844,0.46302 0.14552,0 0.26818,-0.20835 0.27258,-0.46302 0.005,-0.25466 0.89095,-2.48708 1.97008,-4.96093 l 1.9621,-4.49792 2.52783,-0.0757 c 1.39031,-0.0417 2.52783,0.008 2.52783,0.11028 0,0.1023 -1.60734,3.32096 -3.57188,7.15257 l -3.57187,6.96656 v 3.96951 3.96952 h -2.38125 -2.38125 z m 168.275,-7.20445 v -11.11997 l 3.63799,0.0736 3.63803,0.0736 2.42763,7.01146 c 1.33522,3.8563 2.50957,7.51747 2.60971,8.13594 0.18225,1.1251 0.6512,1.57122 0.6512,0.61944 0,-0.27777 1.17438,-3.93894 2.60977,-8.13594 l 2.60972,-7.6309 3.47569,-0.0738 3.47568,-0.0738 v 11.12018 11.12018 h -2.40724 -2.4072 l 0.0921,-9.16383 c 0.0795,-7.90659 0.0447,-8.98651 -0.25323,-7.87136 -0.18997,0.71086 -1.55753,4.83909 -3.03903,9.17384 l -2.69367,7.88136 -1.97409,-0.0762 -1.97405,-0.0761 -2.60191,-7.27604 c -1.431,-4.00183 -2.78612,-8.04941 -3.01139,-8.99463 -0.22518,-0.94522 -0.43661,-1.74571 -0.46976,-1.77887 -0.0332,-0.0332 -0.008,4.04419 0.0547,9.06077 l 0.11496,9.12106 h -2.28278 -2.28279 z m 55.5625,-0.0197 v -11.13966 l 5.35779,0.11902 c 6.19162,0.13753 7.29271,0.40104 9.05981,2.16817 1.34556,1.34554 1.822,2.8749 1.67976,5.39203 -0.12925,2.28698 -1.10139,4.01586 -2.96127,5.26642 -1.65383,1.112 -2.69555,1.40342 -5.66161,1.58393 l -2.44742,0.14895 v 3.80041 3.8004 h -2.51354 -2.51352 z m 9.07045,-0.59778 c 1.32384,-0.56032 1.85345,-1.33278 1.97805,-2.88489 0.20558,-2.56173 -1.28958,-3.85205 -4.50006,-3.88357 l -1.52138,-0.0149 v 3.57188 3.57187 h 1.59602 c 0.8778,0 1.97911,-0.16217 2.44737,-0.36036 z m 33.52747,11.59388 c 0,-0.0789 1.68074,-4.75215 3.73499,-10.38489 2.05425,-5.63274 3.85183,-10.56877 3.99465,-10.96895 l 0.25964,-0.7276 h 2.8562 c 2.4738,0 2.88084,0.062 3.04009,0.46302 0.1011,0.25466 1.73302,4.8088 3.62654,10.12031 1.89349,5.31151 3.60558,10.1079 3.80468,10.65864 l 0.36203,1.00135 -2.69052,-0.0753 -2.69055,-0.0753 -0.75057,-2.4474 -0.7506,-2.44739 h -4.05447 -4.05453 l -0.75512,2.51354 -0.75512,2.51354 h -2.58866 c -1.4238,0 -2.58868,-0.0646 -2.58868,-0.14356 z m 13.49375,-8.93081 c 0,-0.18872 -0.45768,-1.70677 -1.01706,-3.37344 -0.55938,-1.66668 -1.17832,-3.68516 -1.37541,-4.48553 -0.2254,-0.91536 -0.39899,-1.2589 -0.46794,-0.92604 -0.0603,0.29104 -0.69149,2.32986 -1.40272,4.5307 -0.71125,2.20084 -1.29312,4.1356 -1.29312,4.29948 0,0.20196 0.89498,0.29795 2.7781,0.29795 2.09965,0 2.77815,-0.0838 2.77815,-0.34312 z m 36.24789,-2.04739 v -11.12176 l 2.69486,0.0754 2.69486,0.0754 4.97808,7.64226 4.97806,7.64226 v -7.7084 -7.70841 h 2.24893 2.24896 v 11.12243 11.12243 l -2.43721,-0.0761 -2.43721,-0.0761 -5.08302,-7.76277 c -2.79564,-4.26952 -5.12196,-7.80186 -5.16953,-7.84965 -0.0476,-0.0478 -0.0475,3.47522 0,7.82891 l 0.0868,7.9158 h -2.40194 -2.40194 v -11.12176 z m 55.03333,7.31838 v -3.80339 l -3.56243,-7.31797 -3.56248,-7.31797 2.78609,0.075 2.78606,0.075 1.72371,3.96875 c 0.948,2.18281 1.87632,4.445 2.06293,5.02708 0.28559,0.89074 0.36917,0.97454 0.528,0.52917 0.2336,-0.65508 2.52304,-6.07569 3.43625,-8.13594 l 0.67437,-1.52135 h 2.51783 2.5178 l -3.5728,7.14186 -3.57283,7.14186 v 3.97064 3.97064 h -2.38125 -2.38125 z M -324.65847,180.9317 v -19.31459 h 8.33437 8.33438 v 7.54063 7.54062 h 11.77395 11.77396 v -7.54062 -7.54063 h 8.33439 8.33436 v 19.3146 19.31458 h -8.33436 -8.33439 v -7.67292 -7.67291 h -11.77396 -11.77395 v 7.67291 7.67292 h -8.33438 -8.33437 z m 67.20416,0 v -19.31459 h 8.33439 8.33436 v 19.3146 19.31458 h -8.33436 -8.33439 z m 38.49688,19.02604 c -6.16178,-0.92102 -10.45603,-3.20466 -11.22347,-5.96851 -0.18153,-0.65375 -0.28348,-5.29844 -0.28443,-12.95812 -0.001,-10.00746 0.0636,-12.12351 0.40059,-13.07871 1.29338,-3.66584 4.66375,-5.3825 11.90106,-6.06171 1.6619,-0.15597 10.48658,-0.27323 20.57135,-0.27336 l 17.66094,-2.2e-4 v 4.09331 4.0933 l -16.38301,0.0739 -16.383,0.0739 -0.68262,0.64143 -0.68262,0.64143 v 9.6232 9.6232 l 0.63189,0.6319 c 0.34755,0.34754 1.03216,0.70618 1.52136,0.79698 0.4892,0.0908 4.89931,0.12846 9.80024,0.0837 8.58313,-0.0784 8.93823,-0.1019 9.65729,-0.63892 l 0.74651,-0.55751 0.0709,-6.25551 0.0709,-6.25551 h 8.19729 8.1973 v 7.22891 c 0,5.91904 -0.0764,7.45304 -0.42146,8.46582 -0.76619,2.24863 -3.75855,4.29414 -8.11821,5.5494 -1.82966,0.52681 -2.5901,0.55279 -17.78637,0.60769 -8.73125,0.0315 -16.58938,-0.0494 -17.4625,-0.17994 z m 54.10729,-19.02604 v -19.31459 h 8.33437 8.33438 v 7.54063 7.54062 h 11.90625 11.90625 v -7.54062 -7.54063 h 8.20208 8.20208 v 19.3146 19.31458 h -8.20208 -8.20208 v -7.67292 -7.67291 h -11.90625 -11.90625 v 7.67291 7.67292 h -8.33438 -8.33437 z m 114.82917,4.10104 V 169.8192 h -8.33438 -8.33438 v -4.10105 -4.10104 h 25.00313 25.003127 v 4.10104 4.10105 h -8.33438 -8.33437 v 15.21355 15.21354 h -8.334377 -8.33437 z m 50.199047,14.8136 c -4.19293,-0.70494 -7.2041,-1.91145 -8.71977,-3.49384 -1.5286,-1.5959 -1.5272,-1.58183 -1.5272,-15.22807 v -12.52424 l 0.69546,-1.39558 c 1.19571,-2.39949 3.64969,-3.92602 8.03579,-4.99876 1.475,-0.36076 4.57256,-0.43455 21.76198,-0.51844 l 20.04219,-0.0978 v 4.1148 4.11481 h -15.27813 c -19.65129,0 -18.85312,-0.18732 -18.85312,4.42449 v 2.45467 h 17.06562 17.06563 v 4.10104 4.10105 H 23.400897 6.335277 v 2.65786 c 0,2.44584 0.0502,2.70804 0.62913,3.28698 1.17768,1.17768 1.8198,1.22061 18.09014,1.20946 l 15.41198,-0.0105 v 4.10104 4.10104 l -19.11615,-0.0271 c -14.40116,-0.0204 -19.6233,-0.11239 -21.1723,-0.37282 z m 60.06904,-0.13239 c -5.50389,-1.14617 -8.18155,-2.58583 -9.54357,-5.13116 -0.56891,-1.06314 -0.58116,-1.31009 -0.65603,-13.21766 -0.0858,-13.6358 -0.0337,-14.13014 1.69153,-16.0397 3.07372,-3.40224 5.60697,-3.70832 30.69198,-3.70832 h 18.360503 v 4.10104 4.10105 H 84.908037 c -16.73913,0 -17.23541,0.0329 -18.08835,1.19774 -0.20569,0.2809 -0.2527,3.20418 -0.15941,9.91343 l 0.13229,9.51506 0.73351,0.73324 0.73347,0.73324 16.26601,0.0721 16.265973,0.0721 v 4.09512 4.09513 l -19.116153,-0.0254 c -17.40082,-0.0231 -19.3236,-0.0686 -21.42826,-0.50691 z M 109.52278,180.9317 v -19.31459 h 8.20208 8.20209 v 7.54063 7.54062 h 11.90625 11.90625 v -7.54062 -7.54063 h 8.33437 8.33438 v 19.3146 19.31458 h -8.33438 -8.33437 v -7.67292 -7.67291 H 137.8332 125.92695 v 7.67291 7.67292 h -8.20209 -8.20208 z m -209.55001,2.11666 v -3.43958 h 14.68438 14.68437 v 3.43958 3.43959 h -14.68437 -14.68438 z M -73.03973,66.49939 V 33.82337 h 8.20209 8.20209 v 32.67604 32.67604 h -8.20209 -8.20209 z m 352.42498,0 V 33.82337 h 8.20211 8.20209 v 32.67604 32.67604 h -8.20209 -8.20211 z"
         id="path4829"
         inkscape:connector-curvature="0" />
    </g>
  </g>
</svg>
