<?xml version="1.0" encoding="UTF-8" standalone="no"?>
<svg
   xmlns:dc="http://purl.org/dc/elements/1.1/"
   xmlns:cc="http://creativecommons.org/ns#"
   xmlns:rdf="http://www.w3.org/1999/02/22-rdf-syntax-ns#"
   xmlns:svg="http://www.w3.org/2000/svg"
   xmlns="http://www.w3.org/2000/svg"
   viewBox="0 0 249.45332 113.38667"
   height="113.38667"
   width="249.45332"
   xml:space="preserve"
   id="svg2"
   version="1.1"><metadata
     id="metadata8"><rdf:RDF><cc:Work
         rdf:about=""><dc:format>image/svg+xml</dc:format><dc:type
           rdf:resource="http://purl.org/dc/dcmitype/StillImage" /></cc:Work></rdf:RDF></metadata><defs
     id="defs6" /><g
     transform="matrix(1.3333333,0,0,-1.3333333,0,113.38667)"
     id="g10"><g
       transform="scale(0.1)"
       id="g12"><path
         id="path14"
         style="fill:#325898;fill-opacity:1;fill-rule:nonzero;stroke:none"
         d="M 753.102,443.086 V 331.047 c -10.051,-2 -48.739,-9.539 -84.418,0 v -76.371 c 9.039,-1.52 18.097,-2.02 28.648,-2.02 45.719,0 101.988,5.539 137.672,18.602 v 171.828 z m 64.32,98.492 18.582,70.848 c -33.774,14.41 -71.473,16.66 -95.383,16.859 -23.617,0.192 -49.82,-3.297 -72.449,-9.328 v -74.359 c 22.629,6.531 52.762,10.05 74.371,9.55 35.18,-0.5 59.789,-8.031 74.879,-13.57" /><path
         id="path16"
         style="fill:#325898;fill-opacity:1;fill-rule:nonzero;stroke:none"
         d="m 438.563,557.656 0.5,68.328 c -97.981,15.582 -167.309,-26.629 -167.309,-104.5 0.488,-69.347 63.309,-99.148 115.559,-119.257 14.57,-5.532 41.488,-15.161 50.929,-23.032 l 0.321,79.481 -39.7,19.09 c -22.09,10.55 -42.703,23.621 -42.703,46.218 0,16.59 10.051,36.692 48.731,36.692 9.543,0 20.101,-0.5 33.672,-3.02 M 289.66,341.465 271.754,271.758 c 27.117,-13.063 59.789,-19.602 96.969,-20.602 23.609,-0.5 47.73,1.5 69.84,8.039 v 69.7 c -28.622,-11.008 -45.922,-10.219 -64.782,-9.438 -25.347,1.051 -63.019,10.461 -84.121,22.008" /><path
         id="path18"
         style="fill:#959981;fill-opacity:1;fill-rule:nonzero;stroke:none"
         d="M 511.418,510.93 V 255.18 h 83.918 v 340.16 c -41.668,-18.512 -73.367,-57.774 -83.918,-84.41" /><path
         id="path20"
         style="fill:#959981;fill-opacity:1;fill-rule:nonzero;stroke:none"
         d="m 948.426,516.418 c -5.008,0 -10.02,0.52 -14.391,1.672 l 0.832,12.621 c 3.961,-1.363 9.602,-2.512 14.711,-2.512 6.879,0 12.199,2.821 12.199,9.281 0,13.458 -29.511,7.309 -29.511,30.458 0,12.511 9.902,21.16 26.8,21.16 3.961,0 8.551,-0.52 12.711,-1.25 l -0.73,-11.887 c -3.961,1.148 -8.34,1.879 -12.609,1.879 -7.833,0 -11.79,-3.539 -11.79,-8.551 0,-12.621 29.618,-7.922 29.618,-29.93 0,-13.242 -10.528,-22.941 -27.84,-22.941" /><path
         id="path22"
         style="fill:#959981;fill-opacity:1;fill-rule:nonzero;stroke:none"
         d="m 1010.25,516.527 c -14.699,0 -24.187,7.61 -24.187,26.071 0,16.16 10.738,27.84 26.487,27.84 14.7,0 24.19,-8.133 24.19,-25.961 0,-16.27 -10.95,-27.95 -26.49,-27.95 m 1.36,42.649 c -5.94,0 -11.778,-4.59 -11.778,-15.231 0,-10.629 3.858,-16.05 11.568,-16.05 6.57,0 11.58,5.32 11.58,15.839 0,10.024 -3.55,15.442 -11.37,15.442" /><path
         id="path24"
         style="fill:#959981;fill-opacity:1;fill-rule:nonzero;stroke:none"
         d="m 1080.83,582.742 c -2.08,0.731 -4.48,0.942 -6.47,0.942 -5.83,0 -8.44,-3.032 -8.44,-9.911 v -4.378 h 12.1 v -10.321 h -12.1 v -41.511 h -13.25 v 41.511 h -9.07 v 10.321 h 9.07 v 4.168 c 0,14.082 6.47,20.96 20.65,20.96 2.82,0 5.73,-0.199 8.44,-0.832 l -0.93,-10.949" /><path
         id="path26"
         style="fill:#959981;fill-opacity:1;fill-rule:nonzero;stroke:none"
         d="m 1107.85,516.527 c -11.48,0 -15.02,4.168 -15.02,16.27 v 26.269 h -8.96 v 10.329 h 8.85 v 15.953 l 13.35,3.547 v -19.5 h 12.62 v -10.329 h -12.62 v -22.73 c 0,-6.668 1.57,-8.551 6.16,-8.551 2.18,0 4.59,0.32 6.46,0.832 v -10.73 c -3.33,-0.84 -7.19,-1.36 -10.84,-1.36" /><path
         id="path28"
         style="fill:#959981;fill-opacity:1;fill-rule:nonzero;stroke:none"
         d="m 1190.12,517.566 h -14.5 l -7.5,23.039 c -1.15,3.551 -1.98,7.204 -2.92,11.583 h -0.1 c -1.05,-4.801 -2.19,-8.762 -3.55,-13.032 l -6.57,-21.59 h -13.76 l -15.86,51.832 h 14.61 l 5.52,-19.613 c 1.36,-5.109 2.82,-10.316 4.07,-15.637 h 0.1 c 1.05,5.739 2.29,10.43 3.76,15.02 l 6.25,20.23 h 12.83 l 6.36,-19.613 c 1.87,-5.937 3.13,-10.527 4.17,-15.637 h 0.21 c 1.04,5.321 2.08,9.911 3.65,15.02 l 5.84,20.23 h 13.66 l -16.27,-51.832" /><path
         id="path30"
         style="fill:#959981;fill-opacity:1;fill-rule:nonzero;stroke:none"
         d="m 1242.55,517.566 c 0,3.02 0.1,6.051 0.52,8.762 l -0.1,0.098 c -2.5,-5.84 -8.87,-9.899 -16.58,-9.899 -9.39,0 -14.81,5.321 -14.81,13.661 0,12.41 12.3,18.98 29.92,18.98 v 2.809 c 0,5.429 -2.6,8.242 -10.1,8.242 -4.7,0 -10.95,-1.563 -15.33,-4.063 l -1.15,11.153 c 5.21,1.879 11.88,3.238 18.56,3.238 16.68,0 21.37,-6.781 21.37,-18.051 v -21.578 c 0,-4.172 0.11,-9.07 0.32,-13.352 z m -1.05,22.942 c -14.08,0 -17.2,-4.07 -17.2,-8.242 0,-3.328 2.29,-5.52 6.15,-5.52 6.57,0 11.05,6.262 11.05,12.512 v 1.25" /><path
         id="path32"
         style="fill:#959981;fill-opacity:1;fill-rule:nonzero;stroke:none"
         d="m 1299.27,557.402 c -9.59,1.981 -14.39,-4.281 -14.39,-18.668 v -21.171 h -13.35 v 51.832 h 12.61 c 0,-2.602 -0.3,-6.782 -0.93,-10.43 h 0.21 c 2.5,6.566 7.51,12.308 16.48,11.578 l -0.63,-13.141" /><path
         id="path34"
         style="fill:#959981;fill-opacity:1;fill-rule:nonzero;stroke:none"
         d="m 1351.92,541.344 h -32.11 c -0.11,-9.699 4.69,-14.391 14.28,-14.391 5.11,0 10.64,1.149 15.12,3.231 l 1.26,-10.321 c -5.53,-2.191 -12.1,-3.34 -18.57,-3.34 -16.48,0 -25.65,8.239 -25.65,26.489 0,15.851 8.75,27.531 24.3,27.531 15.11,0 21.79,-10.328 21.79,-23.148 0,-1.774 -0.11,-3.864 -0.42,-6.051 m -21.79,19.398 c -5.53,0 -9.39,-4.07 -10.12,-10.328 h 19.09 c 0.2,6.469 -3.34,10.328 -8.97,10.328" /><path
         id="path36"
         style="fill:#959981;fill-opacity:1;fill-rule:nonzero;stroke:none"
         d="m 935.391,469.477 h 13.547 v -70.391 h -13.547 v 70.391" /><path
         id="path38"
         style="fill:#959981;fill-opacity:1;fill-rule:nonzero;stroke:none"
         d="m 1028.09,399.082 v 32.852 c 0,5.519 -1.25,8.968 -6.16,8.968 -5.84,0 -11.88,-6.89 -11.88,-17 v -24.82 h -13.152 v 32.852 c 0,5.109 -1.031,8.968 -6.14,8.968 -6.16,0 -11.899,-7.3 -11.899,-17 v -24.82 H 965.52 v 51.832 h 12.609 c 0,-2.402 -0.199,-6.262 -0.719,-9.281 h 0.199 c 3.129,6.359 9.391,10.43 17.11,10.43 9.171,0 13.031,-5.43 14.281,-10.43 2.4,5.109 8.14,10.43 16.9,10.43 10.01,0 15.54,-5.532 15.54,-17.309 v -35.672 h -13.35" /><path
         id="path40"
         style="fill:#959981;fill-opacity:1;fill-rule:nonzero;stroke:none"
         d="m 1077.92,398.352 c -2.5,0 -4.48,0.109 -6.67,0.418 v -24.821 h -13.35 v 76.961 h 12.41 c 0,-2.508 -0.1,-5.937 -0.52,-8.66 h 0.21 c 2.92,6.051 8.45,9.699 16.27,9.699 12.3,0 18.98,-8.859 18.98,-24.187 0,-18.039 -9.39,-29.41 -27.33,-29.41 m 4.49,42.648 c -6.99,0 -11.16,-8.129 -11.16,-17 v -14.379 c 2.09,-0.629 4.27,-0.941 6.98,-0.941 7.51,0 13.04,4.793 13.04,17.621 0,9.699 -2.82,14.699 -8.86,14.699" /><path
         id="path42"
         style="fill:#959981;fill-opacity:1;fill-rule:nonzero;stroke:none"
         d="m 1146.01,438.918 c -9.59,1.98 -14.39,-4.281 -14.39,-18.672 v -21.168 h -13.35 v 51.828 h 12.61 c 0,-2.597 -0.3,-6.777 -0.93,-10.429 h 0.21 c 2.5,6.57 7.51,12.312 16.48,11.582 l -0.63,-13.141" /><path
         id="path44"
         style="fill:#959981;fill-opacity:1;fill-rule:nonzero;stroke:none"
         d="m 1176.66,398.043 c -14.7,0 -24.19,7.609 -24.19,26.066 0,16.161 10.74,27.84 26.49,27.84 14.7,0 24.19,-8.129 24.19,-25.957 0,-16.269 -10.95,-27.949 -26.49,-27.949 m 1.36,42.648 c -5.94,0 -11.78,-4.589 -11.78,-15.23 0,-10.629 3.86,-16.051 11.57,-16.051 6.57,0 11.58,5.32 11.58,15.84 0,10.02 -3.55,15.441 -11.37,15.441" /><path
         id="path46"
         style="fill:#959981;fill-opacity:1;fill-rule:nonzero;stroke:none"
         d="m 1240.68,399.082 h -13.55 l -19.19,51.832 h 14.6 l 8.24,-23.359 c 1.25,-3.551 2.49,-7.723 3.44,-11.473 h 0.2 c 0.84,3.551 1.88,7.512 3.13,11.051 l 8.34,23.781 h 14.19 l -19.4,-51.832" /><path
         id="path48"
         style="fill:#959981;fill-opacity:1;fill-rule:nonzero;stroke:none"
         d="m 1309.8,422.859 h -32.11 c -0.11,-9.703 4.69,-14.39 14.28,-14.39 5.11,0 10.64,1.148 15.12,3.23 l 1.26,-10.32 c -5.53,-2.191 -12.1,-3.34 -18.57,-3.34 -16.48,0 -25.65,8.238 -25.65,26.488 0,15.852 8.75,27.532 24.3,27.532 15.11,0 21.79,-10.332 21.79,-23.153 0,-1.769 -0.11,-3.859 -0.42,-6.047 m -21.79,19.399 c -5.53,0 -9.39,-4.07 -10.12,-10.328 h 19.09 c 0.2,6.468 -3.34,10.328 -8.97,10.328" /><path
         id="path50"
         style="fill:#959981;fill-opacity:1;fill-rule:nonzero;stroke:none"
         d="m 1386.03,399.082 v 32.852 c 0,5.519 -1.25,8.968 -6.16,8.968 -5.84,0 -11.88,-6.89 -11.88,-17 v -24.82 h -13.15 v 32.852 c 0,5.109 -1.03,8.968 -6.14,8.968 -6.16,0 -11.9,-7.3 -11.9,-17 v -24.82 h -13.34 v 51.832 h 12.61 c 0,-2.402 -0.2,-6.262 -0.72,-9.281 h 0.2 c 3.13,6.359 9.39,10.43 17.11,10.43 9.17,0 13.03,-5.43 14.28,-10.43 2.4,5.109 8.14,10.43 16.9,10.43 10.01,0 15.54,-5.532 15.54,-17.309 v -35.672 h -13.35" /><path
         id="path52"
         style="fill:#959981;fill-opacity:1;fill-rule:nonzero;stroke:none"
         d="m 1457.86,422.859 h -32.11 c -0.11,-9.703 4.69,-14.39 14.28,-14.39 5.11,0 10.64,1.148 15.12,3.23 l 1.26,-10.32 c -5.53,-2.191 -12.1,-3.34 -18.57,-3.34 -16.48,0 -25.65,8.238 -25.65,26.488 0,15.852 8.75,27.532 24.3,27.532 15.11,0 21.79,-10.332 21.79,-23.153 0,-1.769 -0.11,-3.859 -0.42,-6.047 m -21.79,19.399 c -5.53,0 -9.39,-4.07 -10.12,-10.328 h 19.09 c 0.2,6.468 -3.34,10.328 -8.97,10.328" /><path
         id="path54"
         style="fill:#959981;fill-opacity:1;fill-rule:nonzero;stroke:none"
         d="m 1503.32,399.082 v 33.16 c 0,5.43 -1.45,8.66 -6.36,8.66 -6.78,0 -12.1,-7.718 -12.1,-16.789 v -25.031 h -13.35 v 51.832 h 12.62 c 0,-2.402 -0.2,-6.473 -0.72,-9.18 l 0.1,-0.101 c 3.13,6.148 9.17,10.43 17.63,10.43 11.68,0 15.43,-7.508 15.43,-16.59 v -36.391 h -13.25" /><path
         id="path56"
         style="fill:#959981;fill-opacity:1;fill-rule:nonzero;stroke:none"
         d="m 1550.05,398.043 c -11.48,0 -15.02,4.168 -15.02,16.27 v 26.269 h -8.96 v 10.328 h 8.85 v 15.949 l 13.35,3.551 v -19.5 h 12.62 v -10.328 h -12.62 v -22.73 c 0,-6.672 1.57,-8.551 6.16,-8.551 2.18,0 4.59,0.32 6.46,0.832 v -10.731 c -3.33,-0.839 -7.19,-1.359 -10.84,-1.359" /><path
         id="path58"
         style="fill:#959981;fill-opacity:1;fill-rule:nonzero;stroke:none"
         d="m 989.09,336.387 c -5.629,2.191 -12.09,3.543 -18.66,3.543 -13.867,0 -23.879,-8.75 -23.879,-24.5 0,-14.91 8.129,-23.672 22.422,-23.672 3.34,0 6.25,0.422 8.968,1.25 V 317.52 H 991.5 v -33.582 c -6.988,-2.821 -15.648,-4.379 -24.098,-4.379 -22.32,0 -35.55,13.14 -35.55,34.621 0,22.109 15.007,37.847 39.41,37.847 6.988,0 13.871,-1.25 19.918,-3.019 l -2.09,-12.621" /><path
         id="path60"
         style="fill:#959981;fill-opacity:1;fill-rule:nonzero;stroke:none"
         d="m 1035.48,320.434 c -9.59,1.98 -14.39,-4.282 -14.39,-18.668 v -21.172 h -13.35 v 51.832 h 12.61 c 0,-2.602 -0.3,-6.781 -0.93,-10.434 h 0.21 c 2.5,6.571 7.51,12.313 16.48,11.582 l -0.63,-13.14" /><path
         id="path62"
         style="fill:#959981;fill-opacity:1;fill-rule:nonzero;stroke:none"
         d="m 1066.14,279.559 c -14.7,0 -24.19,7.609 -24.19,26.07 0,16.156 10.74,27.84 26.49,27.84 14.7,0 24.19,-8.133 24.19,-25.961 0,-16.27 -10.95,-27.949 -26.49,-27.949 m 1.36,42.648 c -5.94,0 -11.78,-4.59 -11.78,-15.23 0,-10.629 3.86,-16.051 11.57,-16.051 6.57,0 11.58,5.312 11.58,15.84 0,10.019 -3.55,15.441 -11.37,15.441" /><path
         id="path64"
         style="fill:#959981;fill-opacity:1;fill-rule:nonzero;stroke:none"
         d="m 1137.98,280.598 c 0,2.398 0.1,6.468 0.63,9.179 l -0.1,0.102 c -3.13,-6.152 -9.08,-10.43 -17.63,-10.43 -11.68,0 -15.44,7.508 -15.44,16.59 v 36.391 h 13.25 v -33.16 c 0,-5.43 1.46,-8.661 6.47,-8.661 6.78,0 11.99,7.719 11.99,16.789 v 25.032 h 13.34 v -51.832 h -12.51" /><path
         id="path66"
         style="fill:#959981;fill-opacity:1;fill-rule:nonzero;stroke:none"
         d="m 1186.98,279.867 c -2.5,0 -4.48,0.11 -6.67,0.418 v -24.816 h -13.35 v 76.957 h 12.41 c 0,-2.5 -0.1,-5.938 -0.52,-8.66 h 0.21 c 2.92,6.05 8.45,9.703 16.27,9.703 12.3,0 18.98,-8.864 18.98,-24.192 0,-18.039 -9.39,-29.41 -27.33,-29.41 m 4.49,42.649 c -6.99,0 -11.16,-8.129 -11.16,-17 v -14.387 c 2.09,-0.621 4.27,-0.934 6.98,-0.934 7.51,0 13.04,4.793 13.04,17.621 0,9.7 -2.82,14.7 -8.86,14.7" /></g></g></svg>